%TF.GenerationSoftware,KiCad,Pcbnew,9.0.9-9.0.9~ubuntu24.04.1*%
%TF.CreationDate,2026-08-02T14:39:42+02:00*%
%TF.ProjectId,power_kicad,706f7765-725f-46b6-9963-61642e6b6963,rev?*%
%TF.SameCoordinates,Original*%
%TF.FileFunction,Drillmap*%
%TF.FilePolarity,Positive*%
%FSLAX45Y45*%
G04 Gerber Fmt 4.5, Leading zero omitted, Abs format (unit mm)*
G04 Created by KiCad (PCBNEW 9.0.9-9.0.9~ubuntu24.04.1) date 2026-08-02 14:39:42*
%MOMM*%
%LPD*%
G01*
G04 APERTURE LIST*
%ADD10C,0.100000*%
%ADD11C,0.200000*%
%ADD12C,0.140000*%
G04 APERTURE END LIST*
D10*
X0Y0D02*
X5588000Y0D01*
X0Y-2032000D02*
X0Y0D01*
X5588000Y0D02*
X5588000Y-2032000D01*
X5588000Y-2032000D02*
X0Y-2032000D01*
D11*
D10*
X667500Y-694500D02*
X732500Y-759500D01*
X732500Y-694500D02*
X667500Y-759500D01*
X667500Y-1272500D02*
X732500Y-1337500D01*
X732500Y-1272500D02*
X667500Y-1337500D01*
D12*
X220000Y-126000D02*
G75*
G02*
X80000Y-126000I-70000J0D01*
G01*
X80000Y-126000D02*
G75*
G02*
X220000Y-126000I70000J0D01*
G01*
X220000Y-1906000D02*
G75*
G02*
X80000Y-1906000I-70000J0D01*
G01*
X80000Y-1906000D02*
G75*
G02*
X220000Y-1906000I70000J0D01*
G01*
X5508000Y-126000D02*
G75*
G02*
X5368000Y-126000I-70000J0D01*
G01*
X5368000Y-126000D02*
G75*
G02*
X5508000Y-126000I70000J0D01*
G01*
X5508000Y-1906000D02*
G75*
G02*
X5368000Y-1906000I-70000J0D01*
G01*
X5368000Y-1906000D02*
G75*
G02*
X5508000Y-1906000I70000J0D01*
G01*
D11*
X255777Y-2348484D02*
X255777Y-2148484D01*
X255777Y-2148484D02*
X303396Y-2148484D01*
X303396Y-2148484D02*
X331967Y-2158008D01*
X331967Y-2158008D02*
X351015Y-2177055D01*
X351015Y-2177055D02*
X360539Y-2196103D01*
X360539Y-2196103D02*
X370062Y-2234198D01*
X370062Y-2234198D02*
X370062Y-2262770D01*
X370062Y-2262770D02*
X360539Y-2300865D01*
X360539Y-2300865D02*
X351015Y-2319912D01*
X351015Y-2319912D02*
X331967Y-2338960D01*
X331967Y-2338960D02*
X303396Y-2348484D01*
X303396Y-2348484D02*
X255777Y-2348484D01*
X455777Y-2348484D02*
X455777Y-2215150D01*
X455777Y-2253246D02*
X465301Y-2234198D01*
X465301Y-2234198D02*
X474824Y-2224674D01*
X474824Y-2224674D02*
X493872Y-2215150D01*
X493872Y-2215150D02*
X512920Y-2215150D01*
X579586Y-2348484D02*
X579586Y-2215150D01*
X579586Y-2148484D02*
X570063Y-2158008D01*
X570063Y-2158008D02*
X579586Y-2167531D01*
X579586Y-2167531D02*
X589110Y-2158008D01*
X589110Y-2158008D02*
X579586Y-2148484D01*
X579586Y-2148484D02*
X579586Y-2167531D01*
X703396Y-2348484D02*
X684348Y-2338960D01*
X684348Y-2338960D02*
X674824Y-2319912D01*
X674824Y-2319912D02*
X674824Y-2148484D01*
X808158Y-2348484D02*
X789110Y-2338960D01*
X789110Y-2338960D02*
X779586Y-2319912D01*
X779586Y-2319912D02*
X779586Y-2148484D01*
X1036729Y-2348484D02*
X1036729Y-2148484D01*
X1036729Y-2148484D02*
X1103396Y-2291341D01*
X1103396Y-2291341D02*
X1170063Y-2148484D01*
X1170063Y-2148484D02*
X1170063Y-2348484D01*
X1351015Y-2348484D02*
X1351015Y-2243722D01*
X1351015Y-2243722D02*
X1341491Y-2224674D01*
X1341491Y-2224674D02*
X1322444Y-2215150D01*
X1322444Y-2215150D02*
X1284348Y-2215150D01*
X1284348Y-2215150D02*
X1265301Y-2224674D01*
X1351015Y-2338960D02*
X1331967Y-2348484D01*
X1331967Y-2348484D02*
X1284348Y-2348484D01*
X1284348Y-2348484D02*
X1265301Y-2338960D01*
X1265301Y-2338960D02*
X1255777Y-2319912D01*
X1255777Y-2319912D02*
X1255777Y-2300865D01*
X1255777Y-2300865D02*
X1265301Y-2281817D01*
X1265301Y-2281817D02*
X1284348Y-2272293D01*
X1284348Y-2272293D02*
X1331967Y-2272293D01*
X1331967Y-2272293D02*
X1351015Y-2262770D01*
X1446253Y-2215150D02*
X1446253Y-2415150D01*
X1446253Y-2224674D02*
X1465301Y-2215150D01*
X1465301Y-2215150D02*
X1503396Y-2215150D01*
X1503396Y-2215150D02*
X1522443Y-2224674D01*
X1522443Y-2224674D02*
X1531967Y-2234198D01*
X1531967Y-2234198D02*
X1541491Y-2253246D01*
X1541491Y-2253246D02*
X1541491Y-2310389D01*
X1541491Y-2310389D02*
X1531967Y-2329436D01*
X1531967Y-2329436D02*
X1522443Y-2338960D01*
X1522443Y-2338960D02*
X1503396Y-2348484D01*
X1503396Y-2348484D02*
X1465301Y-2348484D01*
X1465301Y-2348484D02*
X1446253Y-2338960D01*
X1627205Y-2329436D02*
X1636729Y-2338960D01*
X1636729Y-2338960D02*
X1627205Y-2348484D01*
X1627205Y-2348484D02*
X1617682Y-2338960D01*
X1617682Y-2338960D02*
X1627205Y-2329436D01*
X1627205Y-2329436D02*
X1627205Y-2348484D01*
X1627205Y-2224674D02*
X1636729Y-2234198D01*
X1636729Y-2234198D02*
X1627205Y-2243722D01*
X1627205Y-2243722D02*
X1617682Y-2234198D01*
X1617682Y-2234198D02*
X1627205Y-2224674D01*
X1627205Y-2224674D02*
X1627205Y-2243722D01*
D10*
X-70000Y-2644500D02*
X-5000Y-2709500D01*
X-5000Y-2644500D02*
X-70000Y-2709500D01*
D11*
X293872Y-2568484D02*
X312920Y-2568484D01*
X312920Y-2568484D02*
X331967Y-2578008D01*
X331967Y-2578008D02*
X341491Y-2587531D01*
X341491Y-2587531D02*
X351015Y-2606579D01*
X351015Y-2606579D02*
X360539Y-2644674D01*
X360539Y-2644674D02*
X360539Y-2692293D01*
X360539Y-2692293D02*
X351015Y-2730389D01*
X351015Y-2730389D02*
X341491Y-2749436D01*
X341491Y-2749436D02*
X331967Y-2758960D01*
X331967Y-2758960D02*
X312920Y-2768484D01*
X312920Y-2768484D02*
X293872Y-2768484D01*
X293872Y-2768484D02*
X274824Y-2758960D01*
X274824Y-2758960D02*
X265301Y-2749436D01*
X265301Y-2749436D02*
X255777Y-2730389D01*
X255777Y-2730389D02*
X246253Y-2692293D01*
X246253Y-2692293D02*
X246253Y-2644674D01*
X246253Y-2644674D02*
X255777Y-2606579D01*
X255777Y-2606579D02*
X265301Y-2587531D01*
X265301Y-2587531D02*
X274824Y-2578008D01*
X274824Y-2578008D02*
X293872Y-2568484D01*
X446253Y-2749436D02*
X455777Y-2758960D01*
X455777Y-2758960D02*
X446253Y-2768484D01*
X446253Y-2768484D02*
X436729Y-2758960D01*
X436729Y-2758960D02*
X446253Y-2749436D01*
X446253Y-2749436D02*
X446253Y-2768484D01*
X627205Y-2568484D02*
X589110Y-2568484D01*
X589110Y-2568484D02*
X570063Y-2578008D01*
X570063Y-2578008D02*
X560539Y-2587531D01*
X560539Y-2587531D02*
X541491Y-2616103D01*
X541491Y-2616103D02*
X531967Y-2654198D01*
X531967Y-2654198D02*
X531967Y-2730389D01*
X531967Y-2730389D02*
X541491Y-2749436D01*
X541491Y-2749436D02*
X551015Y-2758960D01*
X551015Y-2758960D02*
X570063Y-2768484D01*
X570063Y-2768484D02*
X608158Y-2768484D01*
X608158Y-2768484D02*
X627205Y-2758960D01*
X627205Y-2758960D02*
X636729Y-2749436D01*
X636729Y-2749436D02*
X646253Y-2730389D01*
X646253Y-2730389D02*
X646253Y-2682770D01*
X646253Y-2682770D02*
X636729Y-2663722D01*
X636729Y-2663722D02*
X627205Y-2654198D01*
X627205Y-2654198D02*
X608158Y-2644674D01*
X608158Y-2644674D02*
X570063Y-2644674D01*
X570063Y-2644674D02*
X551015Y-2654198D01*
X551015Y-2654198D02*
X541491Y-2663722D01*
X541491Y-2663722D02*
X531967Y-2682770D01*
X827205Y-2568484D02*
X731967Y-2568484D01*
X731967Y-2568484D02*
X722443Y-2663722D01*
X722443Y-2663722D02*
X731967Y-2654198D01*
X731967Y-2654198D02*
X751015Y-2644674D01*
X751015Y-2644674D02*
X798634Y-2644674D01*
X798634Y-2644674D02*
X817682Y-2654198D01*
X817682Y-2654198D02*
X827205Y-2663722D01*
X827205Y-2663722D02*
X836729Y-2682770D01*
X836729Y-2682770D02*
X836729Y-2730389D01*
X836729Y-2730389D02*
X827205Y-2749436D01*
X827205Y-2749436D02*
X817682Y-2758960D01*
X817682Y-2758960D02*
X798634Y-2768484D01*
X798634Y-2768484D02*
X751015Y-2768484D01*
X751015Y-2768484D02*
X731967Y-2758960D01*
X731967Y-2758960D02*
X722443Y-2749436D01*
X960539Y-2568484D02*
X979586Y-2568484D01*
X979586Y-2568484D02*
X998634Y-2578008D01*
X998634Y-2578008D02*
X1008158Y-2587531D01*
X1008158Y-2587531D02*
X1017682Y-2606579D01*
X1017682Y-2606579D02*
X1027205Y-2644674D01*
X1027205Y-2644674D02*
X1027205Y-2692293D01*
X1027205Y-2692293D02*
X1017682Y-2730389D01*
X1017682Y-2730389D02*
X1008158Y-2749436D01*
X1008158Y-2749436D02*
X998634Y-2758960D01*
X998634Y-2758960D02*
X979586Y-2768484D01*
X979586Y-2768484D02*
X960539Y-2768484D01*
X960539Y-2768484D02*
X941491Y-2758960D01*
X941491Y-2758960D02*
X931967Y-2749436D01*
X931967Y-2749436D02*
X922443Y-2730389D01*
X922443Y-2730389D02*
X912920Y-2692293D01*
X912920Y-2692293D02*
X912920Y-2644674D01*
X912920Y-2644674D02*
X922443Y-2606579D01*
X922443Y-2606579D02*
X931967Y-2587531D01*
X931967Y-2587531D02*
X941491Y-2578008D01*
X941491Y-2578008D02*
X960539Y-2568484D01*
X1112920Y-2768484D02*
X1112920Y-2635150D01*
X1112920Y-2654198D02*
X1122444Y-2644674D01*
X1122444Y-2644674D02*
X1141491Y-2635150D01*
X1141491Y-2635150D02*
X1170063Y-2635150D01*
X1170063Y-2635150D02*
X1189110Y-2644674D01*
X1189110Y-2644674D02*
X1198634Y-2663722D01*
X1198634Y-2663722D02*
X1198634Y-2768484D01*
X1198634Y-2663722D02*
X1208158Y-2644674D01*
X1208158Y-2644674D02*
X1227205Y-2635150D01*
X1227205Y-2635150D02*
X1255777Y-2635150D01*
X1255777Y-2635150D02*
X1274825Y-2644674D01*
X1274825Y-2644674D02*
X1284348Y-2663722D01*
X1284348Y-2663722D02*
X1284348Y-2768484D01*
X1379586Y-2768484D02*
X1379586Y-2635150D01*
X1379586Y-2654198D02*
X1389110Y-2644674D01*
X1389110Y-2644674D02*
X1408158Y-2635150D01*
X1408158Y-2635150D02*
X1436729Y-2635150D01*
X1436729Y-2635150D02*
X1455777Y-2644674D01*
X1455777Y-2644674D02*
X1465301Y-2663722D01*
X1465301Y-2663722D02*
X1465301Y-2768484D01*
X1465301Y-2663722D02*
X1474824Y-2644674D01*
X1474824Y-2644674D02*
X1493872Y-2635150D01*
X1493872Y-2635150D02*
X1522443Y-2635150D01*
X1522443Y-2635150D02*
X1541491Y-2644674D01*
X1541491Y-2644674D02*
X1551015Y-2663722D01*
X1551015Y-2663722D02*
X1551015Y-2768484D01*
X1941491Y-2558960D02*
X1770063Y-2816103D01*
X2198634Y-2568484D02*
X2217682Y-2568484D01*
X2217682Y-2568484D02*
X2236729Y-2578008D01*
X2236729Y-2578008D02*
X2246253Y-2587531D01*
X2246253Y-2587531D02*
X2255777Y-2606579D01*
X2255777Y-2606579D02*
X2265301Y-2644674D01*
X2265301Y-2644674D02*
X2265301Y-2692293D01*
X2265301Y-2692293D02*
X2255777Y-2730389D01*
X2255777Y-2730389D02*
X2246253Y-2749436D01*
X2246253Y-2749436D02*
X2236729Y-2758960D01*
X2236729Y-2758960D02*
X2217682Y-2768484D01*
X2217682Y-2768484D02*
X2198634Y-2768484D01*
X2198634Y-2768484D02*
X2179587Y-2758960D01*
X2179587Y-2758960D02*
X2170063Y-2749436D01*
X2170063Y-2749436D02*
X2160539Y-2730389D01*
X2160539Y-2730389D02*
X2151015Y-2692293D01*
X2151015Y-2692293D02*
X2151015Y-2644674D01*
X2151015Y-2644674D02*
X2160539Y-2606579D01*
X2160539Y-2606579D02*
X2170063Y-2587531D01*
X2170063Y-2587531D02*
X2179587Y-2578008D01*
X2179587Y-2578008D02*
X2198634Y-2568484D01*
X2351015Y-2749436D02*
X2360539Y-2758960D01*
X2360539Y-2758960D02*
X2351015Y-2768484D01*
X2351015Y-2768484D02*
X2341491Y-2758960D01*
X2341491Y-2758960D02*
X2351015Y-2749436D01*
X2351015Y-2749436D02*
X2351015Y-2768484D01*
X2484348Y-2568484D02*
X2503396Y-2568484D01*
X2503396Y-2568484D02*
X2522444Y-2578008D01*
X2522444Y-2578008D02*
X2531968Y-2587531D01*
X2531968Y-2587531D02*
X2541491Y-2606579D01*
X2541491Y-2606579D02*
X2551015Y-2644674D01*
X2551015Y-2644674D02*
X2551015Y-2692293D01*
X2551015Y-2692293D02*
X2541491Y-2730389D01*
X2541491Y-2730389D02*
X2531968Y-2749436D01*
X2531968Y-2749436D02*
X2522444Y-2758960D01*
X2522444Y-2758960D02*
X2503396Y-2768484D01*
X2503396Y-2768484D02*
X2484348Y-2768484D01*
X2484348Y-2768484D02*
X2465301Y-2758960D01*
X2465301Y-2758960D02*
X2455777Y-2749436D01*
X2455777Y-2749436D02*
X2446253Y-2730389D01*
X2446253Y-2730389D02*
X2436729Y-2692293D01*
X2436729Y-2692293D02*
X2436729Y-2644674D01*
X2436729Y-2644674D02*
X2446253Y-2606579D01*
X2446253Y-2606579D02*
X2455777Y-2587531D01*
X2455777Y-2587531D02*
X2465301Y-2578008D01*
X2465301Y-2578008D02*
X2484348Y-2568484D01*
X2627206Y-2587531D02*
X2636729Y-2578008D01*
X2636729Y-2578008D02*
X2655777Y-2568484D01*
X2655777Y-2568484D02*
X2703396Y-2568484D01*
X2703396Y-2568484D02*
X2722444Y-2578008D01*
X2722444Y-2578008D02*
X2731968Y-2587531D01*
X2731968Y-2587531D02*
X2741491Y-2606579D01*
X2741491Y-2606579D02*
X2741491Y-2625627D01*
X2741491Y-2625627D02*
X2731968Y-2654198D01*
X2731968Y-2654198D02*
X2617682Y-2768484D01*
X2617682Y-2768484D02*
X2741491Y-2768484D01*
X2922444Y-2568484D02*
X2827206Y-2568484D01*
X2827206Y-2568484D02*
X2817682Y-2663722D01*
X2817682Y-2663722D02*
X2827206Y-2654198D01*
X2827206Y-2654198D02*
X2846253Y-2644674D01*
X2846253Y-2644674D02*
X2893872Y-2644674D01*
X2893872Y-2644674D02*
X2912920Y-2654198D01*
X2912920Y-2654198D02*
X2922444Y-2663722D01*
X2922444Y-2663722D02*
X2931967Y-2682770D01*
X2931967Y-2682770D02*
X2931967Y-2730389D01*
X2931967Y-2730389D02*
X2922444Y-2749436D01*
X2922444Y-2749436D02*
X2912920Y-2758960D01*
X2912920Y-2758960D02*
X2893872Y-2768484D01*
X2893872Y-2768484D02*
X2846253Y-2768484D01*
X2846253Y-2768484D02*
X2827206Y-2758960D01*
X2827206Y-2758960D02*
X2817682Y-2749436D01*
X3103396Y-2568484D02*
X3065301Y-2568484D01*
X3065301Y-2568484D02*
X3046253Y-2578008D01*
X3046253Y-2578008D02*
X3036729Y-2587531D01*
X3036729Y-2587531D02*
X3017682Y-2616103D01*
X3017682Y-2616103D02*
X3008158Y-2654198D01*
X3008158Y-2654198D02*
X3008158Y-2730389D01*
X3008158Y-2730389D02*
X3017682Y-2749436D01*
X3017682Y-2749436D02*
X3027206Y-2758960D01*
X3027206Y-2758960D02*
X3046253Y-2768484D01*
X3046253Y-2768484D02*
X3084348Y-2768484D01*
X3084348Y-2768484D02*
X3103396Y-2758960D01*
X3103396Y-2758960D02*
X3112920Y-2749436D01*
X3112920Y-2749436D02*
X3122444Y-2730389D01*
X3122444Y-2730389D02*
X3122444Y-2682770D01*
X3122444Y-2682770D02*
X3112920Y-2663722D01*
X3112920Y-2663722D02*
X3103396Y-2654198D01*
X3103396Y-2654198D02*
X3084348Y-2644674D01*
X3084348Y-2644674D02*
X3046253Y-2644674D01*
X3046253Y-2644674D02*
X3027206Y-2654198D01*
X3027206Y-2654198D02*
X3017682Y-2663722D01*
X3017682Y-2663722D02*
X3008158Y-2682770D01*
X3198634Y-2568484D02*
X3198634Y-2606579D01*
X3274825Y-2568484D02*
X3274825Y-2606579D01*
X3570063Y-2844674D02*
X3560539Y-2835150D01*
X3560539Y-2835150D02*
X3541491Y-2806579D01*
X3541491Y-2806579D02*
X3531968Y-2787531D01*
X3531968Y-2787531D02*
X3522444Y-2758960D01*
X3522444Y-2758960D02*
X3512920Y-2711341D01*
X3512920Y-2711341D02*
X3512920Y-2673246D01*
X3512920Y-2673246D02*
X3522444Y-2625627D01*
X3522444Y-2625627D02*
X3531968Y-2597055D01*
X3531968Y-2597055D02*
X3541491Y-2578008D01*
X3541491Y-2578008D02*
X3560539Y-2549436D01*
X3560539Y-2549436D02*
X3570063Y-2539912D01*
X3636729Y-2587531D02*
X3646253Y-2578008D01*
X3646253Y-2578008D02*
X3665301Y-2568484D01*
X3665301Y-2568484D02*
X3712920Y-2568484D01*
X3712920Y-2568484D02*
X3731968Y-2578008D01*
X3731968Y-2578008D02*
X3741491Y-2587531D01*
X3741491Y-2587531D02*
X3751015Y-2606579D01*
X3751015Y-2606579D02*
X3751015Y-2625627D01*
X3751015Y-2625627D02*
X3741491Y-2654198D01*
X3741491Y-2654198D02*
X3627206Y-2768484D01*
X3627206Y-2768484D02*
X3751015Y-2768484D01*
X3989110Y-2768484D02*
X3989110Y-2568484D01*
X4074825Y-2768484D02*
X4074825Y-2663722D01*
X4074825Y-2663722D02*
X4065301Y-2644674D01*
X4065301Y-2644674D02*
X4046253Y-2635150D01*
X4046253Y-2635150D02*
X4017682Y-2635150D01*
X4017682Y-2635150D02*
X3998634Y-2644674D01*
X3998634Y-2644674D02*
X3989110Y-2654198D01*
X4198634Y-2768484D02*
X4179587Y-2758960D01*
X4179587Y-2758960D02*
X4170063Y-2749436D01*
X4170063Y-2749436D02*
X4160539Y-2730389D01*
X4160539Y-2730389D02*
X4160539Y-2673246D01*
X4160539Y-2673246D02*
X4170063Y-2654198D01*
X4170063Y-2654198D02*
X4179587Y-2644674D01*
X4179587Y-2644674D02*
X4198634Y-2635150D01*
X4198634Y-2635150D02*
X4227206Y-2635150D01*
X4227206Y-2635150D02*
X4246253Y-2644674D01*
X4246253Y-2644674D02*
X4255777Y-2654198D01*
X4255777Y-2654198D02*
X4265301Y-2673246D01*
X4265301Y-2673246D02*
X4265301Y-2730389D01*
X4265301Y-2730389D02*
X4255777Y-2749436D01*
X4255777Y-2749436D02*
X4246253Y-2758960D01*
X4246253Y-2758960D02*
X4227206Y-2768484D01*
X4227206Y-2768484D02*
X4198634Y-2768484D01*
X4379587Y-2768484D02*
X4360539Y-2758960D01*
X4360539Y-2758960D02*
X4351015Y-2739912D01*
X4351015Y-2739912D02*
X4351015Y-2568484D01*
X4531968Y-2758960D02*
X4512920Y-2768484D01*
X4512920Y-2768484D02*
X4474825Y-2768484D01*
X4474825Y-2768484D02*
X4455777Y-2758960D01*
X4455777Y-2758960D02*
X4446253Y-2739912D01*
X4446253Y-2739912D02*
X4446253Y-2663722D01*
X4446253Y-2663722D02*
X4455777Y-2644674D01*
X4455777Y-2644674D02*
X4474825Y-2635150D01*
X4474825Y-2635150D02*
X4512920Y-2635150D01*
X4512920Y-2635150D02*
X4531968Y-2644674D01*
X4531968Y-2644674D02*
X4541492Y-2663722D01*
X4541492Y-2663722D02*
X4541492Y-2682770D01*
X4541492Y-2682770D02*
X4446253Y-2701817D01*
X4617682Y-2758960D02*
X4636730Y-2768484D01*
X4636730Y-2768484D02*
X4674825Y-2768484D01*
X4674825Y-2768484D02*
X4693873Y-2758960D01*
X4693873Y-2758960D02*
X4703396Y-2739912D01*
X4703396Y-2739912D02*
X4703396Y-2730389D01*
X4703396Y-2730389D02*
X4693873Y-2711341D01*
X4693873Y-2711341D02*
X4674825Y-2701817D01*
X4674825Y-2701817D02*
X4646253Y-2701817D01*
X4646253Y-2701817D02*
X4627206Y-2692293D01*
X4627206Y-2692293D02*
X4617682Y-2673246D01*
X4617682Y-2673246D02*
X4617682Y-2663722D01*
X4617682Y-2663722D02*
X4627206Y-2644674D01*
X4627206Y-2644674D02*
X4646253Y-2635150D01*
X4646253Y-2635150D02*
X4674825Y-2635150D01*
X4674825Y-2635150D02*
X4693873Y-2644674D01*
X4770063Y-2844674D02*
X4779587Y-2835150D01*
X4779587Y-2835150D02*
X4798634Y-2806579D01*
X4798634Y-2806579D02*
X4808158Y-2787531D01*
X4808158Y-2787531D02*
X4817682Y-2758960D01*
X4817682Y-2758960D02*
X4827206Y-2711341D01*
X4827206Y-2711341D02*
X4827206Y-2673246D01*
X4827206Y-2673246D02*
X4817682Y-2625627D01*
X4817682Y-2625627D02*
X4808158Y-2597055D01*
X4808158Y-2597055D02*
X4798634Y-2578008D01*
X4798634Y-2578008D02*
X4779587Y-2549436D01*
X4779587Y-2549436D02*
X4770063Y-2539912D01*
X5131968Y-2844674D02*
X5122444Y-2835150D01*
X5122444Y-2835150D02*
X5103396Y-2806579D01*
X5103396Y-2806579D02*
X5093873Y-2787531D01*
X5093873Y-2787531D02*
X5084349Y-2758960D01*
X5084349Y-2758960D02*
X5074825Y-2711341D01*
X5074825Y-2711341D02*
X5074825Y-2673246D01*
X5074825Y-2673246D02*
X5084349Y-2625627D01*
X5084349Y-2625627D02*
X5093873Y-2597055D01*
X5093873Y-2597055D02*
X5103396Y-2578008D01*
X5103396Y-2578008D02*
X5122444Y-2549436D01*
X5122444Y-2549436D02*
X5131968Y-2539912D01*
X5208158Y-2635150D02*
X5208158Y-2768484D01*
X5208158Y-2654198D02*
X5217682Y-2644674D01*
X5217682Y-2644674D02*
X5236730Y-2635150D01*
X5236730Y-2635150D02*
X5265301Y-2635150D01*
X5265301Y-2635150D02*
X5284349Y-2644674D01*
X5284349Y-2644674D02*
X5293873Y-2663722D01*
X5293873Y-2663722D02*
X5293873Y-2768484D01*
X5417682Y-2768484D02*
X5398634Y-2758960D01*
X5398634Y-2758960D02*
X5389111Y-2749436D01*
X5389111Y-2749436D02*
X5379587Y-2730389D01*
X5379587Y-2730389D02*
X5379587Y-2673246D01*
X5379587Y-2673246D02*
X5389111Y-2654198D01*
X5389111Y-2654198D02*
X5398634Y-2644674D01*
X5398634Y-2644674D02*
X5417682Y-2635150D01*
X5417682Y-2635150D02*
X5446254Y-2635150D01*
X5446254Y-2635150D02*
X5465301Y-2644674D01*
X5465301Y-2644674D02*
X5474825Y-2654198D01*
X5474825Y-2654198D02*
X5484349Y-2673246D01*
X5484349Y-2673246D02*
X5484349Y-2730389D01*
X5484349Y-2730389D02*
X5474825Y-2749436D01*
X5474825Y-2749436D02*
X5465301Y-2758960D01*
X5465301Y-2758960D02*
X5446254Y-2768484D01*
X5446254Y-2768484D02*
X5417682Y-2768484D01*
X5541492Y-2635150D02*
X5617682Y-2635150D01*
X5570063Y-2568484D02*
X5570063Y-2739912D01*
X5570063Y-2739912D02*
X5579587Y-2758960D01*
X5579587Y-2758960D02*
X5598634Y-2768484D01*
X5598634Y-2768484D02*
X5617682Y-2768484D01*
X5836730Y-2635150D02*
X5836730Y-2835150D01*
X5836730Y-2644674D02*
X5855777Y-2635150D01*
X5855777Y-2635150D02*
X5893873Y-2635150D01*
X5893873Y-2635150D02*
X5912920Y-2644674D01*
X5912920Y-2644674D02*
X5922444Y-2654198D01*
X5922444Y-2654198D02*
X5931968Y-2673246D01*
X5931968Y-2673246D02*
X5931968Y-2730389D01*
X5931968Y-2730389D02*
X5922444Y-2749436D01*
X5922444Y-2749436D02*
X5912920Y-2758960D01*
X5912920Y-2758960D02*
X5893873Y-2768484D01*
X5893873Y-2768484D02*
X5855777Y-2768484D01*
X5855777Y-2768484D02*
X5836730Y-2758960D01*
X6046253Y-2768484D02*
X6027206Y-2758960D01*
X6027206Y-2758960D02*
X6017682Y-2739912D01*
X6017682Y-2739912D02*
X6017682Y-2568484D01*
X6208158Y-2768484D02*
X6208158Y-2663722D01*
X6208158Y-2663722D02*
X6198634Y-2644674D01*
X6198634Y-2644674D02*
X6179587Y-2635150D01*
X6179587Y-2635150D02*
X6141492Y-2635150D01*
X6141492Y-2635150D02*
X6122444Y-2644674D01*
X6208158Y-2758960D02*
X6189111Y-2768484D01*
X6189111Y-2768484D02*
X6141492Y-2768484D01*
X6141492Y-2768484D02*
X6122444Y-2758960D01*
X6122444Y-2758960D02*
X6112920Y-2739912D01*
X6112920Y-2739912D02*
X6112920Y-2720865D01*
X6112920Y-2720865D02*
X6122444Y-2701817D01*
X6122444Y-2701817D02*
X6141492Y-2692293D01*
X6141492Y-2692293D02*
X6189111Y-2692293D01*
X6189111Y-2692293D02*
X6208158Y-2682770D01*
X6274825Y-2635150D02*
X6351015Y-2635150D01*
X6303396Y-2568484D02*
X6303396Y-2739912D01*
X6303396Y-2739912D02*
X6312920Y-2758960D01*
X6312920Y-2758960D02*
X6331968Y-2768484D01*
X6331968Y-2768484D02*
X6351015Y-2768484D01*
X6493873Y-2758960D02*
X6474825Y-2768484D01*
X6474825Y-2768484D02*
X6436730Y-2768484D01*
X6436730Y-2768484D02*
X6417682Y-2758960D01*
X6417682Y-2758960D02*
X6408158Y-2739912D01*
X6408158Y-2739912D02*
X6408158Y-2663722D01*
X6408158Y-2663722D02*
X6417682Y-2644674D01*
X6417682Y-2644674D02*
X6436730Y-2635150D01*
X6436730Y-2635150D02*
X6474825Y-2635150D01*
X6474825Y-2635150D02*
X6493873Y-2644674D01*
X6493873Y-2644674D02*
X6503396Y-2663722D01*
X6503396Y-2663722D02*
X6503396Y-2682770D01*
X6503396Y-2682770D02*
X6408158Y-2701817D01*
X6674825Y-2768484D02*
X6674825Y-2568484D01*
X6674825Y-2758960D02*
X6655777Y-2768484D01*
X6655777Y-2768484D02*
X6617682Y-2768484D01*
X6617682Y-2768484D02*
X6598634Y-2758960D01*
X6598634Y-2758960D02*
X6589111Y-2749436D01*
X6589111Y-2749436D02*
X6579587Y-2730389D01*
X6579587Y-2730389D02*
X6579587Y-2673246D01*
X6579587Y-2673246D02*
X6589111Y-2654198D01*
X6589111Y-2654198D02*
X6598634Y-2644674D01*
X6598634Y-2644674D02*
X6617682Y-2635150D01*
X6617682Y-2635150D02*
X6655777Y-2635150D01*
X6655777Y-2635150D02*
X6674825Y-2644674D01*
X6751015Y-2844674D02*
X6760539Y-2835150D01*
X6760539Y-2835150D02*
X6779587Y-2806579D01*
X6779587Y-2806579D02*
X6789111Y-2787531D01*
X6789111Y-2787531D02*
X6798634Y-2758960D01*
X6798634Y-2758960D02*
X6808158Y-2711341D01*
X6808158Y-2711341D02*
X6808158Y-2673246D01*
X6808158Y-2673246D02*
X6798634Y-2625627D01*
X6798634Y-2625627D02*
X6789111Y-2597055D01*
X6789111Y-2597055D02*
X6779587Y-2578008D01*
X6779587Y-2578008D02*
X6760539Y-2549436D01*
X6760539Y-2549436D02*
X6751015Y-2539912D01*
D12*
X-5000Y-2941000D02*
G75*
G02*
X-145000Y-2941000I-70000J0D01*
G01*
X-145000Y-2941000D02*
G75*
G02*
X-5000Y-2941000I70000J0D01*
G01*
D11*
X360539Y-3032484D02*
X246253Y-3032484D01*
X303396Y-3032484D02*
X303396Y-2832484D01*
X303396Y-2832484D02*
X284348Y-2861055D01*
X284348Y-2861055D02*
X265301Y-2880103D01*
X265301Y-2880103D02*
X246253Y-2889627D01*
X446253Y-3013436D02*
X455777Y-3022960D01*
X455777Y-3022960D02*
X446253Y-3032484D01*
X446253Y-3032484D02*
X436729Y-3022960D01*
X436729Y-3022960D02*
X446253Y-3013436D01*
X446253Y-3013436D02*
X446253Y-3032484D01*
X627205Y-2899150D02*
X627205Y-3032484D01*
X579586Y-2822960D02*
X531967Y-2965817D01*
X531967Y-2965817D02*
X655777Y-2965817D01*
X770062Y-2832484D02*
X789110Y-2832484D01*
X789110Y-2832484D02*
X808158Y-2842008D01*
X808158Y-2842008D02*
X817682Y-2851531D01*
X817682Y-2851531D02*
X827205Y-2870579D01*
X827205Y-2870579D02*
X836729Y-2908674D01*
X836729Y-2908674D02*
X836729Y-2956293D01*
X836729Y-2956293D02*
X827205Y-2994388D01*
X827205Y-2994388D02*
X817682Y-3013436D01*
X817682Y-3013436D02*
X808158Y-3022960D01*
X808158Y-3022960D02*
X789110Y-3032484D01*
X789110Y-3032484D02*
X770062Y-3032484D01*
X770062Y-3032484D02*
X751015Y-3022960D01*
X751015Y-3022960D02*
X741491Y-3013436D01*
X741491Y-3013436D02*
X731967Y-2994388D01*
X731967Y-2994388D02*
X722443Y-2956293D01*
X722443Y-2956293D02*
X722443Y-2908674D01*
X722443Y-2908674D02*
X731967Y-2870579D01*
X731967Y-2870579D02*
X741491Y-2851531D01*
X741491Y-2851531D02*
X751015Y-2842008D01*
X751015Y-2842008D02*
X770062Y-2832484D01*
X960539Y-2832484D02*
X979586Y-2832484D01*
X979586Y-2832484D02*
X998634Y-2842008D01*
X998634Y-2842008D02*
X1008158Y-2851531D01*
X1008158Y-2851531D02*
X1017682Y-2870579D01*
X1017682Y-2870579D02*
X1027205Y-2908674D01*
X1027205Y-2908674D02*
X1027205Y-2956293D01*
X1027205Y-2956293D02*
X1017682Y-2994388D01*
X1017682Y-2994388D02*
X1008158Y-3013436D01*
X1008158Y-3013436D02*
X998634Y-3022960D01*
X998634Y-3022960D02*
X979586Y-3032484D01*
X979586Y-3032484D02*
X960539Y-3032484D01*
X960539Y-3032484D02*
X941491Y-3022960D01*
X941491Y-3022960D02*
X931967Y-3013436D01*
X931967Y-3013436D02*
X922443Y-2994388D01*
X922443Y-2994388D02*
X912920Y-2956293D01*
X912920Y-2956293D02*
X912920Y-2908674D01*
X912920Y-2908674D02*
X922443Y-2870579D01*
X922443Y-2870579D02*
X931967Y-2851531D01*
X931967Y-2851531D02*
X941491Y-2842008D01*
X941491Y-2842008D02*
X960539Y-2832484D01*
X1112920Y-3032484D02*
X1112920Y-2899150D01*
X1112920Y-2918198D02*
X1122444Y-2908674D01*
X1122444Y-2908674D02*
X1141491Y-2899150D01*
X1141491Y-2899150D02*
X1170063Y-2899150D01*
X1170063Y-2899150D02*
X1189110Y-2908674D01*
X1189110Y-2908674D02*
X1198634Y-2927722D01*
X1198634Y-2927722D02*
X1198634Y-3032484D01*
X1198634Y-2927722D02*
X1208158Y-2908674D01*
X1208158Y-2908674D02*
X1227205Y-2899150D01*
X1227205Y-2899150D02*
X1255777Y-2899150D01*
X1255777Y-2899150D02*
X1274825Y-2908674D01*
X1274825Y-2908674D02*
X1284348Y-2927722D01*
X1284348Y-2927722D02*
X1284348Y-3032484D01*
X1379586Y-3032484D02*
X1379586Y-2899150D01*
X1379586Y-2918198D02*
X1389110Y-2908674D01*
X1389110Y-2908674D02*
X1408158Y-2899150D01*
X1408158Y-2899150D02*
X1436729Y-2899150D01*
X1436729Y-2899150D02*
X1455777Y-2908674D01*
X1455777Y-2908674D02*
X1465301Y-2927722D01*
X1465301Y-2927722D02*
X1465301Y-3032484D01*
X1465301Y-2927722D02*
X1474824Y-2908674D01*
X1474824Y-2908674D02*
X1493872Y-2899150D01*
X1493872Y-2899150D02*
X1522443Y-2899150D01*
X1522443Y-2899150D02*
X1541491Y-2908674D01*
X1541491Y-2908674D02*
X1551015Y-2927722D01*
X1551015Y-2927722D02*
X1551015Y-3032484D01*
X1941491Y-2822960D02*
X1770063Y-3080103D01*
X2198634Y-2832484D02*
X2217682Y-2832484D01*
X2217682Y-2832484D02*
X2236729Y-2842008D01*
X2236729Y-2842008D02*
X2246253Y-2851531D01*
X2246253Y-2851531D02*
X2255777Y-2870579D01*
X2255777Y-2870579D02*
X2265301Y-2908674D01*
X2265301Y-2908674D02*
X2265301Y-2956293D01*
X2265301Y-2956293D02*
X2255777Y-2994388D01*
X2255777Y-2994388D02*
X2246253Y-3013436D01*
X2246253Y-3013436D02*
X2236729Y-3022960D01*
X2236729Y-3022960D02*
X2217682Y-3032484D01*
X2217682Y-3032484D02*
X2198634Y-3032484D01*
X2198634Y-3032484D02*
X2179587Y-3022960D01*
X2179587Y-3022960D02*
X2170063Y-3013436D01*
X2170063Y-3013436D02*
X2160539Y-2994388D01*
X2160539Y-2994388D02*
X2151015Y-2956293D01*
X2151015Y-2956293D02*
X2151015Y-2908674D01*
X2151015Y-2908674D02*
X2160539Y-2870579D01*
X2160539Y-2870579D02*
X2170063Y-2851531D01*
X2170063Y-2851531D02*
X2179587Y-2842008D01*
X2179587Y-2842008D02*
X2198634Y-2832484D01*
X2351015Y-3013436D02*
X2360539Y-3022960D01*
X2360539Y-3022960D02*
X2351015Y-3032484D01*
X2351015Y-3032484D02*
X2341491Y-3022960D01*
X2341491Y-3022960D02*
X2351015Y-3013436D01*
X2351015Y-3013436D02*
X2351015Y-3032484D01*
X2484348Y-2832484D02*
X2503396Y-2832484D01*
X2503396Y-2832484D02*
X2522444Y-2842008D01*
X2522444Y-2842008D02*
X2531968Y-2851531D01*
X2531968Y-2851531D02*
X2541491Y-2870579D01*
X2541491Y-2870579D02*
X2551015Y-2908674D01*
X2551015Y-2908674D02*
X2551015Y-2956293D01*
X2551015Y-2956293D02*
X2541491Y-2994388D01*
X2541491Y-2994388D02*
X2531968Y-3013436D01*
X2531968Y-3013436D02*
X2522444Y-3022960D01*
X2522444Y-3022960D02*
X2503396Y-3032484D01*
X2503396Y-3032484D02*
X2484348Y-3032484D01*
X2484348Y-3032484D02*
X2465301Y-3022960D01*
X2465301Y-3022960D02*
X2455777Y-3013436D01*
X2455777Y-3013436D02*
X2446253Y-2994388D01*
X2446253Y-2994388D02*
X2436729Y-2956293D01*
X2436729Y-2956293D02*
X2436729Y-2908674D01*
X2436729Y-2908674D02*
X2446253Y-2870579D01*
X2446253Y-2870579D02*
X2455777Y-2851531D01*
X2455777Y-2851531D02*
X2465301Y-2842008D01*
X2465301Y-2842008D02*
X2484348Y-2832484D01*
X2731968Y-2832484D02*
X2636729Y-2832484D01*
X2636729Y-2832484D02*
X2627206Y-2927722D01*
X2627206Y-2927722D02*
X2636729Y-2918198D01*
X2636729Y-2918198D02*
X2655777Y-2908674D01*
X2655777Y-2908674D02*
X2703396Y-2908674D01*
X2703396Y-2908674D02*
X2722444Y-2918198D01*
X2722444Y-2918198D02*
X2731968Y-2927722D01*
X2731968Y-2927722D02*
X2741491Y-2946769D01*
X2741491Y-2946769D02*
X2741491Y-2994388D01*
X2741491Y-2994388D02*
X2731968Y-3013436D01*
X2731968Y-3013436D02*
X2722444Y-3022960D01*
X2722444Y-3022960D02*
X2703396Y-3032484D01*
X2703396Y-3032484D02*
X2655777Y-3032484D01*
X2655777Y-3032484D02*
X2636729Y-3022960D01*
X2636729Y-3022960D02*
X2627206Y-3013436D01*
X2922444Y-2832484D02*
X2827206Y-2832484D01*
X2827206Y-2832484D02*
X2817682Y-2927722D01*
X2817682Y-2927722D02*
X2827206Y-2918198D01*
X2827206Y-2918198D02*
X2846253Y-2908674D01*
X2846253Y-2908674D02*
X2893872Y-2908674D01*
X2893872Y-2908674D02*
X2912920Y-2918198D01*
X2912920Y-2918198D02*
X2922444Y-2927722D01*
X2922444Y-2927722D02*
X2931967Y-2946769D01*
X2931967Y-2946769D02*
X2931967Y-2994388D01*
X2931967Y-2994388D02*
X2922444Y-3013436D01*
X2922444Y-3013436D02*
X2912920Y-3022960D01*
X2912920Y-3022960D02*
X2893872Y-3032484D01*
X2893872Y-3032484D02*
X2846253Y-3032484D01*
X2846253Y-3032484D02*
X2827206Y-3022960D01*
X2827206Y-3022960D02*
X2817682Y-3013436D01*
X3122444Y-3032484D02*
X3008158Y-3032484D01*
X3065301Y-3032484D02*
X3065301Y-2832484D01*
X3065301Y-2832484D02*
X3046253Y-2861055D01*
X3046253Y-2861055D02*
X3027206Y-2880103D01*
X3027206Y-2880103D02*
X3008158Y-2889627D01*
X3198634Y-2832484D02*
X3198634Y-2870579D01*
X3274825Y-2832484D02*
X3274825Y-2870579D01*
X3570063Y-3108674D02*
X3560539Y-3099150D01*
X3560539Y-3099150D02*
X3541491Y-3070579D01*
X3541491Y-3070579D02*
X3531968Y-3051531D01*
X3531968Y-3051531D02*
X3522444Y-3022960D01*
X3522444Y-3022960D02*
X3512920Y-2975341D01*
X3512920Y-2975341D02*
X3512920Y-2937246D01*
X3512920Y-2937246D02*
X3522444Y-2889627D01*
X3522444Y-2889627D02*
X3531968Y-2861055D01*
X3531968Y-2861055D02*
X3541491Y-2842008D01*
X3541491Y-2842008D02*
X3560539Y-2813436D01*
X3560539Y-2813436D02*
X3570063Y-2803912D01*
X3731968Y-2899150D02*
X3731968Y-3032484D01*
X3684348Y-2822960D02*
X3636729Y-2965817D01*
X3636729Y-2965817D02*
X3760539Y-2965817D01*
X3989110Y-3032484D02*
X3989110Y-2832484D01*
X4074825Y-3032484D02*
X4074825Y-2927722D01*
X4074825Y-2927722D02*
X4065301Y-2908674D01*
X4065301Y-2908674D02*
X4046253Y-2899150D01*
X4046253Y-2899150D02*
X4017682Y-2899150D01*
X4017682Y-2899150D02*
X3998634Y-2908674D01*
X3998634Y-2908674D02*
X3989110Y-2918198D01*
X4198634Y-3032484D02*
X4179587Y-3022960D01*
X4179587Y-3022960D02*
X4170063Y-3013436D01*
X4170063Y-3013436D02*
X4160539Y-2994388D01*
X4160539Y-2994388D02*
X4160539Y-2937246D01*
X4160539Y-2937246D02*
X4170063Y-2918198D01*
X4170063Y-2918198D02*
X4179587Y-2908674D01*
X4179587Y-2908674D02*
X4198634Y-2899150D01*
X4198634Y-2899150D02*
X4227206Y-2899150D01*
X4227206Y-2899150D02*
X4246253Y-2908674D01*
X4246253Y-2908674D02*
X4255777Y-2918198D01*
X4255777Y-2918198D02*
X4265301Y-2937246D01*
X4265301Y-2937246D02*
X4265301Y-2994388D01*
X4265301Y-2994388D02*
X4255777Y-3013436D01*
X4255777Y-3013436D02*
X4246253Y-3022960D01*
X4246253Y-3022960D02*
X4227206Y-3032484D01*
X4227206Y-3032484D02*
X4198634Y-3032484D01*
X4379587Y-3032484D02*
X4360539Y-3022960D01*
X4360539Y-3022960D02*
X4351015Y-3003912D01*
X4351015Y-3003912D02*
X4351015Y-2832484D01*
X4531968Y-3022960D02*
X4512920Y-3032484D01*
X4512920Y-3032484D02*
X4474825Y-3032484D01*
X4474825Y-3032484D02*
X4455777Y-3022960D01*
X4455777Y-3022960D02*
X4446253Y-3003912D01*
X4446253Y-3003912D02*
X4446253Y-2927722D01*
X4446253Y-2927722D02*
X4455777Y-2908674D01*
X4455777Y-2908674D02*
X4474825Y-2899150D01*
X4474825Y-2899150D02*
X4512920Y-2899150D01*
X4512920Y-2899150D02*
X4531968Y-2908674D01*
X4531968Y-2908674D02*
X4541492Y-2927722D01*
X4541492Y-2927722D02*
X4541492Y-2946769D01*
X4541492Y-2946769D02*
X4446253Y-2965817D01*
X4617682Y-3022960D02*
X4636730Y-3032484D01*
X4636730Y-3032484D02*
X4674825Y-3032484D01*
X4674825Y-3032484D02*
X4693873Y-3022960D01*
X4693873Y-3022960D02*
X4703396Y-3003912D01*
X4703396Y-3003912D02*
X4703396Y-2994388D01*
X4703396Y-2994388D02*
X4693873Y-2975341D01*
X4693873Y-2975341D02*
X4674825Y-2965817D01*
X4674825Y-2965817D02*
X4646253Y-2965817D01*
X4646253Y-2965817D02*
X4627206Y-2956293D01*
X4627206Y-2956293D02*
X4617682Y-2937246D01*
X4617682Y-2937246D02*
X4617682Y-2927722D01*
X4617682Y-2927722D02*
X4627206Y-2908674D01*
X4627206Y-2908674D02*
X4646253Y-2899150D01*
X4646253Y-2899150D02*
X4674825Y-2899150D01*
X4674825Y-2899150D02*
X4693873Y-2908674D01*
X4770063Y-3108674D02*
X4779587Y-3099150D01*
X4779587Y-3099150D02*
X4798634Y-3070579D01*
X4798634Y-3070579D02*
X4808158Y-3051531D01*
X4808158Y-3051531D02*
X4817682Y-3022960D01*
X4817682Y-3022960D02*
X4827206Y-2975341D01*
X4827206Y-2975341D02*
X4827206Y-2937246D01*
X4827206Y-2937246D02*
X4817682Y-2889627D01*
X4817682Y-2889627D02*
X4808158Y-2861055D01*
X4808158Y-2861055D02*
X4798634Y-2842008D01*
X4798634Y-2842008D02*
X4779587Y-2813436D01*
X4779587Y-2813436D02*
X4770063Y-2803912D01*
X5131968Y-3108674D02*
X5122444Y-3099150D01*
X5122444Y-3099150D02*
X5103396Y-3070579D01*
X5103396Y-3070579D02*
X5093873Y-3051531D01*
X5093873Y-3051531D02*
X5084349Y-3022960D01*
X5084349Y-3022960D02*
X5074825Y-2975341D01*
X5074825Y-2975341D02*
X5074825Y-2937246D01*
X5074825Y-2937246D02*
X5084349Y-2889627D01*
X5084349Y-2889627D02*
X5093873Y-2861055D01*
X5093873Y-2861055D02*
X5103396Y-2842008D01*
X5103396Y-2842008D02*
X5122444Y-2813436D01*
X5122444Y-2813436D02*
X5131968Y-2803912D01*
X5208158Y-2899150D02*
X5208158Y-3032484D01*
X5208158Y-2918198D02*
X5217682Y-2908674D01*
X5217682Y-2908674D02*
X5236730Y-2899150D01*
X5236730Y-2899150D02*
X5265301Y-2899150D01*
X5265301Y-2899150D02*
X5284349Y-2908674D01*
X5284349Y-2908674D02*
X5293873Y-2927722D01*
X5293873Y-2927722D02*
X5293873Y-3032484D01*
X5417682Y-3032484D02*
X5398634Y-3022960D01*
X5398634Y-3022960D02*
X5389111Y-3013436D01*
X5389111Y-3013436D02*
X5379587Y-2994388D01*
X5379587Y-2994388D02*
X5379587Y-2937246D01*
X5379587Y-2937246D02*
X5389111Y-2918198D01*
X5389111Y-2918198D02*
X5398634Y-2908674D01*
X5398634Y-2908674D02*
X5417682Y-2899150D01*
X5417682Y-2899150D02*
X5446254Y-2899150D01*
X5446254Y-2899150D02*
X5465301Y-2908674D01*
X5465301Y-2908674D02*
X5474825Y-2918198D01*
X5474825Y-2918198D02*
X5484349Y-2937246D01*
X5484349Y-2937246D02*
X5484349Y-2994388D01*
X5484349Y-2994388D02*
X5474825Y-3013436D01*
X5474825Y-3013436D02*
X5465301Y-3022960D01*
X5465301Y-3022960D02*
X5446254Y-3032484D01*
X5446254Y-3032484D02*
X5417682Y-3032484D01*
X5541492Y-2899150D02*
X5617682Y-2899150D01*
X5570063Y-2832484D02*
X5570063Y-3003912D01*
X5570063Y-3003912D02*
X5579587Y-3022960D01*
X5579587Y-3022960D02*
X5598634Y-3032484D01*
X5598634Y-3032484D02*
X5617682Y-3032484D01*
X5836730Y-2899150D02*
X5836730Y-3099150D01*
X5836730Y-2908674D02*
X5855777Y-2899150D01*
X5855777Y-2899150D02*
X5893873Y-2899150D01*
X5893873Y-2899150D02*
X5912920Y-2908674D01*
X5912920Y-2908674D02*
X5922444Y-2918198D01*
X5922444Y-2918198D02*
X5931968Y-2937246D01*
X5931968Y-2937246D02*
X5931968Y-2994388D01*
X5931968Y-2994388D02*
X5922444Y-3013436D01*
X5922444Y-3013436D02*
X5912920Y-3022960D01*
X5912920Y-3022960D02*
X5893873Y-3032484D01*
X5893873Y-3032484D02*
X5855777Y-3032484D01*
X5855777Y-3032484D02*
X5836730Y-3022960D01*
X6046253Y-3032484D02*
X6027206Y-3022960D01*
X6027206Y-3022960D02*
X6017682Y-3003912D01*
X6017682Y-3003912D02*
X6017682Y-2832484D01*
X6208158Y-3032484D02*
X6208158Y-2927722D01*
X6208158Y-2927722D02*
X6198634Y-2908674D01*
X6198634Y-2908674D02*
X6179587Y-2899150D01*
X6179587Y-2899150D02*
X6141492Y-2899150D01*
X6141492Y-2899150D02*
X6122444Y-2908674D01*
X6208158Y-3022960D02*
X6189111Y-3032484D01*
X6189111Y-3032484D02*
X6141492Y-3032484D01*
X6141492Y-3032484D02*
X6122444Y-3022960D01*
X6122444Y-3022960D02*
X6112920Y-3003912D01*
X6112920Y-3003912D02*
X6112920Y-2984865D01*
X6112920Y-2984865D02*
X6122444Y-2965817D01*
X6122444Y-2965817D02*
X6141492Y-2956293D01*
X6141492Y-2956293D02*
X6189111Y-2956293D01*
X6189111Y-2956293D02*
X6208158Y-2946769D01*
X6274825Y-2899150D02*
X6351015Y-2899150D01*
X6303396Y-2832484D02*
X6303396Y-3003912D01*
X6303396Y-3003912D02*
X6312920Y-3022960D01*
X6312920Y-3022960D02*
X6331968Y-3032484D01*
X6331968Y-3032484D02*
X6351015Y-3032484D01*
X6493873Y-3022960D02*
X6474825Y-3032484D01*
X6474825Y-3032484D02*
X6436730Y-3032484D01*
X6436730Y-3032484D02*
X6417682Y-3022960D01*
X6417682Y-3022960D02*
X6408158Y-3003912D01*
X6408158Y-3003912D02*
X6408158Y-2927722D01*
X6408158Y-2927722D02*
X6417682Y-2908674D01*
X6417682Y-2908674D02*
X6436730Y-2899150D01*
X6436730Y-2899150D02*
X6474825Y-2899150D01*
X6474825Y-2899150D02*
X6493873Y-2908674D01*
X6493873Y-2908674D02*
X6503396Y-2927722D01*
X6503396Y-2927722D02*
X6503396Y-2946769D01*
X6503396Y-2946769D02*
X6408158Y-2965817D01*
X6674825Y-3032484D02*
X6674825Y-2832484D01*
X6674825Y-3022960D02*
X6655777Y-3032484D01*
X6655777Y-3032484D02*
X6617682Y-3032484D01*
X6617682Y-3032484D02*
X6598634Y-3022960D01*
X6598634Y-3022960D02*
X6589111Y-3013436D01*
X6589111Y-3013436D02*
X6579587Y-2994388D01*
X6579587Y-2994388D02*
X6579587Y-2937246D01*
X6579587Y-2937246D02*
X6589111Y-2918198D01*
X6589111Y-2918198D02*
X6598634Y-2908674D01*
X6598634Y-2908674D02*
X6617682Y-2899150D01*
X6617682Y-2899150D02*
X6655777Y-2899150D01*
X6655777Y-2899150D02*
X6674825Y-2908674D01*
X6751015Y-3108674D02*
X6760539Y-3099150D01*
X6760539Y-3099150D02*
X6779587Y-3070579D01*
X6779587Y-3070579D02*
X6789111Y-3051531D01*
X6789111Y-3051531D02*
X6798634Y-3022960D01*
X6798634Y-3022960D02*
X6808158Y-2975341D01*
X6808158Y-2975341D02*
X6808158Y-2937246D01*
X6808158Y-2937246D02*
X6798634Y-2889627D01*
X6798634Y-2889627D02*
X6789111Y-2861055D01*
X6789111Y-2861055D02*
X6779587Y-2842008D01*
X6779587Y-2842008D02*
X6760539Y-2813436D01*
X6760539Y-2813436D02*
X6751015Y-2803912D01*
M02*
