%TF.GenerationSoftware,KiCad,Pcbnew,9.0.9-9.0.9~ubuntu24.04.1*%
%TF.CreationDate,2026-08-02T14:39:42+02:00*%
%TF.ProjectId,power_kicad,706f7765-725f-46b6-9963-61642e6b6963,rev?*%
%TF.SameCoordinates,Original*%
%TF.FileFunction,Legend,Top*%
%TF.FilePolarity,Positive*%
%FSLAX46Y46*%
G04 Gerber Fmt 4.6, Leading zero omitted, Abs format (unit mm)*
G04 Created by KiCad (PCBNEW 9.0.9-9.0.9~ubuntu24.04.1) date 2026-08-02 14:39:42*
%MOMM*%
%LPD*%
G01*
G04 APERTURE LIST*
%ADD10C,0.000000*%
%ADD11C,0.162000*%
%ADD12C,0.110000*%
%ADD13C,0.150000*%
%ADD14C,0.100000*%
%ADD15C,0.120000*%
G04 APERTURE END LIST*
D10*
G36*
X49562000Y-13956000D02*
G01*
X49238000Y-13956000D01*
X49148000Y-13272000D01*
X49652000Y-13272000D01*
X49562000Y-13956000D01*
G37*
G36*
X49501000Y-16044000D02*
G01*
X49299000Y-16044000D01*
X49299000Y-15144000D01*
X49501000Y-15144000D01*
X49501000Y-16044000D01*
G37*
G36*
X49220000Y-15360000D02*
G01*
X49112000Y-16296000D01*
X48788000Y-15936000D01*
X48608000Y-15504000D01*
X48608000Y-15144000D01*
X49220000Y-15144000D01*
X49220000Y-15360000D01*
G37*
G36*
X50192000Y-15504000D02*
G01*
X50012000Y-15936000D01*
X49688000Y-16296000D01*
X49580000Y-15360000D01*
X49580000Y-15144000D01*
X50192000Y-15144000D01*
X50192000Y-15504000D01*
G37*
G36*
X48140000Y-14964000D02*
G01*
X48428000Y-14964000D01*
X47924000Y-16008000D01*
X48158000Y-15198000D01*
X47888000Y-15198000D01*
X47924000Y-14352000D01*
X48320000Y-14352000D01*
X48140000Y-14964000D01*
G37*
G36*
X50912000Y-15198000D02*
G01*
X50642000Y-15198000D01*
X50876000Y-16008000D01*
X50372000Y-14964000D01*
X50660000Y-14964000D01*
X50480000Y-14352000D01*
X50876000Y-14352000D01*
X50912000Y-15198000D01*
G37*
G36*
X49652000Y-14028000D02*
G01*
X49976000Y-14244000D01*
X50192000Y-14604000D01*
X50228000Y-15036000D01*
X48572000Y-15036000D01*
X48608000Y-14604000D01*
X48824000Y-14244000D01*
X49148000Y-14028000D01*
X49400000Y-13992000D01*
X49652000Y-14028000D01*
G37*
D11*
X51128000Y-15000000D02*
G75*
G02*
X47672000Y-15000000I-1728000J0D01*
G01*
X47672000Y-15000000D02*
G75*
G02*
X51128000Y-15000000I1728000J0D01*
G01*
D12*
X44925000Y-952458D02*
X44775000Y-738172D01*
X44667857Y-952458D02*
X44667857Y-502458D01*
X44667857Y-502458D02*
X44839286Y-502458D01*
X44839286Y-502458D02*
X44882143Y-523887D01*
X44882143Y-523887D02*
X44903572Y-545315D01*
X44903572Y-545315D02*
X44925000Y-588172D01*
X44925000Y-588172D02*
X44925000Y-652458D01*
X44925000Y-652458D02*
X44903572Y-695315D01*
X44903572Y-695315D02*
X44882143Y-716744D01*
X44882143Y-716744D02*
X44839286Y-738172D01*
X44839286Y-738172D02*
X44667857Y-738172D01*
X45353572Y-952458D02*
X45096429Y-952458D01*
X45225000Y-952458D02*
X45225000Y-502458D01*
X45225000Y-502458D02*
X45182143Y-566744D01*
X45182143Y-566744D02*
X45139286Y-609601D01*
X45139286Y-609601D02*
X45096429Y-631030D01*
X47657857Y-523887D02*
X47615000Y-502458D01*
X47615000Y-502458D02*
X47550714Y-502458D01*
X47550714Y-502458D02*
X47486428Y-523887D01*
X47486428Y-523887D02*
X47443571Y-566744D01*
X47443571Y-566744D02*
X47422142Y-609601D01*
X47422142Y-609601D02*
X47400714Y-695315D01*
X47400714Y-695315D02*
X47400714Y-759601D01*
X47400714Y-759601D02*
X47422142Y-845315D01*
X47422142Y-845315D02*
X47443571Y-888172D01*
X47443571Y-888172D02*
X47486428Y-931030D01*
X47486428Y-931030D02*
X47550714Y-952458D01*
X47550714Y-952458D02*
X47593571Y-952458D01*
X47593571Y-952458D02*
X47657857Y-931030D01*
X47657857Y-931030D02*
X47679285Y-909601D01*
X47679285Y-909601D02*
X47679285Y-759601D01*
X47679285Y-759601D02*
X47593571Y-759601D01*
X50005000Y-952458D02*
X49855000Y-738172D01*
X49747857Y-952458D02*
X49747857Y-502458D01*
X49747857Y-502458D02*
X49919286Y-502458D01*
X49919286Y-502458D02*
X49962143Y-523887D01*
X49962143Y-523887D02*
X49983572Y-545315D01*
X49983572Y-545315D02*
X50005000Y-588172D01*
X50005000Y-588172D02*
X50005000Y-652458D01*
X50005000Y-652458D02*
X49983572Y-695315D01*
X49983572Y-695315D02*
X49962143Y-716744D01*
X49962143Y-716744D02*
X49919286Y-738172D01*
X49919286Y-738172D02*
X49747857Y-738172D01*
X50176429Y-545315D02*
X50197857Y-523887D01*
X50197857Y-523887D02*
X50240715Y-502458D01*
X50240715Y-502458D02*
X50347857Y-502458D01*
X50347857Y-502458D02*
X50390715Y-523887D01*
X50390715Y-523887D02*
X50412143Y-545315D01*
X50412143Y-545315D02*
X50433572Y-588172D01*
X50433572Y-588172D02*
X50433572Y-631030D01*
X50433572Y-631030D02*
X50412143Y-695315D01*
X50412143Y-695315D02*
X50155000Y-952458D01*
X50155000Y-952458D02*
X50433572Y-952458D01*
X52737857Y-523887D02*
X52695000Y-502458D01*
X52695000Y-502458D02*
X52630714Y-502458D01*
X52630714Y-502458D02*
X52566428Y-523887D01*
X52566428Y-523887D02*
X52523571Y-566744D01*
X52523571Y-566744D02*
X52502142Y-609601D01*
X52502142Y-609601D02*
X52480714Y-695315D01*
X52480714Y-695315D02*
X52480714Y-759601D01*
X52480714Y-759601D02*
X52502142Y-845315D01*
X52502142Y-845315D02*
X52523571Y-888172D01*
X52523571Y-888172D02*
X52566428Y-931030D01*
X52566428Y-931030D02*
X52630714Y-952458D01*
X52630714Y-952458D02*
X52673571Y-952458D01*
X52673571Y-952458D02*
X52737857Y-931030D01*
X52737857Y-931030D02*
X52759285Y-909601D01*
X52759285Y-909601D02*
X52759285Y-759601D01*
X52759285Y-759601D02*
X52673571Y-759601D01*
X19402458Y-4189285D02*
X18952458Y-4189285D01*
X18952458Y-4189285D02*
X19273887Y-4039285D01*
X19273887Y-4039285D02*
X18952458Y-3889285D01*
X18952458Y-3889285D02*
X19402458Y-3889285D01*
X19402458Y-3674999D02*
X18952458Y-3674999D01*
X18952458Y-3674999D02*
X18952458Y-3503570D01*
X18952458Y-3503570D02*
X18973887Y-3460713D01*
X18973887Y-3460713D02*
X18995315Y-3439284D01*
X18995315Y-3439284D02*
X19038172Y-3417856D01*
X19038172Y-3417856D02*
X19102458Y-3417856D01*
X19102458Y-3417856D02*
X19145315Y-3439284D01*
X19145315Y-3439284D02*
X19166744Y-3460713D01*
X19166744Y-3460713D02*
X19188172Y-3503570D01*
X19188172Y-3503570D02*
X19188172Y-3674999D01*
X18952458Y-3139284D02*
X18952458Y-3096427D01*
X18952458Y-3096427D02*
X18973887Y-3053570D01*
X18973887Y-3053570D02*
X18995315Y-3032142D01*
X18995315Y-3032142D02*
X19038172Y-3010713D01*
X19038172Y-3010713D02*
X19123887Y-2989284D01*
X19123887Y-2989284D02*
X19231030Y-2989284D01*
X19231030Y-2989284D02*
X19316744Y-3010713D01*
X19316744Y-3010713D02*
X19359601Y-3032142D01*
X19359601Y-3032142D02*
X19381030Y-3053570D01*
X19381030Y-3053570D02*
X19402458Y-3096427D01*
X19402458Y-3096427D02*
X19402458Y-3139284D01*
X19402458Y-3139284D02*
X19381030Y-3182142D01*
X19381030Y-3182142D02*
X19359601Y-3203570D01*
X19359601Y-3203570D02*
X19316744Y-3224999D01*
X19316744Y-3224999D02*
X19231030Y-3246427D01*
X19231030Y-3246427D02*
X19123887Y-3246427D01*
X19123887Y-3246427D02*
X19038172Y-3224999D01*
X19038172Y-3224999D02*
X18995315Y-3203570D01*
X18995315Y-3203570D02*
X18973887Y-3182142D01*
X18973887Y-3182142D02*
X18952458Y-3139284D01*
X21942458Y-4189285D02*
X21492458Y-4189285D01*
X21492458Y-4189285D02*
X21813887Y-4039285D01*
X21813887Y-4039285D02*
X21492458Y-3889285D01*
X21492458Y-3889285D02*
X21942458Y-3889285D01*
X21942458Y-3674999D02*
X21492458Y-3674999D01*
X21492458Y-3674999D02*
X21492458Y-3503570D01*
X21492458Y-3503570D02*
X21513887Y-3460713D01*
X21513887Y-3460713D02*
X21535315Y-3439284D01*
X21535315Y-3439284D02*
X21578172Y-3417856D01*
X21578172Y-3417856D02*
X21642458Y-3417856D01*
X21642458Y-3417856D02*
X21685315Y-3439284D01*
X21685315Y-3439284D02*
X21706744Y-3460713D01*
X21706744Y-3460713D02*
X21728172Y-3503570D01*
X21728172Y-3503570D02*
X21728172Y-3674999D01*
X21942458Y-2989284D02*
X21942458Y-3246427D01*
X21942458Y-3117856D02*
X21492458Y-3117856D01*
X21492458Y-3117856D02*
X21556744Y-3160713D01*
X21556744Y-3160713D02*
X21599601Y-3203570D01*
X21599601Y-3203570D02*
X21621030Y-3246427D01*
X24482458Y-4189285D02*
X24032458Y-4189285D01*
X24032458Y-4189285D02*
X24353887Y-4039285D01*
X24353887Y-4039285D02*
X24032458Y-3889285D01*
X24032458Y-3889285D02*
X24482458Y-3889285D01*
X24482458Y-3674999D02*
X24032458Y-3674999D01*
X24032458Y-3674999D02*
X24032458Y-3503570D01*
X24032458Y-3503570D02*
X24053887Y-3460713D01*
X24053887Y-3460713D02*
X24075315Y-3439284D01*
X24075315Y-3439284D02*
X24118172Y-3417856D01*
X24118172Y-3417856D02*
X24182458Y-3417856D01*
X24182458Y-3417856D02*
X24225315Y-3439284D01*
X24225315Y-3439284D02*
X24246744Y-3460713D01*
X24246744Y-3460713D02*
X24268172Y-3503570D01*
X24268172Y-3503570D02*
X24268172Y-3674999D01*
X24075315Y-3246427D02*
X24053887Y-3224999D01*
X24053887Y-3224999D02*
X24032458Y-3182142D01*
X24032458Y-3182142D02*
X24032458Y-3074999D01*
X24032458Y-3074999D02*
X24053887Y-3032142D01*
X24053887Y-3032142D02*
X24075315Y-3010713D01*
X24075315Y-3010713D02*
X24118172Y-2989284D01*
X24118172Y-2989284D02*
X24161030Y-2989284D01*
X24161030Y-2989284D02*
X24225315Y-3010713D01*
X24225315Y-3010713D02*
X24482458Y-3267856D01*
X24482458Y-3267856D02*
X24482458Y-2989284D01*
X26572458Y-4189284D02*
X27022458Y-4039284D01*
X27022458Y-4039284D02*
X26572458Y-3889284D01*
X26786744Y-3589285D02*
X26808172Y-3524999D01*
X26808172Y-3524999D02*
X26829601Y-3503570D01*
X26829601Y-3503570D02*
X26872458Y-3482142D01*
X26872458Y-3482142D02*
X26936744Y-3482142D01*
X26936744Y-3482142D02*
X26979601Y-3503570D01*
X26979601Y-3503570D02*
X27001030Y-3524999D01*
X27001030Y-3524999D02*
X27022458Y-3567856D01*
X27022458Y-3567856D02*
X27022458Y-3739285D01*
X27022458Y-3739285D02*
X26572458Y-3739285D01*
X26572458Y-3739285D02*
X26572458Y-3589285D01*
X26572458Y-3589285D02*
X26593887Y-3546428D01*
X26593887Y-3546428D02*
X26615315Y-3524999D01*
X26615315Y-3524999D02*
X26658172Y-3503570D01*
X26658172Y-3503570D02*
X26701030Y-3503570D01*
X26701030Y-3503570D02*
X26743887Y-3524999D01*
X26743887Y-3524999D02*
X26765315Y-3546428D01*
X26765315Y-3546428D02*
X26786744Y-3589285D01*
X26786744Y-3589285D02*
X26786744Y-3739285D01*
X27001030Y-3310713D02*
X27022458Y-3246428D01*
X27022458Y-3246428D02*
X27022458Y-3139285D01*
X27022458Y-3139285D02*
X27001030Y-3096428D01*
X27001030Y-3096428D02*
X26979601Y-3074999D01*
X26979601Y-3074999D02*
X26936744Y-3053570D01*
X26936744Y-3053570D02*
X26893887Y-3053570D01*
X26893887Y-3053570D02*
X26851030Y-3074999D01*
X26851030Y-3074999D02*
X26829601Y-3096428D01*
X26829601Y-3096428D02*
X26808172Y-3139285D01*
X26808172Y-3139285D02*
X26786744Y-3224999D01*
X26786744Y-3224999D02*
X26765315Y-3267856D01*
X26765315Y-3267856D02*
X26743887Y-3289285D01*
X26743887Y-3289285D02*
X26701030Y-3310713D01*
X26701030Y-3310713D02*
X26658172Y-3310713D01*
X26658172Y-3310713D02*
X26615315Y-3289285D01*
X26615315Y-3289285D02*
X26593887Y-3267856D01*
X26593887Y-3267856D02*
X26572458Y-3224999D01*
X26572458Y-3224999D02*
X26572458Y-3117856D01*
X26572458Y-3117856D02*
X26593887Y-3053570D01*
X15725589Y-17519046D02*
X15725589Y-17209522D01*
X15725589Y-17209522D02*
X15916065Y-17376189D01*
X15916065Y-17376189D02*
X15916065Y-17304760D01*
X15916065Y-17304760D02*
X15939875Y-17257141D01*
X15939875Y-17257141D02*
X15963684Y-17233332D01*
X15963684Y-17233332D02*
X16011303Y-17209522D01*
X16011303Y-17209522D02*
X16130351Y-17209522D01*
X16130351Y-17209522D02*
X16177970Y-17233332D01*
X16177970Y-17233332D02*
X16201780Y-17257141D01*
X16201780Y-17257141D02*
X16225589Y-17304760D01*
X16225589Y-17304760D02*
X16225589Y-17447617D01*
X16225589Y-17447617D02*
X16201780Y-17495236D01*
X16201780Y-17495236D02*
X16177970Y-17519046D01*
X15725589Y-17066665D02*
X16225589Y-16899999D01*
X16225589Y-16899999D02*
X15725589Y-16733332D01*
X15725589Y-16614285D02*
X15725589Y-16304761D01*
X15725589Y-16304761D02*
X15916065Y-16471428D01*
X15916065Y-16471428D02*
X15916065Y-16399999D01*
X15916065Y-16399999D02*
X15939875Y-16352380D01*
X15939875Y-16352380D02*
X15963684Y-16328571D01*
X15963684Y-16328571D02*
X16011303Y-16304761D01*
X16011303Y-16304761D02*
X16130351Y-16304761D01*
X16130351Y-16304761D02*
X16177970Y-16328571D01*
X16177970Y-16328571D02*
X16201780Y-16352380D01*
X16201780Y-16352380D02*
X16225589Y-16399999D01*
X16225589Y-16399999D02*
X16225589Y-16542856D01*
X16225589Y-16542856D02*
X16201780Y-16590475D01*
X16201780Y-16590475D02*
X16177970Y-16614285D01*
X18289399Y-17280952D02*
X18265589Y-17328571D01*
X18265589Y-17328571D02*
X18265589Y-17400000D01*
X18265589Y-17400000D02*
X18289399Y-17471428D01*
X18289399Y-17471428D02*
X18337018Y-17519047D01*
X18337018Y-17519047D02*
X18384637Y-17542857D01*
X18384637Y-17542857D02*
X18479875Y-17566666D01*
X18479875Y-17566666D02*
X18551303Y-17566666D01*
X18551303Y-17566666D02*
X18646541Y-17542857D01*
X18646541Y-17542857D02*
X18694160Y-17519047D01*
X18694160Y-17519047D02*
X18741780Y-17471428D01*
X18741780Y-17471428D02*
X18765589Y-17400000D01*
X18765589Y-17400000D02*
X18765589Y-17352381D01*
X18765589Y-17352381D02*
X18741780Y-17280952D01*
X18741780Y-17280952D02*
X18717970Y-17257143D01*
X18717970Y-17257143D02*
X18551303Y-17257143D01*
X18551303Y-17257143D02*
X18551303Y-17352381D01*
X18765589Y-17042857D02*
X18265589Y-17042857D01*
X18265589Y-17042857D02*
X18765589Y-16757143D01*
X18765589Y-16757143D02*
X18265589Y-16757143D01*
X18765589Y-16519047D02*
X18265589Y-16519047D01*
X18265589Y-16519047D02*
X18265589Y-16399999D01*
X18265589Y-16399999D02*
X18289399Y-16328571D01*
X18289399Y-16328571D02*
X18337018Y-16280952D01*
X18337018Y-16280952D02*
X18384637Y-16257142D01*
X18384637Y-16257142D02*
X18479875Y-16233333D01*
X18479875Y-16233333D02*
X18551303Y-16233333D01*
X18551303Y-16233333D02*
X18646541Y-16257142D01*
X18646541Y-16257142D02*
X18694160Y-16280952D01*
X18694160Y-16280952D02*
X18741780Y-16328571D01*
X18741780Y-16328571D02*
X18765589Y-16399999D01*
X18765589Y-16399999D02*
X18765589Y-16519047D01*
X20805589Y-17566666D02*
X20805589Y-17257142D01*
X20805589Y-17257142D02*
X20996065Y-17423809D01*
X20996065Y-17423809D02*
X20996065Y-17352380D01*
X20996065Y-17352380D02*
X21019875Y-17304761D01*
X21019875Y-17304761D02*
X21043684Y-17280952D01*
X21043684Y-17280952D02*
X21091303Y-17257142D01*
X21091303Y-17257142D02*
X21210351Y-17257142D01*
X21210351Y-17257142D02*
X21257970Y-17280952D01*
X21257970Y-17280952D02*
X21281780Y-17304761D01*
X21281780Y-17304761D02*
X21305589Y-17352380D01*
X21305589Y-17352380D02*
X21305589Y-17495237D01*
X21305589Y-17495237D02*
X21281780Y-17542856D01*
X21281780Y-17542856D02*
X21257970Y-17566666D01*
X20805589Y-17114285D02*
X21305589Y-16947619D01*
X21305589Y-16947619D02*
X20805589Y-16780952D01*
X21305589Y-16614286D02*
X20805589Y-16614286D01*
X20805589Y-16614286D02*
X21162732Y-16447619D01*
X21162732Y-16447619D02*
X20805589Y-16280953D01*
X20805589Y-16280953D02*
X21305589Y-16280953D01*
X23369399Y-17280952D02*
X23345589Y-17328571D01*
X23345589Y-17328571D02*
X23345589Y-17400000D01*
X23345589Y-17400000D02*
X23369399Y-17471428D01*
X23369399Y-17471428D02*
X23417018Y-17519047D01*
X23417018Y-17519047D02*
X23464637Y-17542857D01*
X23464637Y-17542857D02*
X23559875Y-17566666D01*
X23559875Y-17566666D02*
X23631303Y-17566666D01*
X23631303Y-17566666D02*
X23726541Y-17542857D01*
X23726541Y-17542857D02*
X23774160Y-17519047D01*
X23774160Y-17519047D02*
X23821780Y-17471428D01*
X23821780Y-17471428D02*
X23845589Y-17400000D01*
X23845589Y-17400000D02*
X23845589Y-17352381D01*
X23845589Y-17352381D02*
X23821780Y-17280952D01*
X23821780Y-17280952D02*
X23797970Y-17257143D01*
X23797970Y-17257143D02*
X23631303Y-17257143D01*
X23631303Y-17257143D02*
X23631303Y-17352381D01*
X23845589Y-17042857D02*
X23345589Y-17042857D01*
X23345589Y-17042857D02*
X23845589Y-16757143D01*
X23845589Y-16757143D02*
X23345589Y-16757143D01*
X23845589Y-16519047D02*
X23345589Y-16519047D01*
X23345589Y-16519047D02*
X23345589Y-16399999D01*
X23345589Y-16399999D02*
X23369399Y-16328571D01*
X23369399Y-16328571D02*
X23417018Y-16280952D01*
X23417018Y-16280952D02*
X23464637Y-16257142D01*
X23464637Y-16257142D02*
X23559875Y-16233333D01*
X23559875Y-16233333D02*
X23631303Y-16233333D01*
X23631303Y-16233333D02*
X23726541Y-16257142D01*
X23726541Y-16257142D02*
X23774160Y-16280952D01*
X23774160Y-16280952D02*
X23821780Y-16328571D01*
X23821780Y-16328571D02*
X23845589Y-16399999D01*
X23845589Y-16399999D02*
X23845589Y-16519047D01*
X26361780Y-17507141D02*
X26385589Y-17435713D01*
X26385589Y-17435713D02*
X26385589Y-17316665D01*
X26385589Y-17316665D02*
X26361780Y-17269046D01*
X26361780Y-17269046D02*
X26337970Y-17245237D01*
X26337970Y-17245237D02*
X26290351Y-17221427D01*
X26290351Y-17221427D02*
X26242732Y-17221427D01*
X26242732Y-17221427D02*
X26195113Y-17245237D01*
X26195113Y-17245237D02*
X26171303Y-17269046D01*
X26171303Y-17269046D02*
X26147494Y-17316665D01*
X26147494Y-17316665D02*
X26123684Y-17411903D01*
X26123684Y-17411903D02*
X26099875Y-17459522D01*
X26099875Y-17459522D02*
X26076065Y-17483332D01*
X26076065Y-17483332D02*
X26028446Y-17507141D01*
X26028446Y-17507141D02*
X25980827Y-17507141D01*
X25980827Y-17507141D02*
X25933208Y-17483332D01*
X25933208Y-17483332D02*
X25909399Y-17459522D01*
X25909399Y-17459522D02*
X25885589Y-17411903D01*
X25885589Y-17411903D02*
X25885589Y-17292856D01*
X25885589Y-17292856D02*
X25909399Y-17221427D01*
X26385589Y-17007142D02*
X25885589Y-17007142D01*
X25885589Y-17007142D02*
X25885589Y-16888094D01*
X25885589Y-16888094D02*
X25909399Y-16816666D01*
X25909399Y-16816666D02*
X25957018Y-16769047D01*
X25957018Y-16769047D02*
X26004637Y-16745237D01*
X26004637Y-16745237D02*
X26099875Y-16721428D01*
X26099875Y-16721428D02*
X26171303Y-16721428D01*
X26171303Y-16721428D02*
X26266541Y-16745237D01*
X26266541Y-16745237D02*
X26314160Y-16769047D01*
X26314160Y-16769047D02*
X26361780Y-16816666D01*
X26361780Y-16816666D02*
X26385589Y-16888094D01*
X26385589Y-16888094D02*
X26385589Y-17007142D01*
X26242732Y-16530951D02*
X26242732Y-16292856D01*
X26385589Y-16578570D02*
X25885589Y-16411904D01*
X25885589Y-16411904D02*
X26385589Y-16245237D01*
X28901780Y-17495237D02*
X28925589Y-17423809D01*
X28925589Y-17423809D02*
X28925589Y-17304761D01*
X28925589Y-17304761D02*
X28901780Y-17257142D01*
X28901780Y-17257142D02*
X28877970Y-17233333D01*
X28877970Y-17233333D02*
X28830351Y-17209523D01*
X28830351Y-17209523D02*
X28782732Y-17209523D01*
X28782732Y-17209523D02*
X28735113Y-17233333D01*
X28735113Y-17233333D02*
X28711303Y-17257142D01*
X28711303Y-17257142D02*
X28687494Y-17304761D01*
X28687494Y-17304761D02*
X28663684Y-17399999D01*
X28663684Y-17399999D02*
X28639875Y-17447618D01*
X28639875Y-17447618D02*
X28616065Y-17471428D01*
X28616065Y-17471428D02*
X28568446Y-17495237D01*
X28568446Y-17495237D02*
X28520827Y-17495237D01*
X28520827Y-17495237D02*
X28473208Y-17471428D01*
X28473208Y-17471428D02*
X28449399Y-17447618D01*
X28449399Y-17447618D02*
X28425589Y-17399999D01*
X28425589Y-17399999D02*
X28425589Y-17280952D01*
X28425589Y-17280952D02*
X28449399Y-17209523D01*
X28877970Y-16709524D02*
X28901780Y-16733333D01*
X28901780Y-16733333D02*
X28925589Y-16804762D01*
X28925589Y-16804762D02*
X28925589Y-16852381D01*
X28925589Y-16852381D02*
X28901780Y-16923809D01*
X28901780Y-16923809D02*
X28854160Y-16971428D01*
X28854160Y-16971428D02*
X28806541Y-16995238D01*
X28806541Y-16995238D02*
X28711303Y-17019047D01*
X28711303Y-17019047D02*
X28639875Y-17019047D01*
X28639875Y-17019047D02*
X28544637Y-16995238D01*
X28544637Y-16995238D02*
X28497018Y-16971428D01*
X28497018Y-16971428D02*
X28449399Y-16923809D01*
X28449399Y-16923809D02*
X28425589Y-16852381D01*
X28425589Y-16852381D02*
X28425589Y-16804762D01*
X28425589Y-16804762D02*
X28449399Y-16733333D01*
X28449399Y-16733333D02*
X28473208Y-16709524D01*
X28925589Y-16257143D02*
X28925589Y-16495238D01*
X28925589Y-16495238D02*
X28425589Y-16495238D01*
X31322732Y-17471427D02*
X31322732Y-17233332D01*
X31465589Y-17519046D02*
X30965589Y-17352380D01*
X30965589Y-17352380D02*
X31465589Y-17185713D01*
X31465589Y-16780952D02*
X31465589Y-17019047D01*
X31465589Y-17019047D02*
X30965589Y-17019047D01*
X31465589Y-16328571D02*
X31227494Y-16495237D01*
X31465589Y-16614285D02*
X30965589Y-16614285D01*
X30965589Y-16614285D02*
X30965589Y-16423809D01*
X30965589Y-16423809D02*
X30989399Y-16376190D01*
X30989399Y-16376190D02*
X31013208Y-16352380D01*
X31013208Y-16352380D02*
X31060827Y-16328571D01*
X31060827Y-16328571D02*
X31132256Y-16328571D01*
X31132256Y-16328571D02*
X31179875Y-16352380D01*
X31179875Y-16352380D02*
X31203684Y-16376190D01*
X31203684Y-16376190D02*
X31227494Y-16423809D01*
X31227494Y-16423809D02*
X31227494Y-16614285D01*
X34005589Y-17352380D02*
X33505589Y-17352380D01*
X34005589Y-17114285D02*
X33505589Y-17114285D01*
X33505589Y-17114285D02*
X34005589Y-16828571D01*
X34005589Y-16828571D02*
X33505589Y-16828571D01*
X33505589Y-16661903D02*
X33505589Y-16376189D01*
X34005589Y-16519046D02*
X33505589Y-16519046D01*
X36045589Y-17507141D02*
X36545589Y-17340475D01*
X36545589Y-17340475D02*
X36045589Y-17173808D01*
X36521780Y-17030951D02*
X36545589Y-16959523D01*
X36545589Y-16959523D02*
X36545589Y-16840475D01*
X36545589Y-16840475D02*
X36521780Y-16792856D01*
X36521780Y-16792856D02*
X36497970Y-16769047D01*
X36497970Y-16769047D02*
X36450351Y-16745237D01*
X36450351Y-16745237D02*
X36402732Y-16745237D01*
X36402732Y-16745237D02*
X36355113Y-16769047D01*
X36355113Y-16769047D02*
X36331303Y-16792856D01*
X36331303Y-16792856D02*
X36307494Y-16840475D01*
X36307494Y-16840475D02*
X36283684Y-16935713D01*
X36283684Y-16935713D02*
X36259875Y-16983332D01*
X36259875Y-16983332D02*
X36236065Y-17007142D01*
X36236065Y-17007142D02*
X36188446Y-17030951D01*
X36188446Y-17030951D02*
X36140827Y-17030951D01*
X36140827Y-17030951D02*
X36093208Y-17007142D01*
X36093208Y-17007142D02*
X36069399Y-16983332D01*
X36069399Y-16983332D02*
X36045589Y-16935713D01*
X36045589Y-16935713D02*
X36045589Y-16816666D01*
X36045589Y-16816666D02*
X36069399Y-16745237D01*
X36545589Y-16292857D02*
X36545589Y-16530952D01*
X36545589Y-16530952D02*
X36045589Y-16530952D01*
X39085589Y-17173809D02*
X38847494Y-17340475D01*
X39085589Y-17459523D02*
X38585589Y-17459523D01*
X38585589Y-17459523D02*
X38585589Y-17269047D01*
X38585589Y-17269047D02*
X38609399Y-17221428D01*
X38609399Y-17221428D02*
X38633208Y-17197618D01*
X38633208Y-17197618D02*
X38680827Y-17173809D01*
X38680827Y-17173809D02*
X38752256Y-17173809D01*
X38752256Y-17173809D02*
X38799875Y-17197618D01*
X38799875Y-17197618D02*
X38823684Y-17221428D01*
X38823684Y-17221428D02*
X38847494Y-17269047D01*
X38847494Y-17269047D02*
X38847494Y-17459523D01*
X39061780Y-16983332D02*
X39085589Y-16911904D01*
X39085589Y-16911904D02*
X39085589Y-16792856D01*
X39085589Y-16792856D02*
X39061780Y-16745237D01*
X39061780Y-16745237D02*
X39037970Y-16721428D01*
X39037970Y-16721428D02*
X38990351Y-16697618D01*
X38990351Y-16697618D02*
X38942732Y-16697618D01*
X38942732Y-16697618D02*
X38895113Y-16721428D01*
X38895113Y-16721428D02*
X38871303Y-16745237D01*
X38871303Y-16745237D02*
X38847494Y-16792856D01*
X38847494Y-16792856D02*
X38823684Y-16888094D01*
X38823684Y-16888094D02*
X38799875Y-16935713D01*
X38799875Y-16935713D02*
X38776065Y-16959523D01*
X38776065Y-16959523D02*
X38728446Y-16983332D01*
X38728446Y-16983332D02*
X38680827Y-16983332D01*
X38680827Y-16983332D02*
X38633208Y-16959523D01*
X38633208Y-16959523D02*
X38609399Y-16935713D01*
X38609399Y-16935713D02*
X38585589Y-16888094D01*
X38585589Y-16888094D02*
X38585589Y-16769047D01*
X38585589Y-16769047D02*
X38609399Y-16697618D01*
X38585589Y-16554761D02*
X38585589Y-16269047D01*
X39085589Y-16411904D02*
X38585589Y-16411904D01*
X3090476Y-16698720D02*
X3090476Y-17143958D01*
X3090476Y-17143958D02*
X3116666Y-17196339D01*
X3116666Y-17196339D02*
X3142857Y-17222530D01*
X3142857Y-17222530D02*
X3195238Y-17248720D01*
X3195238Y-17248720D02*
X3300000Y-17248720D01*
X3300000Y-17248720D02*
X3352381Y-17222530D01*
X3352381Y-17222530D02*
X3378571Y-17196339D01*
X3378571Y-17196339D02*
X3404762Y-17143958D01*
X3404762Y-17143958D02*
X3404762Y-16698720D01*
X3640475Y-17222530D02*
X3719047Y-17248720D01*
X3719047Y-17248720D02*
X3849999Y-17248720D01*
X3849999Y-17248720D02*
X3902380Y-17222530D01*
X3902380Y-17222530D02*
X3928571Y-17196339D01*
X3928571Y-17196339D02*
X3954761Y-17143958D01*
X3954761Y-17143958D02*
X3954761Y-17091577D01*
X3954761Y-17091577D02*
X3928571Y-17039196D01*
X3928571Y-17039196D02*
X3902380Y-17013006D01*
X3902380Y-17013006D02*
X3849999Y-16986815D01*
X3849999Y-16986815D02*
X3745237Y-16960625D01*
X3745237Y-16960625D02*
X3692856Y-16934434D01*
X3692856Y-16934434D02*
X3666666Y-16908244D01*
X3666666Y-16908244D02*
X3640475Y-16855863D01*
X3640475Y-16855863D02*
X3640475Y-16803482D01*
X3640475Y-16803482D02*
X3666666Y-16751101D01*
X3666666Y-16751101D02*
X3692856Y-16724910D01*
X3692856Y-16724910D02*
X3745237Y-16698720D01*
X3745237Y-16698720D02*
X3876190Y-16698720D01*
X3876190Y-16698720D02*
X3954761Y-16724910D01*
X4373809Y-16960625D02*
X4452381Y-16986815D01*
X4452381Y-16986815D02*
X4478571Y-17013006D01*
X4478571Y-17013006D02*
X4504762Y-17065387D01*
X4504762Y-17065387D02*
X4504762Y-17143958D01*
X4504762Y-17143958D02*
X4478571Y-17196339D01*
X4478571Y-17196339D02*
X4452381Y-17222530D01*
X4452381Y-17222530D02*
X4400000Y-17248720D01*
X4400000Y-17248720D02*
X4190476Y-17248720D01*
X4190476Y-17248720D02*
X4190476Y-16698720D01*
X4190476Y-16698720D02*
X4373809Y-16698720D01*
X4373809Y-16698720D02*
X4426190Y-16724910D01*
X4426190Y-16724910D02*
X4452381Y-16751101D01*
X4452381Y-16751101D02*
X4478571Y-16803482D01*
X4478571Y-16803482D02*
X4478571Y-16855863D01*
X4478571Y-16855863D02*
X4452381Y-16908244D01*
X4452381Y-16908244D02*
X4426190Y-16934434D01*
X4426190Y-16934434D02*
X4373809Y-16960625D01*
X4373809Y-16960625D02*
X4190476Y-16960625D01*
X4740476Y-17039196D02*
X5159524Y-17039196D01*
X5735714Y-17196339D02*
X5709523Y-17222530D01*
X5709523Y-17222530D02*
X5630952Y-17248720D01*
X5630952Y-17248720D02*
X5578571Y-17248720D01*
X5578571Y-17248720D02*
X5499999Y-17222530D01*
X5499999Y-17222530D02*
X5447618Y-17170149D01*
X5447618Y-17170149D02*
X5421428Y-17117768D01*
X5421428Y-17117768D02*
X5395237Y-17013006D01*
X5395237Y-17013006D02*
X5395237Y-16934434D01*
X5395237Y-16934434D02*
X5421428Y-16829672D01*
X5421428Y-16829672D02*
X5447618Y-16777291D01*
X5447618Y-16777291D02*
X5499999Y-16724910D01*
X5499999Y-16724910D02*
X5578571Y-16698720D01*
X5578571Y-16698720D02*
X5630952Y-16698720D01*
X5630952Y-16698720D02*
X5709523Y-16724910D01*
X5709523Y-16724910D02*
X5735714Y-16751101D01*
X12502380Y-3422530D02*
X12580952Y-3448720D01*
X12580952Y-3448720D02*
X12711904Y-3448720D01*
X12711904Y-3448720D02*
X12764285Y-3422530D01*
X12764285Y-3422530D02*
X12790476Y-3396339D01*
X12790476Y-3396339D02*
X12816666Y-3343958D01*
X12816666Y-3343958D02*
X12816666Y-3291577D01*
X12816666Y-3291577D02*
X12790476Y-3239196D01*
X12790476Y-3239196D02*
X12764285Y-3213006D01*
X12764285Y-3213006D02*
X12711904Y-3186815D01*
X12711904Y-3186815D02*
X12607142Y-3160625D01*
X12607142Y-3160625D02*
X12554761Y-3134434D01*
X12554761Y-3134434D02*
X12528571Y-3108244D01*
X12528571Y-3108244D02*
X12502380Y-3055863D01*
X12502380Y-3055863D02*
X12502380Y-3003482D01*
X12502380Y-3003482D02*
X12528571Y-2951101D01*
X12528571Y-2951101D02*
X12554761Y-2924910D01*
X12554761Y-2924910D02*
X12607142Y-2898720D01*
X12607142Y-2898720D02*
X12738095Y-2898720D01*
X12738095Y-2898720D02*
X12816666Y-2924910D01*
X13052381Y-3239196D02*
X13471429Y-3239196D01*
X13261905Y-3448720D02*
X13261905Y-3029672D01*
X13632142Y-922530D02*
X13710714Y-948720D01*
X13710714Y-948720D02*
X13841666Y-948720D01*
X13841666Y-948720D02*
X13894047Y-922530D01*
X13894047Y-922530D02*
X13920238Y-896339D01*
X13920238Y-896339D02*
X13946428Y-843958D01*
X13946428Y-843958D02*
X13946428Y-791577D01*
X13946428Y-791577D02*
X13920238Y-739196D01*
X13920238Y-739196D02*
X13894047Y-713006D01*
X13894047Y-713006D02*
X13841666Y-686815D01*
X13841666Y-686815D02*
X13736904Y-660625D01*
X13736904Y-660625D02*
X13684523Y-634434D01*
X13684523Y-634434D02*
X13658333Y-608244D01*
X13658333Y-608244D02*
X13632142Y-555863D01*
X13632142Y-555863D02*
X13632142Y-503482D01*
X13632142Y-503482D02*
X13658333Y-451101D01*
X13658333Y-451101D02*
X13684523Y-424910D01*
X13684523Y-424910D02*
X13736904Y-398720D01*
X13736904Y-398720D02*
X13867857Y-398720D01*
X13867857Y-398720D02*
X13946428Y-424910D01*
X14286905Y-398720D02*
X14391667Y-398720D01*
X14391667Y-398720D02*
X14444048Y-424910D01*
X14444048Y-424910D02*
X14496429Y-477291D01*
X14496429Y-477291D02*
X14522619Y-582053D01*
X14522619Y-582053D02*
X14522619Y-765387D01*
X14522619Y-765387D02*
X14496429Y-870149D01*
X14496429Y-870149D02*
X14444048Y-922530D01*
X14444048Y-922530D02*
X14391667Y-948720D01*
X14391667Y-948720D02*
X14286905Y-948720D01*
X14286905Y-948720D02*
X14234524Y-922530D01*
X14234524Y-922530D02*
X14182143Y-870149D01*
X14182143Y-870149D02*
X14155952Y-765387D01*
X14155952Y-765387D02*
X14155952Y-582053D01*
X14155952Y-582053D02*
X14182143Y-477291D01*
X14182143Y-477291D02*
X14234524Y-424910D01*
X14234524Y-424910D02*
X14286905Y-398720D01*
X15020238Y-948720D02*
X14758333Y-948720D01*
X14758333Y-948720D02*
X14758333Y-398720D01*
X15684047Y-2924910D02*
X15631666Y-2898720D01*
X15631666Y-2898720D02*
X15553095Y-2898720D01*
X15553095Y-2898720D02*
X15474523Y-2924910D01*
X15474523Y-2924910D02*
X15422142Y-2977291D01*
X15422142Y-2977291D02*
X15395952Y-3029672D01*
X15395952Y-3029672D02*
X15369761Y-3134434D01*
X15369761Y-3134434D02*
X15369761Y-3213006D01*
X15369761Y-3213006D02*
X15395952Y-3317768D01*
X15395952Y-3317768D02*
X15422142Y-3370149D01*
X15422142Y-3370149D02*
X15474523Y-3422530D01*
X15474523Y-3422530D02*
X15553095Y-3448720D01*
X15553095Y-3448720D02*
X15605476Y-3448720D01*
X15605476Y-3448720D02*
X15684047Y-3422530D01*
X15684047Y-3422530D02*
X15710238Y-3396339D01*
X15710238Y-3396339D02*
X15710238Y-3213006D01*
X15710238Y-3213006D02*
X15605476Y-3213006D01*
X51984523Y-15560625D02*
X52063095Y-15586815D01*
X52063095Y-15586815D02*
X52089285Y-15613006D01*
X52089285Y-15613006D02*
X52115476Y-15665387D01*
X52115476Y-15665387D02*
X52115476Y-15743958D01*
X52115476Y-15743958D02*
X52089285Y-15796339D01*
X52089285Y-15796339D02*
X52063095Y-15822530D01*
X52063095Y-15822530D02*
X52010714Y-15848720D01*
X52010714Y-15848720D02*
X51801190Y-15848720D01*
X51801190Y-15848720D02*
X51801190Y-15298720D01*
X51801190Y-15298720D02*
X51984523Y-15298720D01*
X51984523Y-15298720D02*
X52036904Y-15324910D01*
X52036904Y-15324910D02*
X52063095Y-15351101D01*
X52063095Y-15351101D02*
X52089285Y-15403482D01*
X52089285Y-15403482D02*
X52089285Y-15455863D01*
X52089285Y-15455863D02*
X52063095Y-15508244D01*
X52063095Y-15508244D02*
X52036904Y-15534434D01*
X52036904Y-15534434D02*
X51984523Y-15560625D01*
X51984523Y-15560625D02*
X51801190Y-15560625D01*
X52324999Y-15691577D02*
X52586904Y-15691577D01*
X52272618Y-15848720D02*
X52455952Y-15298720D01*
X52455952Y-15298720D02*
X52639285Y-15848720D01*
X52744047Y-15298720D02*
X53058333Y-15298720D01*
X52901190Y-15848720D02*
X52901190Y-15298720D01*
X53163095Y-15298720D02*
X53477381Y-15298720D01*
X53320238Y-15848720D02*
X53320238Y-15298720D01*
D13*
X22485714Y-5762295D02*
X22219047Y-5381342D01*
X22028571Y-5762295D02*
X22028571Y-4962295D01*
X22028571Y-4962295D02*
X22333333Y-4962295D01*
X22333333Y-4962295D02*
X22409523Y-5000390D01*
X22409523Y-5000390D02*
X22447618Y-5038485D01*
X22447618Y-5038485D02*
X22485714Y-5114676D01*
X22485714Y-5114676D02*
X22485714Y-5228961D01*
X22485714Y-5228961D02*
X22447618Y-5305152D01*
X22447618Y-5305152D02*
X22409523Y-5343247D01*
X22409523Y-5343247D02*
X22333333Y-5381342D01*
X22333333Y-5381342D02*
X22028571Y-5381342D01*
X22752380Y-4962295D02*
X23247618Y-4962295D01*
X23247618Y-4962295D02*
X22980952Y-5267057D01*
X22980952Y-5267057D02*
X23095237Y-5267057D01*
X23095237Y-5267057D02*
X23171428Y-5305152D01*
X23171428Y-5305152D02*
X23209523Y-5343247D01*
X23209523Y-5343247D02*
X23247618Y-5419438D01*
X23247618Y-5419438D02*
X23247618Y-5609914D01*
X23247618Y-5609914D02*
X23209523Y-5686104D01*
X23209523Y-5686104D02*
X23171428Y-5724200D01*
X23171428Y-5724200D02*
X23095237Y-5762295D01*
X23095237Y-5762295D02*
X22866666Y-5762295D01*
X22866666Y-5762295D02*
X22790475Y-5724200D01*
X22790475Y-5724200D02*
X22752380Y-5686104D01*
X23514285Y-4962295D02*
X24009523Y-4962295D01*
X24009523Y-4962295D02*
X23742857Y-5267057D01*
X23742857Y-5267057D02*
X23857142Y-5267057D01*
X23857142Y-5267057D02*
X23933333Y-5305152D01*
X23933333Y-5305152D02*
X23971428Y-5343247D01*
X23971428Y-5343247D02*
X24009523Y-5419438D01*
X24009523Y-5419438D02*
X24009523Y-5609914D01*
X24009523Y-5609914D02*
X23971428Y-5686104D01*
X23971428Y-5686104D02*
X23933333Y-5724200D01*
X23933333Y-5724200D02*
X23857142Y-5762295D01*
X23857142Y-5762295D02*
X23628571Y-5762295D01*
X23628571Y-5762295D02*
X23552380Y-5724200D01*
X23552380Y-5724200D02*
X23514285Y-5686104D01*
D14*
X42342371Y-2100000D02*
X42770942Y-2100000D01*
X42770942Y-2100000D02*
X42856657Y-2128571D01*
X42856657Y-2128571D02*
X42913800Y-2185714D01*
X42913800Y-2185714D02*
X42942371Y-2271428D01*
X42942371Y-2271428D02*
X42942371Y-2328571D01*
X42542371Y-1557143D02*
X42942371Y-1557143D01*
X42313800Y-1700000D02*
X42742371Y-1842857D01*
X42742371Y-1842857D02*
X42742371Y-1471428D01*
D13*
X27235714Y-3262295D02*
X26969047Y-2881342D01*
X26778571Y-3262295D02*
X26778571Y-2462295D01*
X26778571Y-2462295D02*
X27083333Y-2462295D01*
X27083333Y-2462295D02*
X27159523Y-2500390D01*
X27159523Y-2500390D02*
X27197618Y-2538485D01*
X27197618Y-2538485D02*
X27235714Y-2614676D01*
X27235714Y-2614676D02*
X27235714Y-2728961D01*
X27235714Y-2728961D02*
X27197618Y-2805152D01*
X27197618Y-2805152D02*
X27159523Y-2843247D01*
X27159523Y-2843247D02*
X27083333Y-2881342D01*
X27083333Y-2881342D02*
X26778571Y-2881342D01*
X27502380Y-2462295D02*
X27997618Y-2462295D01*
X27997618Y-2462295D02*
X27730952Y-2767057D01*
X27730952Y-2767057D02*
X27845237Y-2767057D01*
X27845237Y-2767057D02*
X27921428Y-2805152D01*
X27921428Y-2805152D02*
X27959523Y-2843247D01*
X27959523Y-2843247D02*
X27997618Y-2919438D01*
X27997618Y-2919438D02*
X27997618Y-3109914D01*
X27997618Y-3109914D02*
X27959523Y-3186104D01*
X27959523Y-3186104D02*
X27921428Y-3224200D01*
X27921428Y-3224200D02*
X27845237Y-3262295D01*
X27845237Y-3262295D02*
X27616666Y-3262295D01*
X27616666Y-3262295D02*
X27540475Y-3224200D01*
X27540475Y-3224200D02*
X27502380Y-3186104D01*
X28302380Y-2538485D02*
X28340476Y-2500390D01*
X28340476Y-2500390D02*
X28416666Y-2462295D01*
X28416666Y-2462295D02*
X28607142Y-2462295D01*
X28607142Y-2462295D02*
X28683333Y-2500390D01*
X28683333Y-2500390D02*
X28721428Y-2538485D01*
X28721428Y-2538485D02*
X28759523Y-2614676D01*
X28759523Y-2614676D02*
X28759523Y-2690866D01*
X28759523Y-2690866D02*
X28721428Y-2805152D01*
X28721428Y-2805152D02*
X28264285Y-3262295D01*
X28264285Y-3262295D02*
X28759523Y-3262295D01*
D14*
X53099999Y-9872371D02*
X53099999Y-10300942D01*
X53099999Y-10300942D02*
X53071428Y-10386657D01*
X53071428Y-10386657D02*
X53014285Y-10443800D01*
X53014285Y-10443800D02*
X52928571Y-10472371D01*
X52928571Y-10472371D02*
X52871428Y-10472371D01*
X53357142Y-9929514D02*
X53385714Y-9900942D01*
X53385714Y-9900942D02*
X53442857Y-9872371D01*
X53442857Y-9872371D02*
X53585714Y-9872371D01*
X53585714Y-9872371D02*
X53642857Y-9900942D01*
X53642857Y-9900942D02*
X53671428Y-9929514D01*
X53671428Y-9929514D02*
X53699999Y-9986657D01*
X53699999Y-9986657D02*
X53699999Y-10043800D01*
X53699999Y-10043800D02*
X53671428Y-10129514D01*
X53671428Y-10129514D02*
X53328571Y-10472371D01*
X53328571Y-10472371D02*
X53699999Y-10472371D01*
X21257143Y-12972371D02*
X21257143Y-12372371D01*
X21257143Y-12372371D02*
X21400000Y-12372371D01*
X21400000Y-12372371D02*
X21485714Y-12400942D01*
X21485714Y-12400942D02*
X21542857Y-12458085D01*
X21542857Y-12458085D02*
X21571428Y-12515228D01*
X21571428Y-12515228D02*
X21600000Y-12629514D01*
X21600000Y-12629514D02*
X21600000Y-12715228D01*
X21600000Y-12715228D02*
X21571428Y-12829514D01*
X21571428Y-12829514D02*
X21542857Y-12886657D01*
X21542857Y-12886657D02*
X21485714Y-12943800D01*
X21485714Y-12943800D02*
X21400000Y-12972371D01*
X21400000Y-12972371D02*
X21257143Y-12972371D01*
X21800000Y-12372371D02*
X22171428Y-12372371D01*
X22171428Y-12372371D02*
X21971428Y-12600942D01*
X21971428Y-12600942D02*
X22057143Y-12600942D01*
X22057143Y-12600942D02*
X22114286Y-12629514D01*
X22114286Y-12629514D02*
X22142857Y-12658085D01*
X22142857Y-12658085D02*
X22171428Y-12715228D01*
X22171428Y-12715228D02*
X22171428Y-12858085D01*
X22171428Y-12858085D02*
X22142857Y-12915228D01*
X22142857Y-12915228D02*
X22114286Y-12943800D01*
X22114286Y-12943800D02*
X22057143Y-12972371D01*
X22057143Y-12972371D02*
X21885714Y-12972371D01*
X21885714Y-12972371D02*
X21828571Y-12943800D01*
X21828571Y-12943800D02*
X21800000Y-12915228D01*
D13*
X42490476Y-16662295D02*
X42947619Y-16662295D01*
X42719047Y-17462295D02*
X42719047Y-16662295D01*
X43214286Y-17462295D02*
X43214286Y-16662295D01*
X43214286Y-16662295D02*
X43519048Y-16662295D01*
X43519048Y-16662295D02*
X43595238Y-16700390D01*
X43595238Y-16700390D02*
X43633333Y-16738485D01*
X43633333Y-16738485D02*
X43671429Y-16814676D01*
X43671429Y-16814676D02*
X43671429Y-16928961D01*
X43671429Y-16928961D02*
X43633333Y-17005152D01*
X43633333Y-17005152D02*
X43595238Y-17043247D01*
X43595238Y-17043247D02*
X43519048Y-17081342D01*
X43519048Y-17081342D02*
X43214286Y-17081342D01*
X44395238Y-16662295D02*
X44014286Y-16662295D01*
X44014286Y-16662295D02*
X43976190Y-17043247D01*
X43976190Y-17043247D02*
X44014286Y-17005152D01*
X44014286Y-17005152D02*
X44090476Y-16967057D01*
X44090476Y-16967057D02*
X44280952Y-16967057D01*
X44280952Y-16967057D02*
X44357143Y-17005152D01*
X44357143Y-17005152D02*
X44395238Y-17043247D01*
X44395238Y-17043247D02*
X44433333Y-17119438D01*
X44433333Y-17119438D02*
X44433333Y-17309914D01*
X44433333Y-17309914D02*
X44395238Y-17386104D01*
X44395238Y-17386104D02*
X44357143Y-17424200D01*
X44357143Y-17424200D02*
X44280952Y-17462295D01*
X44280952Y-17462295D02*
X44090476Y-17462295D01*
X44090476Y-17462295D02*
X44014286Y-17424200D01*
X44014286Y-17424200D02*
X43976190Y-17386104D01*
D14*
X32957143Y327628D02*
X32957143Y927628D01*
X32957143Y927628D02*
X33100000Y927628D01*
X33100000Y927628D02*
X33185714Y899057D01*
X33185714Y899057D02*
X33242857Y841914D01*
X33242857Y841914D02*
X33271428Y784771D01*
X33271428Y784771D02*
X33300000Y670485D01*
X33300000Y670485D02*
X33300000Y584771D01*
X33300000Y584771D02*
X33271428Y470485D01*
X33271428Y470485D02*
X33242857Y413342D01*
X33242857Y413342D02*
X33185714Y356200D01*
X33185714Y356200D02*
X33100000Y327628D01*
X33100000Y327628D02*
X32957143Y327628D01*
X33842857Y927628D02*
X33557143Y927628D01*
X33557143Y927628D02*
X33528571Y641914D01*
X33528571Y641914D02*
X33557143Y670485D01*
X33557143Y670485D02*
X33614286Y699057D01*
X33614286Y699057D02*
X33757143Y699057D01*
X33757143Y699057D02*
X33814286Y670485D01*
X33814286Y670485D02*
X33842857Y641914D01*
X33842857Y641914D02*
X33871428Y584771D01*
X33871428Y584771D02*
X33871428Y441914D01*
X33871428Y441914D02*
X33842857Y384771D01*
X33842857Y384771D02*
X33814286Y356200D01*
X33814286Y356200D02*
X33757143Y327628D01*
X33757143Y327628D02*
X33614286Y327628D01*
X33614286Y327628D02*
X33557143Y356200D01*
X33557143Y356200D02*
X33528571Y384771D01*
X13342371Y-18600000D02*
X13770942Y-18600000D01*
X13770942Y-18600000D02*
X13856657Y-18628571D01*
X13856657Y-18628571D02*
X13913800Y-18685714D01*
X13913800Y-18685714D02*
X13942371Y-18771428D01*
X13942371Y-18771428D02*
X13942371Y-18828571D01*
X13342371Y-18371428D02*
X13342371Y-17971428D01*
X13342371Y-17971428D02*
X13942371Y-18228571D01*
D13*
X38690476Y-8162295D02*
X39147619Y-8162295D01*
X38919047Y-8962295D02*
X38919047Y-8162295D01*
X39414286Y-8962295D02*
X39414286Y-8162295D01*
X39414286Y-8162295D02*
X39719048Y-8162295D01*
X39719048Y-8162295D02*
X39795238Y-8200390D01*
X39795238Y-8200390D02*
X39833333Y-8238485D01*
X39833333Y-8238485D02*
X39871429Y-8314676D01*
X39871429Y-8314676D02*
X39871429Y-8428961D01*
X39871429Y-8428961D02*
X39833333Y-8505152D01*
X39833333Y-8505152D02*
X39795238Y-8543247D01*
X39795238Y-8543247D02*
X39719048Y-8581342D01*
X39719048Y-8581342D02*
X39414286Y-8581342D01*
X40557143Y-8428961D02*
X40557143Y-8962295D01*
X40366667Y-8124200D02*
X40176190Y-8695628D01*
X40176190Y-8695628D02*
X40671429Y-8695628D01*
D14*
X13857143Y-12972371D02*
X13857143Y-12372371D01*
X13857143Y-12372371D02*
X14000000Y-12372371D01*
X14000000Y-12372371D02*
X14085714Y-12400942D01*
X14085714Y-12400942D02*
X14142857Y-12458085D01*
X14142857Y-12458085D02*
X14171428Y-12515228D01*
X14171428Y-12515228D02*
X14200000Y-12629514D01*
X14200000Y-12629514D02*
X14200000Y-12715228D01*
X14200000Y-12715228D02*
X14171428Y-12829514D01*
X14171428Y-12829514D02*
X14142857Y-12886657D01*
X14142857Y-12886657D02*
X14085714Y-12943800D01*
X14085714Y-12943800D02*
X14000000Y-12972371D01*
X14000000Y-12972371D02*
X13857143Y-12972371D01*
X14428571Y-12429514D02*
X14457143Y-12400942D01*
X14457143Y-12400942D02*
X14514286Y-12372371D01*
X14514286Y-12372371D02*
X14657143Y-12372371D01*
X14657143Y-12372371D02*
X14714286Y-12400942D01*
X14714286Y-12400942D02*
X14742857Y-12429514D01*
X14742857Y-12429514D02*
X14771428Y-12486657D01*
X14771428Y-12486657D02*
X14771428Y-12543800D01*
X14771428Y-12543800D02*
X14742857Y-12629514D01*
X14742857Y-12629514D02*
X14400000Y-12972371D01*
X14400000Y-12972371D02*
X14771428Y-12972371D01*
X36742857Y-12872371D02*
X36742857Y-13358085D01*
X36742857Y-13358085D02*
X36771428Y-13415228D01*
X36771428Y-13415228D02*
X36800000Y-13443800D01*
X36800000Y-13443800D02*
X36857142Y-13472371D01*
X36857142Y-13472371D02*
X36971428Y-13472371D01*
X36971428Y-13472371D02*
X37028571Y-13443800D01*
X37028571Y-13443800D02*
X37057142Y-13415228D01*
X37057142Y-13415228D02*
X37085714Y-13358085D01*
X37085714Y-13358085D02*
X37085714Y-12872371D01*
X37628571Y-13072371D02*
X37628571Y-13472371D01*
X37485713Y-12843800D02*
X37342856Y-13272371D01*
X37342856Y-13272371D02*
X37714285Y-13272371D01*
X38535228Y-7385714D02*
X38563800Y-7414286D01*
X38563800Y-7414286D02*
X38592371Y-7500000D01*
X38592371Y-7500000D02*
X38592371Y-7557143D01*
X38592371Y-7557143D02*
X38563800Y-7642857D01*
X38563800Y-7642857D02*
X38506657Y-7700000D01*
X38506657Y-7700000D02*
X38449514Y-7728571D01*
X38449514Y-7728571D02*
X38335228Y-7757143D01*
X38335228Y-7757143D02*
X38249514Y-7757143D01*
X38249514Y-7757143D02*
X38135228Y-7728571D01*
X38135228Y-7728571D02*
X38078085Y-7700000D01*
X38078085Y-7700000D02*
X38020942Y-7642857D01*
X38020942Y-7642857D02*
X37992371Y-7557143D01*
X37992371Y-7557143D02*
X37992371Y-7500000D01*
X37992371Y-7500000D02*
X38020942Y-7414286D01*
X38020942Y-7414286D02*
X38049514Y-7385714D01*
X38592371Y-6814286D02*
X38592371Y-7157143D01*
X38592371Y-6985714D02*
X37992371Y-6985714D01*
X37992371Y-6985714D02*
X38078085Y-7042857D01*
X38078085Y-7042857D02*
X38135228Y-7100000D01*
X38135228Y-7100000D02*
X38163800Y-7157143D01*
X37992371Y-6442857D02*
X37992371Y-6385714D01*
X37992371Y-6385714D02*
X38020942Y-6328571D01*
X38020942Y-6328571D02*
X38049514Y-6300000D01*
X38049514Y-6300000D02*
X38106657Y-6271428D01*
X38106657Y-6271428D02*
X38220942Y-6242857D01*
X38220942Y-6242857D02*
X38363800Y-6242857D01*
X38363800Y-6242857D02*
X38478085Y-6271428D01*
X38478085Y-6271428D02*
X38535228Y-6300000D01*
X38535228Y-6300000D02*
X38563800Y-6328571D01*
X38563800Y-6328571D02*
X38592371Y-6385714D01*
X38592371Y-6385714D02*
X38592371Y-6442857D01*
X38592371Y-6442857D02*
X38563800Y-6500000D01*
X38563800Y-6500000D02*
X38535228Y-6528571D01*
X38535228Y-6528571D02*
X38478085Y-6557142D01*
X38478085Y-6557142D02*
X38363800Y-6585714D01*
X38363800Y-6585714D02*
X38220942Y-6585714D01*
X38220942Y-6585714D02*
X38106657Y-6557142D01*
X38106657Y-6557142D02*
X38049514Y-6528571D01*
X38049514Y-6528571D02*
X38020942Y-6500000D01*
X38020942Y-6500000D02*
X37992371Y-6442857D01*
D13*
X26333333Y-5212295D02*
X26333333Y-5783723D01*
X26333333Y-5783723D02*
X26295238Y-5898009D01*
X26295238Y-5898009D02*
X26219047Y-5974200D01*
X26219047Y-5974200D02*
X26104762Y-6012295D01*
X26104762Y-6012295D02*
X26028571Y-6012295D01*
X26714286Y-6012295D02*
X26714286Y-5212295D01*
X26714286Y-5212295D02*
X27019048Y-5212295D01*
X27019048Y-5212295D02*
X27095238Y-5250390D01*
X27095238Y-5250390D02*
X27133333Y-5288485D01*
X27133333Y-5288485D02*
X27171429Y-5364676D01*
X27171429Y-5364676D02*
X27171429Y-5478961D01*
X27171429Y-5478961D02*
X27133333Y-5555152D01*
X27133333Y-5555152D02*
X27095238Y-5593247D01*
X27095238Y-5593247D02*
X27019048Y-5631342D01*
X27019048Y-5631342D02*
X26714286Y-5631342D01*
X27933333Y-6012295D02*
X27476190Y-6012295D01*
X27704762Y-6012295D02*
X27704762Y-5212295D01*
X27704762Y-5212295D02*
X27628571Y-5326580D01*
X27628571Y-5326580D02*
X27552381Y-5402771D01*
X27552381Y-5402771D02*
X27476190Y-5440866D01*
D14*
X11528571Y-17872371D02*
X11242857Y-17872371D01*
X11242857Y-17872371D02*
X11242857Y-17272371D01*
X11728571Y-17558085D02*
X11928571Y-17558085D01*
X12014285Y-17872371D02*
X11728571Y-17872371D01*
X11728571Y-17872371D02*
X11728571Y-17272371D01*
X11728571Y-17272371D02*
X12014285Y-17272371D01*
X12271428Y-17872371D02*
X12271428Y-17272371D01*
X12271428Y-17272371D02*
X12414285Y-17272371D01*
X12414285Y-17272371D02*
X12499999Y-17300942D01*
X12499999Y-17300942D02*
X12557142Y-17358085D01*
X12557142Y-17358085D02*
X12585713Y-17415228D01*
X12585713Y-17415228D02*
X12614285Y-17529514D01*
X12614285Y-17529514D02*
X12614285Y-17615228D01*
X12614285Y-17615228D02*
X12585713Y-17729514D01*
X12585713Y-17729514D02*
X12557142Y-17786657D01*
X12557142Y-17786657D02*
X12499999Y-17843800D01*
X12499999Y-17843800D02*
X12414285Y-17872371D01*
X12414285Y-17872371D02*
X12271428Y-17872371D01*
X12842856Y-17329514D02*
X12871428Y-17300942D01*
X12871428Y-17300942D02*
X12928571Y-17272371D01*
X12928571Y-17272371D02*
X13071428Y-17272371D01*
X13071428Y-17272371D02*
X13128571Y-17300942D01*
X13128571Y-17300942D02*
X13157142Y-17329514D01*
X13157142Y-17329514D02*
X13185713Y-17386657D01*
X13185713Y-17386657D02*
X13185713Y-17443800D01*
X13185713Y-17443800D02*
X13157142Y-17529514D01*
X13157142Y-17529514D02*
X12814285Y-17872371D01*
X12814285Y-17872371D02*
X13185713Y-17872371D01*
D13*
X24090476Y-2362295D02*
X24547619Y-2362295D01*
X24319047Y-3162295D02*
X24319047Y-2362295D01*
X24814286Y-3162295D02*
X24814286Y-2362295D01*
X24814286Y-2362295D02*
X25119048Y-2362295D01*
X25119048Y-2362295D02*
X25195238Y-2400390D01*
X25195238Y-2400390D02*
X25233333Y-2438485D01*
X25233333Y-2438485D02*
X25271429Y-2514676D01*
X25271429Y-2514676D02*
X25271429Y-2628961D01*
X25271429Y-2628961D02*
X25233333Y-2705152D01*
X25233333Y-2705152D02*
X25195238Y-2743247D01*
X25195238Y-2743247D02*
X25119048Y-2781342D01*
X25119048Y-2781342D02*
X24814286Y-2781342D01*
X25652381Y-3162295D02*
X25804762Y-3162295D01*
X25804762Y-3162295D02*
X25880952Y-3124200D01*
X25880952Y-3124200D02*
X25919048Y-3086104D01*
X25919048Y-3086104D02*
X25995238Y-2971819D01*
X25995238Y-2971819D02*
X26033333Y-2819438D01*
X26033333Y-2819438D02*
X26033333Y-2514676D01*
X26033333Y-2514676D02*
X25995238Y-2438485D01*
X25995238Y-2438485D02*
X25957143Y-2400390D01*
X25957143Y-2400390D02*
X25880952Y-2362295D01*
X25880952Y-2362295D02*
X25728571Y-2362295D01*
X25728571Y-2362295D02*
X25652381Y-2400390D01*
X25652381Y-2400390D02*
X25614286Y-2438485D01*
X25614286Y-2438485D02*
X25576190Y-2514676D01*
X25576190Y-2514676D02*
X25576190Y-2705152D01*
X25576190Y-2705152D02*
X25614286Y-2781342D01*
X25614286Y-2781342D02*
X25652381Y-2819438D01*
X25652381Y-2819438D02*
X25728571Y-2857533D01*
X25728571Y-2857533D02*
X25880952Y-2857533D01*
X25880952Y-2857533D02*
X25957143Y-2819438D01*
X25957143Y-2819438D02*
X25995238Y-2781342D01*
X25995238Y-2781342D02*
X26033333Y-2705152D01*
D14*
X15214285Y-17202371D02*
X15014285Y-16916657D01*
X14871428Y-17202371D02*
X14871428Y-16602371D01*
X14871428Y-16602371D02*
X15099999Y-16602371D01*
X15099999Y-16602371D02*
X15157142Y-16630942D01*
X15157142Y-16630942D02*
X15185713Y-16659514D01*
X15185713Y-16659514D02*
X15214285Y-16716657D01*
X15214285Y-16716657D02*
X15214285Y-16802371D01*
X15214285Y-16802371D02*
X15185713Y-16859514D01*
X15185713Y-16859514D02*
X15157142Y-16888085D01*
X15157142Y-16888085D02*
X15099999Y-16916657D01*
X15099999Y-16916657D02*
X14871428Y-16916657D01*
X15442856Y-16659514D02*
X15471428Y-16630942D01*
X15471428Y-16630942D02*
X15528571Y-16602371D01*
X15528571Y-16602371D02*
X15671428Y-16602371D01*
X15671428Y-16602371D02*
X15728571Y-16630942D01*
X15728571Y-16630942D02*
X15757142Y-16659514D01*
X15757142Y-16659514D02*
X15785713Y-16716657D01*
X15785713Y-16716657D02*
X15785713Y-16773800D01*
X15785713Y-16773800D02*
X15757142Y-16859514D01*
X15757142Y-16859514D02*
X15414285Y-17202371D01*
X15414285Y-17202371D02*
X15785713Y-17202371D01*
X16128571Y-16859514D02*
X16071428Y-16830942D01*
X16071428Y-16830942D02*
X16042857Y-16802371D01*
X16042857Y-16802371D02*
X16014285Y-16745228D01*
X16014285Y-16745228D02*
X16014285Y-16716657D01*
X16014285Y-16716657D02*
X16042857Y-16659514D01*
X16042857Y-16659514D02*
X16071428Y-16630942D01*
X16071428Y-16630942D02*
X16128571Y-16602371D01*
X16128571Y-16602371D02*
X16242857Y-16602371D01*
X16242857Y-16602371D02*
X16300000Y-16630942D01*
X16300000Y-16630942D02*
X16328571Y-16659514D01*
X16328571Y-16659514D02*
X16357142Y-16716657D01*
X16357142Y-16716657D02*
X16357142Y-16745228D01*
X16357142Y-16745228D02*
X16328571Y-16802371D01*
X16328571Y-16802371D02*
X16300000Y-16830942D01*
X16300000Y-16830942D02*
X16242857Y-16859514D01*
X16242857Y-16859514D02*
X16128571Y-16859514D01*
X16128571Y-16859514D02*
X16071428Y-16888085D01*
X16071428Y-16888085D02*
X16042857Y-16916657D01*
X16042857Y-16916657D02*
X16014285Y-16973800D01*
X16014285Y-16973800D02*
X16014285Y-17088085D01*
X16014285Y-17088085D02*
X16042857Y-17145228D01*
X16042857Y-17145228D02*
X16071428Y-17173800D01*
X16071428Y-17173800D02*
X16128571Y-17202371D01*
X16128571Y-17202371D02*
X16242857Y-17202371D01*
X16242857Y-17202371D02*
X16300000Y-17173800D01*
X16300000Y-17173800D02*
X16328571Y-17145228D01*
X16328571Y-17145228D02*
X16357142Y-17088085D01*
X16357142Y-17088085D02*
X16357142Y-16973800D01*
X16357142Y-16973800D02*
X16328571Y-16916657D01*
X16328571Y-16916657D02*
X16300000Y-16888085D01*
X16300000Y-16888085D02*
X16242857Y-16859514D01*
X42942857Y-11129514D02*
X42885714Y-11100942D01*
X42885714Y-11100942D02*
X42828571Y-11043800D01*
X42828571Y-11043800D02*
X42742857Y-10958085D01*
X42742857Y-10958085D02*
X42685714Y-10929514D01*
X42685714Y-10929514D02*
X42628571Y-10929514D01*
X42657142Y-11072371D02*
X42600000Y-11043800D01*
X42600000Y-11043800D02*
X42542857Y-10986657D01*
X42542857Y-10986657D02*
X42514285Y-10872371D01*
X42514285Y-10872371D02*
X42514285Y-10672371D01*
X42514285Y-10672371D02*
X42542857Y-10558085D01*
X42542857Y-10558085D02*
X42600000Y-10500942D01*
X42600000Y-10500942D02*
X42657142Y-10472371D01*
X42657142Y-10472371D02*
X42771428Y-10472371D01*
X42771428Y-10472371D02*
X42828571Y-10500942D01*
X42828571Y-10500942D02*
X42885714Y-10558085D01*
X42885714Y-10558085D02*
X42914285Y-10672371D01*
X42914285Y-10672371D02*
X42914285Y-10872371D01*
X42914285Y-10872371D02*
X42885714Y-10986657D01*
X42885714Y-10986657D02*
X42828571Y-11043800D01*
X42828571Y-11043800D02*
X42771428Y-11072371D01*
X42771428Y-11072371D02*
X42657142Y-11072371D01*
X43114285Y-10472371D02*
X43485713Y-10472371D01*
X43485713Y-10472371D02*
X43285713Y-10700942D01*
X43285713Y-10700942D02*
X43371428Y-10700942D01*
X43371428Y-10700942D02*
X43428571Y-10729514D01*
X43428571Y-10729514D02*
X43457142Y-10758085D01*
X43457142Y-10758085D02*
X43485713Y-10815228D01*
X43485713Y-10815228D02*
X43485713Y-10958085D01*
X43485713Y-10958085D02*
X43457142Y-11015228D01*
X43457142Y-11015228D02*
X43428571Y-11043800D01*
X43428571Y-11043800D02*
X43371428Y-11072371D01*
X43371428Y-11072371D02*
X43199999Y-11072371D01*
X43199999Y-11072371D02*
X43142856Y-11043800D01*
X43142856Y-11043800D02*
X43114285Y-11015228D01*
D13*
X47409523Y-16862295D02*
X47866666Y-16862295D01*
X47638094Y-17662295D02*
X47638094Y-16862295D01*
X48133333Y-17662295D02*
X48133333Y-16862295D01*
X48133333Y-16862295D02*
X48438095Y-16862295D01*
X48438095Y-16862295D02*
X48514285Y-16900390D01*
X48514285Y-16900390D02*
X48552380Y-16938485D01*
X48552380Y-16938485D02*
X48590476Y-17014676D01*
X48590476Y-17014676D02*
X48590476Y-17128961D01*
X48590476Y-17128961D02*
X48552380Y-17205152D01*
X48552380Y-17205152D02*
X48514285Y-17243247D01*
X48514285Y-17243247D02*
X48438095Y-17281342D01*
X48438095Y-17281342D02*
X48133333Y-17281342D01*
X49352380Y-17662295D02*
X48895237Y-17662295D01*
X49123809Y-17662295D02*
X49123809Y-16862295D01*
X49123809Y-16862295D02*
X49047618Y-16976580D01*
X49047618Y-16976580D02*
X48971428Y-17052771D01*
X48971428Y-17052771D02*
X48895237Y-17090866D01*
X50114285Y-17662295D02*
X49657142Y-17662295D01*
X49885714Y-17662295D02*
X49885714Y-16862295D01*
X49885714Y-16862295D02*
X49809523Y-16976580D01*
X49809523Y-16976580D02*
X49733333Y-17052771D01*
X49733333Y-17052771D02*
X49657142Y-17090866D01*
D14*
X46100000Y-11358085D02*
X45900000Y-11358085D01*
X45900000Y-11672371D02*
X45900000Y-11072371D01*
X45900000Y-11072371D02*
X46185714Y-11072371D01*
X46614286Y-11358085D02*
X46700000Y-11386657D01*
X46700000Y-11386657D02*
X46728571Y-11415228D01*
X46728571Y-11415228D02*
X46757143Y-11472371D01*
X46757143Y-11472371D02*
X46757143Y-11558085D01*
X46757143Y-11558085D02*
X46728571Y-11615228D01*
X46728571Y-11615228D02*
X46700000Y-11643800D01*
X46700000Y-11643800D02*
X46642857Y-11672371D01*
X46642857Y-11672371D02*
X46414286Y-11672371D01*
X46414286Y-11672371D02*
X46414286Y-11072371D01*
X46414286Y-11072371D02*
X46614286Y-11072371D01*
X46614286Y-11072371D02*
X46671429Y-11100942D01*
X46671429Y-11100942D02*
X46700000Y-11129514D01*
X46700000Y-11129514D02*
X46728571Y-11186657D01*
X46728571Y-11186657D02*
X46728571Y-11243800D01*
X46728571Y-11243800D02*
X46700000Y-11300942D01*
X46700000Y-11300942D02*
X46671429Y-11329514D01*
X46671429Y-11329514D02*
X46614286Y-11358085D01*
X46614286Y-11358085D02*
X46414286Y-11358085D01*
X46957143Y-11072371D02*
X47328571Y-11072371D01*
X47328571Y-11072371D02*
X47128571Y-11300942D01*
X47128571Y-11300942D02*
X47214286Y-11300942D01*
X47214286Y-11300942D02*
X47271429Y-11329514D01*
X47271429Y-11329514D02*
X47300000Y-11358085D01*
X47300000Y-11358085D02*
X47328571Y-11415228D01*
X47328571Y-11415228D02*
X47328571Y-11558085D01*
X47328571Y-11558085D02*
X47300000Y-11615228D01*
X47300000Y-11615228D02*
X47271429Y-11643800D01*
X47271429Y-11643800D02*
X47214286Y-11672371D01*
X47214286Y-11672371D02*
X47042857Y-11672371D01*
X47042857Y-11672371D02*
X46985714Y-11643800D01*
X46985714Y-11643800D02*
X46957143Y-11615228D01*
X10342371Y-2000000D02*
X10770942Y-2000000D01*
X10770942Y-2000000D02*
X10856657Y-2028571D01*
X10856657Y-2028571D02*
X10913800Y-2085714D01*
X10913800Y-2085714D02*
X10942371Y-2171428D01*
X10942371Y-2171428D02*
X10942371Y-2228571D01*
X10342371Y-1771428D02*
X10342371Y-1400000D01*
X10342371Y-1400000D02*
X10570942Y-1600000D01*
X10570942Y-1600000D02*
X10570942Y-1514285D01*
X10570942Y-1514285D02*
X10599514Y-1457143D01*
X10599514Y-1457143D02*
X10628085Y-1428571D01*
X10628085Y-1428571D02*
X10685228Y-1400000D01*
X10685228Y-1400000D02*
X10828085Y-1400000D01*
X10828085Y-1400000D02*
X10885228Y-1428571D01*
X10885228Y-1428571D02*
X10913800Y-1457143D01*
X10913800Y-1457143D02*
X10942371Y-1514285D01*
X10942371Y-1514285D02*
X10942371Y-1685714D01*
X10942371Y-1685714D02*
X10913800Y-1742857D01*
X10913800Y-1742857D02*
X10885228Y-1771428D01*
X32942857Y-7129514D02*
X32885714Y-7100942D01*
X32885714Y-7100942D02*
X32828571Y-7043800D01*
X32828571Y-7043800D02*
X32742857Y-6958085D01*
X32742857Y-6958085D02*
X32685714Y-6929514D01*
X32685714Y-6929514D02*
X32628571Y-6929514D01*
X32657142Y-7072371D02*
X32600000Y-7043800D01*
X32600000Y-7043800D02*
X32542857Y-6986657D01*
X32542857Y-6986657D02*
X32514285Y-6872371D01*
X32514285Y-6872371D02*
X32514285Y-6672371D01*
X32514285Y-6672371D02*
X32542857Y-6558085D01*
X32542857Y-6558085D02*
X32600000Y-6500942D01*
X32600000Y-6500942D02*
X32657142Y-6472371D01*
X32657142Y-6472371D02*
X32771428Y-6472371D01*
X32771428Y-6472371D02*
X32828571Y-6500942D01*
X32828571Y-6500942D02*
X32885714Y-6558085D01*
X32885714Y-6558085D02*
X32914285Y-6672371D01*
X32914285Y-6672371D02*
X32914285Y-6872371D01*
X32914285Y-6872371D02*
X32885714Y-6986657D01*
X32885714Y-6986657D02*
X32828571Y-7043800D01*
X32828571Y-7043800D02*
X32771428Y-7072371D01*
X32771428Y-7072371D02*
X32657142Y-7072371D01*
X33142856Y-6529514D02*
X33171428Y-6500942D01*
X33171428Y-6500942D02*
X33228571Y-6472371D01*
X33228571Y-6472371D02*
X33371428Y-6472371D01*
X33371428Y-6472371D02*
X33428571Y-6500942D01*
X33428571Y-6500942D02*
X33457142Y-6529514D01*
X33457142Y-6529514D02*
X33485713Y-6586657D01*
X33485713Y-6586657D02*
X33485713Y-6643800D01*
X33485713Y-6643800D02*
X33457142Y-6729514D01*
X33457142Y-6729514D02*
X33114285Y-7072371D01*
X33114285Y-7072371D02*
X33485713Y-7072371D01*
X46100000Y-15358085D02*
X45900000Y-15358085D01*
X45900000Y-15672371D02*
X45900000Y-15072371D01*
X45900000Y-15072371D02*
X46185714Y-15072371D01*
X46614286Y-15358085D02*
X46700000Y-15386657D01*
X46700000Y-15386657D02*
X46728571Y-15415228D01*
X46728571Y-15415228D02*
X46757143Y-15472371D01*
X46757143Y-15472371D02*
X46757143Y-15558085D01*
X46757143Y-15558085D02*
X46728571Y-15615228D01*
X46728571Y-15615228D02*
X46700000Y-15643800D01*
X46700000Y-15643800D02*
X46642857Y-15672371D01*
X46642857Y-15672371D02*
X46414286Y-15672371D01*
X46414286Y-15672371D02*
X46414286Y-15072371D01*
X46414286Y-15072371D02*
X46614286Y-15072371D01*
X46614286Y-15072371D02*
X46671429Y-15100942D01*
X46671429Y-15100942D02*
X46700000Y-15129514D01*
X46700000Y-15129514D02*
X46728571Y-15186657D01*
X46728571Y-15186657D02*
X46728571Y-15243800D01*
X46728571Y-15243800D02*
X46700000Y-15300942D01*
X46700000Y-15300942D02*
X46671429Y-15329514D01*
X46671429Y-15329514D02*
X46614286Y-15358085D01*
X46614286Y-15358085D02*
X46414286Y-15358085D01*
X47271429Y-15272371D02*
X47271429Y-15672371D01*
X47128571Y-15043800D02*
X46985714Y-15472371D01*
X46985714Y-15472371D02*
X47357143Y-15472371D01*
X7928571Y-17872371D02*
X7642857Y-17872371D01*
X7642857Y-17872371D02*
X7642857Y-17272371D01*
X8128571Y-17558085D02*
X8328571Y-17558085D01*
X8414285Y-17872371D02*
X8128571Y-17872371D01*
X8128571Y-17872371D02*
X8128571Y-17272371D01*
X8128571Y-17272371D02*
X8414285Y-17272371D01*
X8671428Y-17872371D02*
X8671428Y-17272371D01*
X8671428Y-17272371D02*
X8814285Y-17272371D01*
X8814285Y-17272371D02*
X8899999Y-17300942D01*
X8899999Y-17300942D02*
X8957142Y-17358085D01*
X8957142Y-17358085D02*
X8985713Y-17415228D01*
X8985713Y-17415228D02*
X9014285Y-17529514D01*
X9014285Y-17529514D02*
X9014285Y-17615228D01*
X9014285Y-17615228D02*
X8985713Y-17729514D01*
X8985713Y-17729514D02*
X8957142Y-17786657D01*
X8957142Y-17786657D02*
X8899999Y-17843800D01*
X8899999Y-17843800D02*
X8814285Y-17872371D01*
X8814285Y-17872371D02*
X8671428Y-17872371D01*
X9585713Y-17872371D02*
X9242856Y-17872371D01*
X9414285Y-17872371D02*
X9414285Y-17272371D01*
X9414285Y-17272371D02*
X9357142Y-17358085D01*
X9357142Y-17358085D02*
X9299999Y-17415228D01*
X9299999Y-17415228D02*
X9242856Y-17443800D01*
X29700000Y-13472371D02*
X29500000Y-13186657D01*
X29357143Y-13472371D02*
X29357143Y-12872371D01*
X29357143Y-12872371D02*
X29585714Y-12872371D01*
X29585714Y-12872371D02*
X29642857Y-12900942D01*
X29642857Y-12900942D02*
X29671428Y-12929514D01*
X29671428Y-12929514D02*
X29700000Y-12986657D01*
X29700000Y-12986657D02*
X29700000Y-13072371D01*
X29700000Y-13072371D02*
X29671428Y-13129514D01*
X29671428Y-13129514D02*
X29642857Y-13158085D01*
X29642857Y-13158085D02*
X29585714Y-13186657D01*
X29585714Y-13186657D02*
X29357143Y-13186657D01*
X30242857Y-12872371D02*
X29957143Y-12872371D01*
X29957143Y-12872371D02*
X29928571Y-13158085D01*
X29928571Y-13158085D02*
X29957143Y-13129514D01*
X29957143Y-13129514D02*
X30014286Y-13100942D01*
X30014286Y-13100942D02*
X30157143Y-13100942D01*
X30157143Y-13100942D02*
X30214286Y-13129514D01*
X30214286Y-13129514D02*
X30242857Y-13158085D01*
X30242857Y-13158085D02*
X30271428Y-13215228D01*
X30271428Y-13215228D02*
X30271428Y-13358085D01*
X30271428Y-13358085D02*
X30242857Y-13415228D01*
X30242857Y-13415228D02*
X30214286Y-13443800D01*
X30214286Y-13443800D02*
X30157143Y-13472371D01*
X30157143Y-13472371D02*
X30014286Y-13472371D01*
X30014286Y-13472371D02*
X29957143Y-13443800D01*
X29957143Y-13443800D02*
X29928571Y-13415228D01*
D13*
X37685714Y-14632295D02*
X37419047Y-14251342D01*
X37228571Y-14632295D02*
X37228571Y-13832295D01*
X37228571Y-13832295D02*
X37533333Y-13832295D01*
X37533333Y-13832295D02*
X37609523Y-13870390D01*
X37609523Y-13870390D02*
X37647618Y-13908485D01*
X37647618Y-13908485D02*
X37685714Y-13984676D01*
X37685714Y-13984676D02*
X37685714Y-14098961D01*
X37685714Y-14098961D02*
X37647618Y-14175152D01*
X37647618Y-14175152D02*
X37609523Y-14213247D01*
X37609523Y-14213247D02*
X37533333Y-14251342D01*
X37533333Y-14251342D02*
X37228571Y-14251342D01*
X37952380Y-13832295D02*
X38447618Y-13832295D01*
X38447618Y-13832295D02*
X38180952Y-14137057D01*
X38180952Y-14137057D02*
X38295237Y-14137057D01*
X38295237Y-14137057D02*
X38371428Y-14175152D01*
X38371428Y-14175152D02*
X38409523Y-14213247D01*
X38409523Y-14213247D02*
X38447618Y-14289438D01*
X38447618Y-14289438D02*
X38447618Y-14479914D01*
X38447618Y-14479914D02*
X38409523Y-14556104D01*
X38409523Y-14556104D02*
X38371428Y-14594200D01*
X38371428Y-14594200D02*
X38295237Y-14632295D01*
X38295237Y-14632295D02*
X38066666Y-14632295D01*
X38066666Y-14632295D02*
X37990475Y-14594200D01*
X37990475Y-14594200D02*
X37952380Y-14556104D01*
X38942857Y-13832295D02*
X39019047Y-13832295D01*
X39019047Y-13832295D02*
X39095238Y-13870390D01*
X39095238Y-13870390D02*
X39133333Y-13908485D01*
X39133333Y-13908485D02*
X39171428Y-13984676D01*
X39171428Y-13984676D02*
X39209523Y-14137057D01*
X39209523Y-14137057D02*
X39209523Y-14327533D01*
X39209523Y-14327533D02*
X39171428Y-14479914D01*
X39171428Y-14479914D02*
X39133333Y-14556104D01*
X39133333Y-14556104D02*
X39095238Y-14594200D01*
X39095238Y-14594200D02*
X39019047Y-14632295D01*
X39019047Y-14632295D02*
X38942857Y-14632295D01*
X38942857Y-14632295D02*
X38866666Y-14594200D01*
X38866666Y-14594200D02*
X38828571Y-14556104D01*
X38828571Y-14556104D02*
X38790476Y-14479914D01*
X38790476Y-14479914D02*
X38752380Y-14327533D01*
X38752380Y-14327533D02*
X38752380Y-14137057D01*
X38752380Y-14137057D02*
X38790476Y-13984676D01*
X38790476Y-13984676D02*
X38828571Y-13908485D01*
X38828571Y-13908485D02*
X38866666Y-13870390D01*
X38866666Y-13870390D02*
X38942857Y-13832295D01*
D14*
X46500000Y-6672371D02*
X46214286Y-6672371D01*
X46214286Y-6672371D02*
X46214286Y-6072371D01*
X47014285Y-6672371D02*
X46671428Y-6672371D01*
X46842857Y-6672371D02*
X46842857Y-6072371D01*
X46842857Y-6072371D02*
X46785714Y-6158085D01*
X46785714Y-6158085D02*
X46728571Y-6215228D01*
X46728571Y-6215228D02*
X46671428Y-6243800D01*
X21542857Y-6672371D02*
X21542857Y-7158085D01*
X21542857Y-7158085D02*
X21571428Y-7215228D01*
X21571428Y-7215228D02*
X21600000Y-7243800D01*
X21600000Y-7243800D02*
X21657142Y-7272371D01*
X21657142Y-7272371D02*
X21771428Y-7272371D01*
X21771428Y-7272371D02*
X21828571Y-7243800D01*
X21828571Y-7243800D02*
X21857142Y-7215228D01*
X21857142Y-7215228D02*
X21885714Y-7158085D01*
X21885714Y-7158085D02*
X21885714Y-6672371D01*
X22114285Y-6672371D02*
X22485713Y-6672371D01*
X22485713Y-6672371D02*
X22285713Y-6900942D01*
X22285713Y-6900942D02*
X22371428Y-6900942D01*
X22371428Y-6900942D02*
X22428571Y-6929514D01*
X22428571Y-6929514D02*
X22457142Y-6958085D01*
X22457142Y-6958085D02*
X22485713Y-7015228D01*
X22485713Y-7015228D02*
X22485713Y-7158085D01*
X22485713Y-7158085D02*
X22457142Y-7215228D01*
X22457142Y-7215228D02*
X22428571Y-7243800D01*
X22428571Y-7243800D02*
X22371428Y-7272371D01*
X22371428Y-7272371D02*
X22199999Y-7272371D01*
X22199999Y-7272371D02*
X22142856Y-7243800D01*
X22142856Y-7243800D02*
X22114285Y-7215228D01*
D13*
X19385714Y-5562295D02*
X19119047Y-5181342D01*
X18928571Y-5562295D02*
X18928571Y-4762295D01*
X18928571Y-4762295D02*
X19233333Y-4762295D01*
X19233333Y-4762295D02*
X19309523Y-4800390D01*
X19309523Y-4800390D02*
X19347618Y-4838485D01*
X19347618Y-4838485D02*
X19385714Y-4914676D01*
X19385714Y-4914676D02*
X19385714Y-5028961D01*
X19385714Y-5028961D02*
X19347618Y-5105152D01*
X19347618Y-5105152D02*
X19309523Y-5143247D01*
X19309523Y-5143247D02*
X19233333Y-5181342D01*
X19233333Y-5181342D02*
X18928571Y-5181342D01*
X19652380Y-4762295D02*
X20147618Y-4762295D01*
X20147618Y-4762295D02*
X19880952Y-5067057D01*
X19880952Y-5067057D02*
X19995237Y-5067057D01*
X19995237Y-5067057D02*
X20071428Y-5105152D01*
X20071428Y-5105152D02*
X20109523Y-5143247D01*
X20109523Y-5143247D02*
X20147618Y-5219438D01*
X20147618Y-5219438D02*
X20147618Y-5409914D01*
X20147618Y-5409914D02*
X20109523Y-5486104D01*
X20109523Y-5486104D02*
X20071428Y-5524200D01*
X20071428Y-5524200D02*
X19995237Y-5562295D01*
X19995237Y-5562295D02*
X19766666Y-5562295D01*
X19766666Y-5562295D02*
X19690475Y-5524200D01*
X19690475Y-5524200D02*
X19652380Y-5486104D01*
X20909523Y-5562295D02*
X20452380Y-5562295D01*
X20680952Y-5562295D02*
X20680952Y-4762295D01*
X20680952Y-4762295D02*
X20604761Y-4876580D01*
X20604761Y-4876580D02*
X20528571Y-4952771D01*
X20528571Y-4952771D02*
X20452380Y-4990866D01*
X21890476Y-2362295D02*
X22347619Y-2362295D01*
X22119047Y-3162295D02*
X22119047Y-2362295D01*
X22614286Y-3162295D02*
X22614286Y-2362295D01*
X22614286Y-2362295D02*
X22919048Y-2362295D01*
X22919048Y-2362295D02*
X22995238Y-2400390D01*
X22995238Y-2400390D02*
X23033333Y-2438485D01*
X23033333Y-2438485D02*
X23071429Y-2514676D01*
X23071429Y-2514676D02*
X23071429Y-2628961D01*
X23071429Y-2628961D02*
X23033333Y-2705152D01*
X23033333Y-2705152D02*
X22995238Y-2743247D01*
X22995238Y-2743247D02*
X22919048Y-2781342D01*
X22919048Y-2781342D02*
X22614286Y-2781342D01*
X23338095Y-2362295D02*
X23833333Y-2362295D01*
X23833333Y-2362295D02*
X23566667Y-2667057D01*
X23566667Y-2667057D02*
X23680952Y-2667057D01*
X23680952Y-2667057D02*
X23757143Y-2705152D01*
X23757143Y-2705152D02*
X23795238Y-2743247D01*
X23795238Y-2743247D02*
X23833333Y-2819438D01*
X23833333Y-2819438D02*
X23833333Y-3009914D01*
X23833333Y-3009914D02*
X23795238Y-3086104D01*
X23795238Y-3086104D02*
X23757143Y-3124200D01*
X23757143Y-3124200D02*
X23680952Y-3162295D01*
X23680952Y-3162295D02*
X23452381Y-3162295D01*
X23452381Y-3162295D02*
X23376190Y-3124200D01*
X23376190Y-3124200D02*
X23338095Y-3086104D01*
D14*
X12064285Y-17202371D02*
X11864285Y-16916657D01*
X11721428Y-17202371D02*
X11721428Y-16602371D01*
X11721428Y-16602371D02*
X11949999Y-16602371D01*
X11949999Y-16602371D02*
X12007142Y-16630942D01*
X12007142Y-16630942D02*
X12035713Y-16659514D01*
X12035713Y-16659514D02*
X12064285Y-16716657D01*
X12064285Y-16716657D02*
X12064285Y-16802371D01*
X12064285Y-16802371D02*
X12035713Y-16859514D01*
X12035713Y-16859514D02*
X12007142Y-16888085D01*
X12007142Y-16888085D02*
X11949999Y-16916657D01*
X11949999Y-16916657D02*
X11721428Y-16916657D01*
X12292856Y-16659514D02*
X12321428Y-16630942D01*
X12321428Y-16630942D02*
X12378571Y-16602371D01*
X12378571Y-16602371D02*
X12521428Y-16602371D01*
X12521428Y-16602371D02*
X12578571Y-16630942D01*
X12578571Y-16630942D02*
X12607142Y-16659514D01*
X12607142Y-16659514D02*
X12635713Y-16716657D01*
X12635713Y-16716657D02*
X12635713Y-16773800D01*
X12635713Y-16773800D02*
X12607142Y-16859514D01*
X12607142Y-16859514D02*
X12264285Y-17202371D01*
X12264285Y-17202371D02*
X12635713Y-17202371D01*
X12921428Y-17202371D02*
X13035714Y-17202371D01*
X13035714Y-17202371D02*
X13092857Y-17173800D01*
X13092857Y-17173800D02*
X13121428Y-17145228D01*
X13121428Y-17145228D02*
X13178571Y-17059514D01*
X13178571Y-17059514D02*
X13207142Y-16945228D01*
X13207142Y-16945228D02*
X13207142Y-16716657D01*
X13207142Y-16716657D02*
X13178571Y-16659514D01*
X13178571Y-16659514D02*
X13150000Y-16630942D01*
X13150000Y-16630942D02*
X13092857Y-16602371D01*
X13092857Y-16602371D02*
X12978571Y-16602371D01*
X12978571Y-16602371D02*
X12921428Y-16630942D01*
X12921428Y-16630942D02*
X12892857Y-16659514D01*
X12892857Y-16659514D02*
X12864285Y-16716657D01*
X12864285Y-16716657D02*
X12864285Y-16859514D01*
X12864285Y-16859514D02*
X12892857Y-16916657D01*
X12892857Y-16916657D02*
X12921428Y-16945228D01*
X12921428Y-16945228D02*
X12978571Y-16973800D01*
X12978571Y-16973800D02*
X13092857Y-16973800D01*
X13092857Y-16973800D02*
X13150000Y-16945228D01*
X13150000Y-16945228D02*
X13178571Y-16916657D01*
X13178571Y-16916657D02*
X13207142Y-16859514D01*
X42142857Y-5072371D02*
X42142857Y-5558085D01*
X42142857Y-5558085D02*
X42171428Y-5615228D01*
X42171428Y-5615228D02*
X42200000Y-5643800D01*
X42200000Y-5643800D02*
X42257142Y-5672371D01*
X42257142Y-5672371D02*
X42371428Y-5672371D01*
X42371428Y-5672371D02*
X42428571Y-5643800D01*
X42428571Y-5643800D02*
X42457142Y-5615228D01*
X42457142Y-5615228D02*
X42485714Y-5558085D01*
X42485714Y-5558085D02*
X42485714Y-5072371D01*
X43028571Y-5072371D02*
X42914285Y-5072371D01*
X42914285Y-5072371D02*
X42857142Y-5100942D01*
X42857142Y-5100942D02*
X42828571Y-5129514D01*
X42828571Y-5129514D02*
X42771428Y-5215228D01*
X42771428Y-5215228D02*
X42742856Y-5329514D01*
X42742856Y-5329514D02*
X42742856Y-5558085D01*
X42742856Y-5558085D02*
X42771428Y-5615228D01*
X42771428Y-5615228D02*
X42799999Y-5643800D01*
X42799999Y-5643800D02*
X42857142Y-5672371D01*
X42857142Y-5672371D02*
X42971428Y-5672371D01*
X42971428Y-5672371D02*
X43028571Y-5643800D01*
X43028571Y-5643800D02*
X43057142Y-5615228D01*
X43057142Y-5615228D02*
X43085713Y-5558085D01*
X43085713Y-5558085D02*
X43085713Y-5415228D01*
X43085713Y-5415228D02*
X43057142Y-5358085D01*
X43057142Y-5358085D02*
X43028571Y-5329514D01*
X43028571Y-5329514D02*
X42971428Y-5300942D01*
X42971428Y-5300942D02*
X42857142Y-5300942D01*
X42857142Y-5300942D02*
X42799999Y-5329514D01*
X42799999Y-5329514D02*
X42771428Y-5358085D01*
X42771428Y-5358085D02*
X42742856Y-5415228D01*
X42315228Y-5095714D02*
X42343800Y-5124286D01*
X42343800Y-5124286D02*
X42372371Y-5210000D01*
X42372371Y-5210000D02*
X42372371Y-5267143D01*
X42372371Y-5267143D02*
X42343800Y-5352857D01*
X42343800Y-5352857D02*
X42286657Y-5410000D01*
X42286657Y-5410000D02*
X42229514Y-5438571D01*
X42229514Y-5438571D02*
X42115228Y-5467143D01*
X42115228Y-5467143D02*
X42029514Y-5467143D01*
X42029514Y-5467143D02*
X41915228Y-5438571D01*
X41915228Y-5438571D02*
X41858085Y-5410000D01*
X41858085Y-5410000D02*
X41800942Y-5352857D01*
X41800942Y-5352857D02*
X41772371Y-5267143D01*
X41772371Y-5267143D02*
X41772371Y-5210000D01*
X41772371Y-5210000D02*
X41800942Y-5124286D01*
X41800942Y-5124286D02*
X41829514Y-5095714D01*
X42372371Y-4524286D02*
X42372371Y-4867143D01*
X42372371Y-4695714D02*
X41772371Y-4695714D01*
X41772371Y-4695714D02*
X41858085Y-4752857D01*
X41858085Y-4752857D02*
X41915228Y-4810000D01*
X41915228Y-4810000D02*
X41943800Y-4867143D01*
X42372371Y-3952857D02*
X42372371Y-4295714D01*
X42372371Y-4124285D02*
X41772371Y-4124285D01*
X41772371Y-4124285D02*
X41858085Y-4181428D01*
X41858085Y-4181428D02*
X41915228Y-4238571D01*
X41915228Y-4238571D02*
X41943800Y-4295714D01*
X26742857Y-7329514D02*
X26685714Y-7300942D01*
X26685714Y-7300942D02*
X26628571Y-7243800D01*
X26628571Y-7243800D02*
X26542857Y-7158085D01*
X26542857Y-7158085D02*
X26485714Y-7129514D01*
X26485714Y-7129514D02*
X26428571Y-7129514D01*
X26457142Y-7272371D02*
X26400000Y-7243800D01*
X26400000Y-7243800D02*
X26342857Y-7186657D01*
X26342857Y-7186657D02*
X26314285Y-7072371D01*
X26314285Y-7072371D02*
X26314285Y-6872371D01*
X26314285Y-6872371D02*
X26342857Y-6758085D01*
X26342857Y-6758085D02*
X26400000Y-6700942D01*
X26400000Y-6700942D02*
X26457142Y-6672371D01*
X26457142Y-6672371D02*
X26571428Y-6672371D01*
X26571428Y-6672371D02*
X26628571Y-6700942D01*
X26628571Y-6700942D02*
X26685714Y-6758085D01*
X26685714Y-6758085D02*
X26714285Y-6872371D01*
X26714285Y-6872371D02*
X26714285Y-7072371D01*
X26714285Y-7072371D02*
X26685714Y-7186657D01*
X26685714Y-7186657D02*
X26628571Y-7243800D01*
X26628571Y-7243800D02*
X26571428Y-7272371D01*
X26571428Y-7272371D02*
X26457142Y-7272371D01*
X27285713Y-7272371D02*
X26942856Y-7272371D01*
X27114285Y-7272371D02*
X27114285Y-6672371D01*
X27114285Y-6672371D02*
X27057142Y-6758085D01*
X27057142Y-6758085D02*
X26999999Y-6815228D01*
X26999999Y-6815228D02*
X26942856Y-6843800D01*
D13*
X17490476Y-2362295D02*
X17947619Y-2362295D01*
X17719047Y-3162295D02*
X17719047Y-2362295D01*
X18214286Y-3162295D02*
X18214286Y-2362295D01*
X18214286Y-2362295D02*
X18519048Y-2362295D01*
X18519048Y-2362295D02*
X18595238Y-2400390D01*
X18595238Y-2400390D02*
X18633333Y-2438485D01*
X18633333Y-2438485D02*
X18671429Y-2514676D01*
X18671429Y-2514676D02*
X18671429Y-2628961D01*
X18671429Y-2628961D02*
X18633333Y-2705152D01*
X18633333Y-2705152D02*
X18595238Y-2743247D01*
X18595238Y-2743247D02*
X18519048Y-2781342D01*
X18519048Y-2781342D02*
X18214286Y-2781342D01*
X19433333Y-3162295D02*
X18976190Y-3162295D01*
X19204762Y-3162295D02*
X19204762Y-2362295D01*
X19204762Y-2362295D02*
X19128571Y-2476580D01*
X19128571Y-2476580D02*
X19052381Y-2552771D01*
X19052381Y-2552771D02*
X18976190Y-2590866D01*
D14*
X42942857Y-15329514D02*
X42885714Y-15300942D01*
X42885714Y-15300942D02*
X42828571Y-15243800D01*
X42828571Y-15243800D02*
X42742857Y-15158085D01*
X42742857Y-15158085D02*
X42685714Y-15129514D01*
X42685714Y-15129514D02*
X42628571Y-15129514D01*
X42657142Y-15272371D02*
X42600000Y-15243800D01*
X42600000Y-15243800D02*
X42542857Y-15186657D01*
X42542857Y-15186657D02*
X42514285Y-15072371D01*
X42514285Y-15072371D02*
X42514285Y-14872371D01*
X42514285Y-14872371D02*
X42542857Y-14758085D01*
X42542857Y-14758085D02*
X42600000Y-14700942D01*
X42600000Y-14700942D02*
X42657142Y-14672371D01*
X42657142Y-14672371D02*
X42771428Y-14672371D01*
X42771428Y-14672371D02*
X42828571Y-14700942D01*
X42828571Y-14700942D02*
X42885714Y-14758085D01*
X42885714Y-14758085D02*
X42914285Y-14872371D01*
X42914285Y-14872371D02*
X42914285Y-15072371D01*
X42914285Y-15072371D02*
X42885714Y-15186657D01*
X42885714Y-15186657D02*
X42828571Y-15243800D01*
X42828571Y-15243800D02*
X42771428Y-15272371D01*
X42771428Y-15272371D02*
X42657142Y-15272371D01*
X43457142Y-14672371D02*
X43171428Y-14672371D01*
X43171428Y-14672371D02*
X43142856Y-14958085D01*
X43142856Y-14958085D02*
X43171428Y-14929514D01*
X43171428Y-14929514D02*
X43228571Y-14900942D01*
X43228571Y-14900942D02*
X43371428Y-14900942D01*
X43371428Y-14900942D02*
X43428571Y-14929514D01*
X43428571Y-14929514D02*
X43457142Y-14958085D01*
X43457142Y-14958085D02*
X43485713Y-15015228D01*
X43485713Y-15015228D02*
X43485713Y-15158085D01*
X43485713Y-15158085D02*
X43457142Y-15215228D01*
X43457142Y-15215228D02*
X43428571Y-15243800D01*
X43428571Y-15243800D02*
X43371428Y-15272371D01*
X43371428Y-15272371D02*
X43228571Y-15272371D01*
X43228571Y-15272371D02*
X43171428Y-15243800D01*
X43171428Y-15243800D02*
X43142856Y-15215228D01*
X4199999Y-9832371D02*
X4199999Y-10260942D01*
X4199999Y-10260942D02*
X4171428Y-10346657D01*
X4171428Y-10346657D02*
X4114285Y-10403800D01*
X4114285Y-10403800D02*
X4028571Y-10432371D01*
X4028571Y-10432371D02*
X3971428Y-10432371D01*
X4799999Y-10432371D02*
X4457142Y-10432371D01*
X4628571Y-10432371D02*
X4628571Y-9832371D01*
X4628571Y-9832371D02*
X4571428Y-9918085D01*
X4571428Y-9918085D02*
X4514285Y-9975228D01*
X4514285Y-9975228D02*
X4457142Y-10003800D01*
X14042857Y-7172371D02*
X14042857Y-7658085D01*
X14042857Y-7658085D02*
X14071428Y-7715228D01*
X14071428Y-7715228D02*
X14100000Y-7743800D01*
X14100000Y-7743800D02*
X14157142Y-7772371D01*
X14157142Y-7772371D02*
X14271428Y-7772371D01*
X14271428Y-7772371D02*
X14328571Y-7743800D01*
X14328571Y-7743800D02*
X14357142Y-7715228D01*
X14357142Y-7715228D02*
X14385714Y-7658085D01*
X14385714Y-7658085D02*
X14385714Y-7172371D01*
X14642856Y-7229514D02*
X14671428Y-7200942D01*
X14671428Y-7200942D02*
X14728571Y-7172371D01*
X14728571Y-7172371D02*
X14871428Y-7172371D01*
X14871428Y-7172371D02*
X14928571Y-7200942D01*
X14928571Y-7200942D02*
X14957142Y-7229514D01*
X14957142Y-7229514D02*
X14985713Y-7286657D01*
X14985713Y-7286657D02*
X14985713Y-7343800D01*
X14985713Y-7343800D02*
X14957142Y-7429514D01*
X14957142Y-7429514D02*
X14614285Y-7772371D01*
X14614285Y-7772371D02*
X14985713Y-7772371D01*
D13*
X19690476Y-2362295D02*
X20147619Y-2362295D01*
X19919047Y-3162295D02*
X19919047Y-2362295D01*
X20414286Y-3162295D02*
X20414286Y-2362295D01*
X20414286Y-2362295D02*
X20719048Y-2362295D01*
X20719048Y-2362295D02*
X20795238Y-2400390D01*
X20795238Y-2400390D02*
X20833333Y-2438485D01*
X20833333Y-2438485D02*
X20871429Y-2514676D01*
X20871429Y-2514676D02*
X20871429Y-2628961D01*
X20871429Y-2628961D02*
X20833333Y-2705152D01*
X20833333Y-2705152D02*
X20795238Y-2743247D01*
X20795238Y-2743247D02*
X20719048Y-2781342D01*
X20719048Y-2781342D02*
X20414286Y-2781342D01*
X21176190Y-2438485D02*
X21214286Y-2400390D01*
X21214286Y-2400390D02*
X21290476Y-2362295D01*
X21290476Y-2362295D02*
X21480952Y-2362295D01*
X21480952Y-2362295D02*
X21557143Y-2400390D01*
X21557143Y-2400390D02*
X21595238Y-2438485D01*
X21595238Y-2438485D02*
X21633333Y-2514676D01*
X21633333Y-2514676D02*
X21633333Y-2590866D01*
X21633333Y-2590866D02*
X21595238Y-2705152D01*
X21595238Y-2705152D02*
X21138095Y-3162295D01*
X21138095Y-3162295D02*
X21633333Y-3162295D01*
D15*
%TO.C,R33*%
X22762742Y-3177500D02*
X23237258Y-3177500D01*
X22762742Y-4222500D02*
X23237258Y-4222500D01*
%TO.C,J4*%
X43670000Y-3230000D02*
X43670000Y-1900000D01*
X45000000Y-3230000D02*
X43670000Y-3230000D01*
X46270000Y-570000D02*
X53950000Y-570000D01*
X46270000Y-3230000D02*
X46270000Y-570000D01*
X46270000Y-3230000D02*
X53950000Y-3230000D01*
X53950000Y-3230000D02*
X53950000Y-570000D01*
%TO.C,R32*%
X27512742Y-877500D02*
X27987258Y-877500D01*
X27512742Y-1922500D02*
X27987258Y-1922500D01*
%TO.C,J2*%
X51840000Y-6140000D02*
X51840000Y-7060000D01*
X51840000Y-7060000D02*
X53440000Y-7060000D01*
X51840000Y-11340000D02*
X51840000Y-12260000D01*
X51840000Y-12260000D02*
X59660000Y-12260000D01*
X53440000Y-6140000D02*
X53440000Y-7060000D01*
X53440000Y-7060000D02*
X53440000Y-7340000D01*
X53440000Y-11060000D02*
X52225000Y-11060000D01*
X53440000Y-11060000D02*
X53440000Y-11340000D01*
X53440000Y-11340000D02*
X51840000Y-11340000D01*
X53440000Y-12260000D02*
X53440000Y-11340000D01*
X55300000Y-8700000D02*
X59660000Y-8700000D01*
X55300000Y-9700000D02*
X55300000Y-8700000D01*
X55800000Y-6900000D02*
X57400000Y-6900000D01*
X55800000Y-7900000D02*
X55800000Y-6900000D01*
X55800000Y-10500000D02*
X55800000Y-11500000D01*
X55800000Y-11500000D02*
X57400000Y-11500000D01*
X57400000Y-6900000D02*
X57400000Y-7900000D01*
X57400000Y-7900000D02*
X55800000Y-7900000D01*
X57400000Y-10500000D02*
X55800000Y-10500000D01*
X57400000Y-10500000D02*
X59660000Y-10500000D01*
X57400000Y-11000000D02*
X59660000Y-11000000D01*
X57400000Y-11500000D02*
X57400000Y-10500000D01*
X59660000Y-6140000D02*
X51840000Y-6140000D01*
X59660000Y-9700000D02*
X55300000Y-9700000D01*
X59660000Y-12260000D02*
X59660000Y-6140000D01*
%TO.C,D3*%
X18190000Y-11050000D02*
X18190000Y-14350000D01*
X18190000Y-11050000D02*
X23700000Y-11050000D01*
X18190000Y-14350000D02*
X23700000Y-14350000D01*
%TO.C,TP5*%
X44200000Y-18500000D02*
G75*
G02*
X42800000Y-18500000I-700000J0D01*
G01*
X42800000Y-18500000D02*
G75*
G02*
X44200000Y-18500000I700000J0D01*
G01*
%TO.C,D5*%
X29890000Y-250000D02*
X29890000Y-3550000D01*
X29890000Y-250000D02*
X35400000Y-250000D01*
X29890000Y-3550000D02*
X35400000Y-3550000D01*
%TO.C,J7*%
X14670000Y-19730000D02*
X14670000Y-18400000D01*
X16000000Y-19730000D02*
X14670000Y-19730000D01*
X17270000Y-17070000D02*
X40190000Y-17070000D01*
X17270000Y-19730000D02*
X17270000Y-17070000D01*
X17270000Y-19730000D02*
X40190000Y-19730000D01*
X40190000Y-19730000D02*
X40190000Y-17070000D01*
%TO.C,TP4*%
X40400000Y-10200000D02*
G75*
G02*
X39000000Y-10200000I-700000J0D01*
G01*
X39000000Y-10200000D02*
G75*
G02*
X40400000Y-10200000I700000J0D01*
G01*
%TO.C,D2*%
X10790000Y-11050000D02*
X10790000Y-14350000D01*
X10790000Y-11050000D02*
X16300000Y-11050000D01*
X10790000Y-14350000D02*
X16300000Y-14350000D01*
%TO.C,U4*%
X37200000Y-11590000D02*
X35700000Y-11590000D01*
X37200000Y-11590000D02*
X38700000Y-11590000D01*
X37200000Y-14810000D02*
X35700000Y-14810000D01*
X37200000Y-14810000D02*
X38700000Y-14810000D01*
X34987500Y-11790000D02*
X34747500Y-11460000D01*
X35227500Y-11460000D01*
X34987500Y-11790000D01*
G36*
X34987500Y-11790000D02*
G01*
X34747500Y-11460000D01*
X35227500Y-11460000D01*
X34987500Y-11790000D01*
G37*
%TO.C,C10*%
X39265000Y-7261252D02*
X39265000Y-6738748D01*
X40735000Y-7261252D02*
X40735000Y-6738748D01*
%TO.C,JP1*%
X25600000Y-2850000D02*
X28400000Y-2850000D01*
X25600000Y-4850000D02*
X25600000Y-2850000D01*
X28400000Y-2850000D02*
X28400000Y-4850000D01*
X28400000Y-4850000D02*
X25600000Y-4850000D01*
%TO.C,LED2*%
X10715000Y-16865000D02*
X10715000Y-18335000D01*
X10715000Y-18335000D02*
X13000000Y-18335000D01*
X13000000Y-16865000D02*
X10715000Y-16865000D01*
%TO.C,TP9*%
X25800000Y-1400000D02*
G75*
G02*
X24400000Y-1400000I-700000J0D01*
G01*
X24400000Y-1400000D02*
G75*
G02*
X25800000Y-1400000I700000J0D01*
G01*
%TO.C,R28*%
X15837258Y-14977500D02*
X15362742Y-14977500D01*
X15837258Y-16022500D02*
X15362742Y-16022500D01*
%TO.C,Q3*%
X43000000Y-9240000D02*
X42350000Y-9240000D01*
X43000000Y-9240000D02*
X43650000Y-9240000D01*
X43000000Y-12360000D02*
X42350000Y-12360000D01*
X43000000Y-12360000D02*
X43650000Y-12360000D01*
X41837500Y-9290000D02*
X41597500Y-8960000D01*
X42077500Y-8960000D01*
X41837500Y-9290000D01*
G36*
X41837500Y-9290000D02*
G01*
X41597500Y-8960000D01*
X42077500Y-8960000D01*
X41837500Y-9290000D01*
G37*
%TO.C,TP11*%
X51500000Y-17300000D02*
G75*
G02*
X50100000Y-17300000I-700000J0D01*
G01*
X50100000Y-17300000D02*
G75*
G02*
X51500000Y-17300000I700000J0D01*
G01*
%TO.C,FB3*%
X46040000Y-11799622D02*
X46040000Y-11000378D01*
X47160000Y-11799622D02*
X47160000Y-11000378D01*
%TO.C,J3*%
X11670000Y-3130000D02*
X11670000Y-1800000D01*
X13000000Y-3130000D02*
X11670000Y-3130000D01*
X14270000Y-470000D02*
X16870000Y-470000D01*
X14270000Y-3130000D02*
X14270000Y-470000D01*
X14270000Y-3130000D02*
X16870000Y-3130000D01*
X16870000Y-3130000D02*
X16870000Y-470000D01*
%TO.C,Q2*%
X33000000Y-4240000D02*
X31050000Y-4240000D01*
X33000000Y-4240000D02*
X34950000Y-4240000D01*
X33000000Y-9360000D02*
X31050000Y-9360000D01*
X33000000Y-9360000D02*
X34950000Y-9360000D01*
X30300000Y-4335000D02*
X30060000Y-4005000D01*
X30540000Y-4005000D01*
X30300000Y-4335000D01*
G36*
X30300000Y-4335000D02*
G01*
X30060000Y-4005000D01*
X30540000Y-4005000D01*
X30300000Y-4335000D01*
G37*
%TO.C,FB4*%
X46040000Y-15799622D02*
X46040000Y-15000378D01*
X47160000Y-15799622D02*
X47160000Y-15000378D01*
%TO.C,LED1*%
X7115000Y-16865000D02*
X7115000Y-18335000D01*
X7115000Y-18335000D02*
X9400000Y-18335000D01*
X9400000Y-16865000D02*
X7115000Y-16865000D01*
%TO.C,R5*%
X27622936Y-11490000D02*
X31977064Y-11490000D01*
X27622936Y-14910000D02*
X31977064Y-14910000D01*
%TO.C,R30*%
X37962742Y-15247500D02*
X38437258Y-15247500D01*
X37962742Y-16292500D02*
X38437258Y-16292500D01*
%TO.C,L1*%
X44340000Y-4140000D02*
X44340000Y-4290000D01*
X44340000Y-4140000D02*
X48860000Y-4140000D01*
X44340000Y-8660000D02*
X44340000Y-8510000D01*
X44340000Y-8660000D02*
X48860000Y-8660000D01*
X48860000Y-4140000D02*
X48860000Y-4290000D01*
X48860000Y-8660000D02*
X48860000Y-8510000D01*
%TO.C,U3*%
X22000000Y-5440000D02*
X21200000Y-5440000D01*
X22000000Y-5440000D02*
X22800000Y-5440000D01*
X22000000Y-8560000D02*
X21200000Y-8560000D01*
X22000000Y-8560000D02*
X22800000Y-8560000D01*
X20700000Y-5490000D02*
X20460000Y-5160000D01*
X20940000Y-5160000D01*
X20700000Y-5490000D01*
G36*
X20700000Y-5490000D02*
G01*
X20460000Y-5160000D01*
X20940000Y-5160000D01*
X20700000Y-5490000D01*
G37*
%TO.C,R31*%
X19662742Y-3177500D02*
X20137258Y-3177500D01*
X19662742Y-4222500D02*
X20137258Y-4222500D01*
%TO.C,TP3*%
X23600000Y-1400000D02*
G75*
G02*
X22200000Y-1400000I-700000J0D01*
G01*
X22200000Y-1400000D02*
G75*
G02*
X23600000Y-1400000I700000J0D01*
G01*
%TO.C,R29*%
X12687258Y-14977500D02*
X12212742Y-14977500D01*
X12687258Y-16022500D02*
X12212742Y-16022500D01*
%TO.C,U6*%
X41850000Y-4215000D02*
X43350000Y-4215000D01*
X41850000Y-6585000D02*
X43350000Y-6585000D01*
X41610000Y-4310000D02*
X41330000Y-4310000D01*
X41610000Y-4030000D01*
X41610000Y-4310000D01*
G36*
X41610000Y-4310000D02*
G01*
X41330000Y-4310000D01*
X41610000Y-4030000D01*
X41610000Y-4310000D01*
G37*
%TO.C,C11*%
X42207836Y-3190000D02*
X41992164Y-3190000D01*
X42207836Y-3910000D02*
X41992164Y-3910000D01*
%TO.C,Q1*%
X26800000Y-5440000D02*
X26000000Y-5440000D01*
X26800000Y-5440000D02*
X27600000Y-5440000D01*
X26800000Y-8560000D02*
X26000000Y-8560000D01*
X26800000Y-8560000D02*
X27600000Y-8560000D01*
X25500000Y-5490000D02*
X25260000Y-5160000D01*
X25740000Y-5160000D01*
X25500000Y-5490000D01*
G36*
X25500000Y-5490000D02*
G01*
X25260000Y-5160000D01*
X25740000Y-5160000D01*
X25500000Y-5490000D01*
G37*
%TO.C,TP1*%
X19200000Y-1400000D02*
G75*
G02*
X17800000Y-1400000I-700000J0D01*
G01*
X17800000Y-1400000D02*
G75*
G02*
X19200000Y-1400000I700000J0D01*
G01*
%TO.C,Q5*%
X43000000Y-13440000D02*
X42350000Y-13440000D01*
X43000000Y-13440000D02*
X43650000Y-13440000D01*
X43000000Y-16560000D02*
X42350000Y-16560000D01*
X43000000Y-16560000D02*
X43650000Y-16560000D01*
X41837500Y-13490000D02*
X41597500Y-13160000D01*
X42077500Y-13160000D01*
X41837500Y-13490000D01*
G36*
X41837500Y-13490000D02*
G01*
X41597500Y-13160000D01*
X42077500Y-13160000D01*
X41837500Y-13490000D01*
G37*
%TO.C,J1*%
X500000Y-5460000D02*
X500000Y-14860000D01*
X2400000Y-5460000D02*
X500000Y-5460000D01*
X2400000Y-14860000D02*
X500000Y-14860000D01*
X6300000Y-5460000D02*
X4300000Y-5460000D01*
X6300000Y-14860000D02*
X4300000Y-14860000D01*
%TO.C,U2*%
X14500000Y-4940000D02*
X12550000Y-4940000D01*
X14500000Y-4940000D02*
X16450000Y-4940000D01*
X14500000Y-10060000D02*
X12550000Y-10060000D01*
X14500000Y-10060000D02*
X16450000Y-10060000D01*
X11800000Y-5035000D02*
X11560000Y-4705000D01*
X12040000Y-4705000D01*
X11800000Y-5035000D01*
G36*
X11800000Y-5035000D02*
G01*
X11560000Y-4705000D01*
X12040000Y-4705000D01*
X11800000Y-5035000D01*
G37*
%TO.C,TP2*%
X21400000Y-1400000D02*
G75*
G02*
X20000000Y-1400000I-700000J0D01*
G01*
X20000000Y-1400000D02*
G75*
G02*
X21400000Y-1400000I700000J0D01*
G01*
%TD*%
M02*
