%TF.GenerationSoftware,KiCad,Pcbnew,9.0.9-9.0.9~ubuntu24.04.1*%
%TF.CreationDate,2026-08-02T14:39:42+02:00*%
%TF.ProjectId,power_kicad,706f7765-725f-46b6-9963-61642e6b6963,rev?*%
%TF.SameCoordinates,Original*%
%TF.FileFunction,Paste,Top*%
%TF.FilePolarity,Positive*%
%FSLAX46Y46*%
G04 Gerber Fmt 4.6, Leading zero omitted, Abs format (unit mm)*
G04 Created by KiCad (PCBNEW 9.0.9-9.0.9~ubuntu24.04.1) date 2026-08-02 14:39:42*
%MOMM*%
%LPD*%
G01*
G04 APERTURE LIST*
G04 Aperture macros list*
%AMRoundRect*
0 Rectangle with rounded corners*
0 $1 Rounding radius*
0 $2 $3 $4 $5 $6 $7 $8 $9 X,Y pos of 4 corners*
0 Add a 4 corners polygon primitive as box body*
4,1,4,$2,$3,$4,$5,$6,$7,$8,$9,$2,$3,0*
0 Add four circle primitives for the rounded corners*
1,1,$1+$1,$2,$3*
1,1,$1+$1,$4,$5*
1,1,$1+$1,$6,$7*
1,1,$1+$1,$8,$9*
0 Add four rect primitives between the rounded corners*
20,1,$1+$1,$2,$3,$4,$5,0*
20,1,$1+$1,$4,$5,$6,$7,0*
20,1,$1+$1,$6,$7,$8,$9,0*
20,1,$1+$1,$8,$9,$2,$3,0*%
G04 Aperture macros list end*
%ADD10RoundRect,0.200000X-0.200000X-0.275000X0.200000X-0.275000X0.200000X0.275000X-0.200000X0.275000X0*%
%ADD11RoundRect,0.250000X-1.000000X-0.650000X1.000000X-0.650000X1.000000X0.650000X-1.000000X0.650000X0*%
%ADD12RoundRect,0.075000X-0.650000X-0.075000X0.650000X-0.075000X0.650000X0.075000X-0.650000X0.075000X0*%
%ADD13RoundRect,0.250000X0.475000X-0.250000X0.475000X0.250000X-0.475000X0.250000X-0.475000X-0.250000X0*%
%ADD14RoundRect,0.218750X-0.218750X-0.256250X0.218750X-0.256250X0.218750X0.256250X-0.218750X0.256250X0*%
%ADD15RoundRect,0.200000X0.200000X0.275000X-0.200000X0.275000X-0.200000X-0.275000X0.200000X-0.275000X0*%
%ADD16RoundRect,0.150000X-0.587500X-0.150000X0.587500X-0.150000X0.587500X0.150000X-0.587500X0.150000X0*%
%ADD17RoundRect,0.218750X0.381250X-0.218750X0.381250X0.218750X-0.381250X0.218750X-0.381250X-0.218750X0*%
%ADD18RoundRect,0.150000X-0.825000X-0.150000X0.825000X-0.150000X0.825000X0.150000X-0.825000X0.150000X0*%
%ADD19RoundRect,0.250000X-0.362500X-1.425000X0.362500X-1.425000X0.362500X1.425000X-0.362500X1.425000X0*%
%ADD20R,1.100000X3.700000*%
%ADD21RoundRect,0.150000X-0.512500X-0.150000X0.512500X-0.150000X0.512500X0.150000X-0.512500X0.150000X0*%
%ADD22RoundRect,0.087500X-0.200000X-0.087500X0.200000X-0.087500X0.200000X0.087500X-0.200000X0.087500X0*%
%ADD23RoundRect,0.140000X0.170000X-0.140000X0.170000X0.140000X-0.170000X0.140000X-0.170000X-0.140000X0*%
%ADD24R,1.450000X0.600000*%
%ADD25R,1.450000X0.300000*%
%ADD26RoundRect,0.230000X-0.230000X-0.375000X0.230000X-0.375000X0.230000X0.375000X-0.230000X0.375000X0*%
G04 APERTURE END LIST*
D10*
%TO.C,R33*%
X22175000Y-3700000D03*
X23825000Y-3700000D03*
%TD*%
%TO.C,R32*%
X26925000Y-1400000D03*
X28575000Y-1400000D03*
%TD*%
D11*
%TO.C,D3*%
X19700000Y-12700000D03*
X23700000Y-12700000D03*
%TD*%
%TO.C,D5*%
X31400000Y-1900000D03*
X35400000Y-1900000D03*
%TD*%
%TO.C,D2*%
X12300000Y-12700000D03*
X16300000Y-12700000D03*
%TD*%
D12*
%TO.C,U4*%
X35000000Y-12200000D03*
X35000000Y-12700000D03*
X35000000Y-13200000D03*
X35000000Y-13700000D03*
X35000000Y-14200000D03*
X39400000Y-14200000D03*
X39400000Y-13700000D03*
X39400000Y-13200000D03*
X39400000Y-12700000D03*
X39400000Y-12200000D03*
%TD*%
D13*
%TO.C,C10*%
X40000000Y-7950000D03*
X40000000Y-6050000D03*
%TD*%
D14*
%TO.C,LED2*%
X11412500Y-17600000D03*
X12987500Y-17600000D03*
%TD*%
D15*
%TO.C,R28*%
X16425000Y-15500000D03*
X14775000Y-15500000D03*
%TD*%
D16*
%TO.C,Q3*%
X42062500Y-9850000D03*
X42062500Y-11750000D03*
X43937500Y-10800000D03*
%TD*%
D17*
%TO.C,FB3*%
X46600000Y-12462500D03*
X46600000Y-10337500D03*
%TD*%
D18*
%TO.C,Q2*%
X30525000Y-4895000D03*
X30525000Y-6165000D03*
X30525000Y-7435000D03*
X30525000Y-8705000D03*
X35475000Y-8705000D03*
X35475000Y-7435000D03*
X35475000Y-6165000D03*
X35475000Y-4895000D03*
%TD*%
D17*
%TO.C,FB4*%
X46600000Y-16462500D03*
X46600000Y-14337500D03*
%TD*%
D14*
%TO.C,LED1*%
X7812500Y-17600000D03*
X9387500Y-17600000D03*
%TD*%
D19*
%TO.C,R5*%
X26837500Y-13200000D03*
X32762500Y-13200000D03*
%TD*%
D10*
%TO.C,R30*%
X37375000Y-15770000D03*
X39025000Y-15770000D03*
%TD*%
D20*
%TO.C,L1*%
X45100000Y-6400000D03*
X48100000Y-6400000D03*
%TD*%
D21*
%TO.C,U3*%
X20862500Y-6050000D03*
X20862500Y-7000000D03*
X20862500Y-7950000D03*
X23137500Y-7950000D03*
X23137500Y-7000000D03*
X23137500Y-6050000D03*
%TD*%
D10*
%TO.C,R31*%
X19075000Y-3700000D03*
X20725000Y-3700000D03*
%TD*%
D15*
%TO.C,R29*%
X13275000Y-15500000D03*
X11625000Y-15500000D03*
%TD*%
D22*
%TO.C,U6*%
X42062500Y-4650000D03*
X42062500Y-5150000D03*
X42062500Y-5650000D03*
X42062500Y-6150000D03*
X43137500Y-6150000D03*
X43137500Y-5650000D03*
X43137500Y-5150000D03*
X43137500Y-4650000D03*
%TD*%
D23*
%TO.C,C11*%
X42580000Y-3550000D03*
X41620000Y-3550000D03*
%TD*%
D21*
%TO.C,Q1*%
X25662500Y-6050000D03*
X25662500Y-7000000D03*
X25662500Y-7950000D03*
X27937500Y-7950000D03*
X27937500Y-7000000D03*
X27937500Y-6050000D03*
%TD*%
D16*
%TO.C,Q5*%
X42062500Y-14050000D03*
X42062500Y-15950000D03*
X43937500Y-15000000D03*
%TD*%
D24*
%TO.C,J1*%
X8445000Y-6910000D03*
X8445000Y-7710000D03*
D25*
X8445000Y-8910000D03*
X8445000Y-9910000D03*
X8445000Y-10410000D03*
X8445000Y-11410000D03*
D24*
X8445000Y-12610000D03*
X8445000Y-13410000D03*
X8445000Y-13410000D03*
X8445000Y-12610000D03*
D25*
X8445000Y-11910000D03*
X8445000Y-10910000D03*
X8445000Y-9410000D03*
X8445000Y-8410000D03*
D24*
X8445000Y-7710000D03*
X8445000Y-6910000D03*
%TD*%
D26*
%TO.C,U2*%
X13930000Y-6750000D03*
X13930000Y-8250000D03*
X15070000Y-6750000D03*
X15070000Y-8250000D03*
D18*
X12025000Y-5595000D03*
X12025000Y-6865000D03*
X12025000Y-8135000D03*
X12025000Y-9405000D03*
X16975000Y-9405000D03*
X16975000Y-8135000D03*
X16975000Y-6865000D03*
X16975000Y-5595000D03*
%TD*%
M02*
