%TF.GenerationSoftware,KiCad,Pcbnew,9.0.9-9.0.9~ubuntu24.04.1*%
%TF.CreationDate,2026-08-02T14:39:42+02:00*%
%TF.ProjectId,power_kicad,706f7765-725f-46b6-9963-61642e6b6963,rev?*%
%TF.SameCoordinates,Original*%
%TF.FileFunction,Drillmap*%
%TF.FilePolarity,Positive*%
%FSLAX45Y45*%
G04 Gerber Fmt 4.5, Leading zero omitted, Abs format (unit mm)*
G04 Created by KiCad (PCBNEW 9.0.9-9.0.9~ubuntu24.04.1) date 2026-08-02 14:39:42*
%MOMM*%
%LPD*%
G01*
G04 APERTURE LIST*
%ADD10C,0.100000*%
%ADD11C,0.200000*%
G04 APERTURE END LIST*
D10*
X0Y0D02*
X5588000Y0D01*
X0Y-2032000D02*
X0Y0D01*
X5588000Y0D02*
X5588000Y-2032000D01*
X5588000Y-2032000D02*
X0Y-2032000D01*
D11*
D10*
X1280000Y-433500D02*
X1300000Y-453500D01*
X1300000Y-433500D02*
X1280000Y-453500D01*
X1865000Y-1125000D02*
X1885000Y-1145000D01*
X1885000Y-1125000D02*
X1865000Y-1145000D01*
X2290000Y-1590000D02*
X2310000Y-1610000D01*
X2310000Y-1590000D02*
X2290000Y-1610000D01*
X2370000Y-1430000D02*
X2390000Y-1450000D01*
X2390000Y-1430000D02*
X2370000Y-1450000D01*
X2522000Y-277000D02*
X2542000Y-297000D01*
X2542000Y-277000D02*
X2522000Y-297000D01*
X2619000Y-1560000D02*
X2639000Y-1580000D01*
X2639000Y-1560000D02*
X2619000Y-1580000D01*
X2661000Y-955000D02*
X2681000Y-975000D01*
X2681000Y-955000D02*
X2661000Y-975000D01*
X2665000Y-830000D02*
X2685000Y-850000D01*
X2685000Y-830000D02*
X2665000Y-850000D01*
X2690000Y-1550000D02*
X2710000Y-1570000D01*
X2710000Y-1550000D02*
X2690000Y-1570000D01*
X3032000Y-1625000D02*
X3052000Y-1645000D01*
X3052000Y-1625000D02*
X3032000Y-1645000D01*
X4035000Y-1450000D02*
X4055000Y-1470000D01*
X4055000Y-1450000D02*
X4035000Y-1470000D01*
X4188000Y-580000D02*
X4208000Y-600000D01*
X4208000Y-580000D02*
X4188000Y-600000D01*
X90270Y-235240D02*
G75*
G02*
X60270Y-235240I-15000J0D01*
G01*
X60270Y-235240D02*
G75*
G02*
X90270Y-235240I15000J0D01*
G01*
X715360Y-1595210D02*
G75*
G02*
X685360Y-1595210I-15000J0D01*
G01*
X685360Y-1595210D02*
G75*
G02*
X715360Y-1595210I15000J0D01*
G01*
X719720Y-413630D02*
G75*
G02*
X689720Y-413630I-15000J0D01*
G01*
X689720Y-413630D02*
G75*
G02*
X719720Y-413630I15000J0D01*
G01*
X790380Y-1649780D02*
G75*
G02*
X760380Y-1649780I-15000J0D01*
G01*
X760380Y-1649780D02*
G75*
G02*
X790380Y-1649780I15000J0D01*
G01*
X921470Y-545260D02*
G75*
G02*
X891470Y-545260I-15000J0D01*
G01*
X891470Y-545260D02*
G75*
G02*
X921470Y-545260I15000J0D01*
G01*
X978590Y-1248500D02*
G75*
G02*
X948590Y-1248500I-15000J0D01*
G01*
X948590Y-1248500D02*
G75*
G02*
X978590Y-1248500I15000J0D01*
G01*
X1048660Y-717490D02*
G75*
G02*
X1018660Y-717490I-15000J0D01*
G01*
X1018660Y-717490D02*
G75*
G02*
X1048660Y-717490I15000J0D01*
G01*
X1131890Y-442830D02*
G75*
G02*
X1101890Y-442830I-15000J0D01*
G01*
X1101890Y-442830D02*
G75*
G02*
X1131890Y-442830I15000J0D01*
G01*
X1177500Y-1550000D02*
G75*
G02*
X1147500Y-1550000I-15000J0D01*
G01*
X1147500Y-1550000D02*
G75*
G02*
X1177500Y-1550000I15000J0D01*
G01*
X1245610Y-1048820D02*
G75*
G02*
X1215610Y-1048820I-15000J0D01*
G01*
X1215610Y-1048820D02*
G75*
G02*
X1245610Y-1048820I15000J0D01*
G01*
X1290750Y-850000D02*
G75*
G02*
X1260750Y-850000I-15000J0D01*
G01*
X1260750Y-850000D02*
G75*
G02*
X1290750Y-850000I15000J0D01*
G01*
X1355000Y-1122060D02*
G75*
G02*
X1325000Y-1122060I-15000J0D01*
G01*
X1325000Y-1122060D02*
G75*
G02*
X1355000Y-1122060I15000J0D01*
G01*
X1420290Y-1164790D02*
G75*
G02*
X1390290Y-1164790I-15000J0D01*
G01*
X1390290Y-1164790D02*
G75*
G02*
X1420290Y-1164790I15000J0D01*
G01*
X1453290Y-1240490D02*
G75*
G02*
X1423290Y-1240490I-15000J0D01*
G01*
X1423290Y-1240490D02*
G75*
G02*
X1453290Y-1240490I15000J0D01*
G01*
X1501360Y-472730D02*
G75*
G02*
X1471360Y-472730I-15000J0D01*
G01*
X1471360Y-472730D02*
G75*
G02*
X1501360Y-472730I15000J0D01*
G01*
X1531660Y-547700D02*
G75*
G02*
X1501660Y-547700I-15000J0D01*
G01*
X1501660Y-547700D02*
G75*
G02*
X1531660Y-547700I15000J0D01*
G01*
X1564150Y-1408220D02*
G75*
G02*
X1534150Y-1408220I-15000J0D01*
G01*
X1534150Y-1408220D02*
G75*
G02*
X1564150Y-1408220I15000J0D01*
G01*
X1637700Y-479800D02*
G75*
G02*
X1607700Y-479800I-15000J0D01*
G01*
X1607700Y-479800D02*
G75*
G02*
X1637700Y-479800I15000J0D01*
G01*
X1674780Y-1673210D02*
G75*
G02*
X1644780Y-1673210I-15000J0D01*
G01*
X1644780Y-1673210D02*
G75*
G02*
X1674780Y-1673210I15000J0D01*
G01*
X1702090Y-131780D02*
G75*
G02*
X1672090Y-131780I-15000J0D01*
G01*
X1672090Y-131780D02*
G75*
G02*
X1702090Y-131780I15000J0D01*
G01*
X1702110Y-1014830D02*
G75*
G02*
X1672110Y-1014830I-15000J0D01*
G01*
X1672110Y-1014830D02*
G75*
G02*
X1702110Y-1014830I15000J0D01*
G01*
X1745000Y-1130000D02*
G75*
G02*
X1715000Y-1130000I-15000J0D01*
G01*
X1715000Y-1130000D02*
G75*
G02*
X1745000Y-1130000I15000J0D01*
G01*
X1747350Y-1940500D02*
G75*
G02*
X1717350Y-1940500I-15000J0D01*
G01*
X1717350Y-1940500D02*
G75*
G02*
X1747350Y-1940500I15000J0D01*
G01*
X1788720Y-419420D02*
G75*
G02*
X1758720Y-419420I-15000J0D01*
G01*
X1758720Y-419420D02*
G75*
G02*
X1788720Y-419420I15000J0D01*
G01*
X1811900Y-343180D02*
G75*
G02*
X1781900Y-343180I-15000J0D01*
G01*
X1781900Y-343180D02*
G75*
G02*
X1811900Y-343180I15000J0D01*
G01*
X1855000Y-987000D02*
G75*
G02*
X1825000Y-987000I-15000J0D01*
G01*
X1825000Y-987000D02*
G75*
G02*
X1855000Y-987000I15000J0D01*
G01*
X1859030Y-679610D02*
G75*
G02*
X1829030Y-679610I-15000J0D01*
G01*
X1829030Y-679610D02*
G75*
G02*
X1859030Y-679610I15000J0D01*
G01*
X1893910Y-1479910D02*
G75*
G02*
X1863910Y-1479910I-15000J0D01*
G01*
X1863910Y-1479910D02*
G75*
G02*
X1893910Y-1479910I15000J0D01*
G01*
X1921610Y-740450D02*
G75*
G02*
X1891610Y-740450I-15000J0D01*
G01*
X1891610Y-740450D02*
G75*
G02*
X1921610Y-740450I15000J0D01*
G01*
X1933480Y-590500D02*
G75*
G02*
X1903480Y-590500I-15000J0D01*
G01*
X1903480Y-590500D02*
G75*
G02*
X1933480Y-590500I15000J0D01*
G01*
X1955340Y-1040730D02*
G75*
G02*
X1925340Y-1040730I-15000J0D01*
G01*
X1925340Y-1040730D02*
G75*
G02*
X1955340Y-1040730I15000J0D01*
G01*
X1975470Y-142040D02*
G75*
G02*
X1945470Y-142040I-15000J0D01*
G01*
X1945470Y-142040D02*
G75*
G02*
X1975470Y-142040I15000J0D01*
G01*
X1992000Y-223900D02*
G75*
G02*
X1962000Y-223900I-15000J0D01*
G01*
X1962000Y-223900D02*
G75*
G02*
X1992000Y-223900I15000J0D01*
G01*
X2045830Y-1407900D02*
G75*
G02*
X2015830Y-1407900I-15000J0D01*
G01*
X2015830Y-1407900D02*
G75*
G02*
X2045830Y-1407900I15000J0D01*
G01*
X2137190Y-940660D02*
G75*
G02*
X2107190Y-940660I-15000J0D01*
G01*
X2107190Y-940660D02*
G75*
G02*
X2137190Y-940660I15000J0D01*
G01*
X2172540Y-1585260D02*
G75*
G02*
X2142540Y-1585260I-15000J0D01*
G01*
X2142540Y-1585260D02*
G75*
G02*
X2172540Y-1585260I15000J0D01*
G01*
X2187120Y-127130D02*
G75*
G02*
X2157120Y-127130I-15000J0D01*
G01*
X2157120Y-127130D02*
G75*
G02*
X2187120Y-127130I15000J0D01*
G01*
X2245910Y-994750D02*
G75*
G02*
X2215910Y-994750I-15000J0D01*
G01*
X2215910Y-994750D02*
G75*
G02*
X2245910Y-994750I15000J0D01*
G01*
X2325000Y-130000D02*
G75*
G02*
X2295000Y-130000I-15000J0D01*
G01*
X2295000Y-130000D02*
G75*
G02*
X2325000Y-130000I15000J0D01*
G01*
X2330000Y-1104000D02*
G75*
G02*
X2300000Y-1104000I-15000J0D01*
G01*
X2300000Y-1104000D02*
G75*
G02*
X2330000Y-1104000I15000J0D01*
G01*
X2370920Y-944720D02*
G75*
G02*
X2340920Y-944720I-15000J0D01*
G01*
X2340920Y-944720D02*
G75*
G02*
X2370920Y-944720I15000J0D01*
G01*
X2400810Y-144060D02*
G75*
G02*
X2370810Y-144060I-15000J0D01*
G01*
X2370810Y-144060D02*
G75*
G02*
X2400810Y-144060I15000J0D01*
G01*
X2429250Y-533160D02*
G75*
G02*
X2399250Y-533160I-15000J0D01*
G01*
X2399250Y-533160D02*
G75*
G02*
X2429250Y-533160I15000J0D01*
G01*
X2449000Y-663000D02*
G75*
G02*
X2419000Y-663000I-15000J0D01*
G01*
X2419000Y-663000D02*
G75*
G02*
X2449000Y-663000I15000J0D01*
G01*
X2457790Y-1099490D02*
G75*
G02*
X2427790Y-1099490I-15000J0D01*
G01*
X2427790Y-1099490D02*
G75*
G02*
X2457790Y-1099490I15000J0D01*
G01*
X2476670Y-964480D02*
G75*
G02*
X2446670Y-964480I-15000J0D01*
G01*
X2446670Y-964480D02*
G75*
G02*
X2476670Y-964480I15000J0D01*
G01*
X2492030Y-333470D02*
G75*
G02*
X2462030Y-333470I-15000J0D01*
G01*
X2462030Y-333470D02*
G75*
G02*
X2492030Y-333470I15000J0D01*
G01*
X2539540Y-518300D02*
G75*
G02*
X2509540Y-518300I-15000J0D01*
G01*
X2509540Y-518300D02*
G75*
G02*
X2539540Y-518300I15000J0D01*
G01*
X2573750Y-1388470D02*
G75*
G02*
X2543750Y-1388470I-15000J0D01*
G01*
X2543750Y-1388470D02*
G75*
G02*
X2573750Y-1388470I15000J0D01*
G01*
X2582420Y-988840D02*
G75*
G02*
X2552420Y-988840I-15000J0D01*
G01*
X2552420Y-988840D02*
G75*
G02*
X2582420Y-988840I15000J0D01*
G01*
X2615000Y-915000D02*
G75*
G02*
X2585000Y-915000I-15000J0D01*
G01*
X2585000Y-915000D02*
G75*
G02*
X2615000Y-915000I15000J0D01*
G01*
X2653510Y-233080D02*
G75*
G02*
X2623510Y-233080I-15000J0D01*
G01*
X2623510Y-233080D02*
G75*
G02*
X2653510Y-233080I15000J0D01*
G01*
X2658840Y-1009040D02*
G75*
G02*
X2628840Y-1009040I-15000J0D01*
G01*
X2628840Y-1009040D02*
G75*
G02*
X2658840Y-1009040I15000J0D01*
G01*
X2773000Y-260000D02*
G75*
G02*
X2743000Y-260000I-15000J0D01*
G01*
X2743000Y-260000D02*
G75*
G02*
X2773000Y-260000I15000J0D01*
G01*
X2850620Y-337600D02*
G75*
G02*
X2820620Y-337600I-15000J0D01*
G01*
X2820620Y-337600D02*
G75*
G02*
X2850620Y-337600I15000J0D01*
G01*
X2868340Y-1194270D02*
G75*
G02*
X2838340Y-1194270I-15000J0D01*
G01*
X2838340Y-1194270D02*
G75*
G02*
X2868340Y-1194270I15000J0D01*
G01*
X2915830Y-648750D02*
G75*
G02*
X2885830Y-648750I-15000J0D01*
G01*
X2885830Y-648750D02*
G75*
G02*
X2915830Y-648750I15000J0D01*
G01*
X2919250Y-539310D02*
G75*
G02*
X2889250Y-539310I-15000J0D01*
G01*
X2889250Y-539310D02*
G75*
G02*
X2919250Y-539310I15000J0D01*
G01*
X2975590Y-1079260D02*
G75*
G02*
X2945590Y-1079260I-15000J0D01*
G01*
X2945590Y-1079260D02*
G75*
G02*
X2975590Y-1079260I15000J0D01*
G01*
X2977840Y-281630D02*
G75*
G02*
X2947840Y-281630I-15000J0D01*
G01*
X2947840Y-281630D02*
G75*
G02*
X2977840Y-281630I15000J0D01*
G01*
X3061000Y-1335000D02*
G75*
G02*
X3031000Y-1335000I-15000J0D01*
G01*
X3031000Y-1335000D02*
G75*
G02*
X3061000Y-1335000I15000J0D01*
G01*
X3065620Y-373040D02*
G75*
G02*
X3035620Y-373040I-15000J0D01*
G01*
X3035620Y-373040D02*
G75*
G02*
X3065620Y-373040I15000J0D01*
G01*
X3095210Y-1032930D02*
G75*
G02*
X3065210Y-1032930I-15000J0D01*
G01*
X3065210Y-1032930D02*
G75*
G02*
X3095210Y-1032930I15000J0D01*
G01*
X3101000Y-1440000D02*
G75*
G02*
X3071000Y-1440000I-15000J0D01*
G01*
X3071000Y-1440000D02*
G75*
G02*
X3101000Y-1440000I15000J0D01*
G01*
X3214330Y-1543780D02*
G75*
G02*
X3184330Y-1543780I-15000J0D01*
G01*
X3184330Y-1543780D02*
G75*
G02*
X3214330Y-1543780I15000J0D01*
G01*
X3230000Y-630000D02*
G75*
G02*
X3200000Y-630000I-15000J0D01*
G01*
X3200000Y-630000D02*
G75*
G02*
X3230000Y-630000I15000J0D01*
G01*
X3435000Y-1035000D02*
G75*
G02*
X3405000Y-1035000I-15000J0D01*
G01*
X3405000Y-1035000D02*
G75*
G02*
X3435000Y-1035000I15000J0D01*
G01*
X3437350Y-157990D02*
G75*
G02*
X3407350Y-157990I-15000J0D01*
G01*
X3407350Y-157990D02*
G75*
G02*
X3437350Y-157990I15000J0D01*
G01*
X3687000Y-1275000D02*
G75*
G02*
X3657000Y-1275000I-15000J0D01*
G01*
X3657000Y-1275000D02*
G75*
G02*
X3687000Y-1275000I15000J0D01*
G01*
X3750520Y-106390D02*
G75*
G02*
X3720520Y-106390I-15000J0D01*
G01*
X3720520Y-106390D02*
G75*
G02*
X3750520Y-106390I15000J0D01*
G01*
X3776250Y-216610D02*
G75*
G02*
X3746250Y-216610I-15000J0D01*
G01*
X3746250Y-216610D02*
G75*
G02*
X3776250Y-216610I15000J0D01*
G01*
X3785000Y-1318000D02*
G75*
G02*
X3755000Y-1318000I-15000J0D01*
G01*
X3755000Y-1318000D02*
G75*
G02*
X3785000Y-1318000I15000J0D01*
G01*
X3832710Y-75090D02*
G75*
G02*
X3802710Y-75090I-15000J0D01*
G01*
X3802710Y-75090D02*
G75*
G02*
X3832710Y-75090I15000J0D01*
G01*
X3835000Y-1490000D02*
G75*
G02*
X3805000Y-1490000I-15000J0D01*
G01*
X3805000Y-1490000D02*
G75*
G02*
X3835000Y-1490000I15000J0D01*
G01*
X3843590Y-546430D02*
G75*
G02*
X3813590Y-546430I-15000J0D01*
G01*
X3813590Y-546430D02*
G75*
G02*
X3843590Y-546430I15000J0D01*
G01*
X3845000Y-1045000D02*
G75*
G02*
X3815000Y-1045000I-15000J0D01*
G01*
X3815000Y-1045000D02*
G75*
G02*
X3845000Y-1045000I15000J0D01*
G01*
X3908000Y-228000D02*
G75*
G02*
X3878000Y-228000I-15000J0D01*
G01*
X3878000Y-228000D02*
G75*
G02*
X3908000Y-228000I15000J0D01*
G01*
X4011840Y-1593910D02*
G75*
G02*
X3981840Y-1593910I-15000J0D01*
G01*
X3981840Y-1593910D02*
G75*
G02*
X4011840Y-1593910I15000J0D01*
G01*
X4034980Y-327760D02*
G75*
G02*
X4004980Y-327760I-15000J0D01*
G01*
X4004980Y-327760D02*
G75*
G02*
X4034980Y-327760I15000J0D01*
G01*
X4073910Y-1193340D02*
G75*
G02*
X4043910Y-1193340I-15000J0D01*
G01*
X4043910Y-1193340D02*
G75*
G02*
X4073910Y-1193340I15000J0D01*
G01*
X4079470Y-1915880D02*
G75*
G02*
X4049470Y-1915880I-15000J0D01*
G01*
X4049470Y-1915880D02*
G75*
G02*
X4079470Y-1915880I15000J0D01*
G01*
X4108000Y-1589000D02*
G75*
G02*
X4078000Y-1589000I-15000J0D01*
G01*
X4078000Y-1589000D02*
G75*
G02*
X4108000Y-1589000I15000J0D01*
G01*
X4165340Y-666100D02*
G75*
G02*
X4135340Y-666100I-15000J0D01*
G01*
X4135340Y-666100D02*
G75*
G02*
X4165340Y-666100I15000J0D01*
G01*
X4177000Y-355000D02*
G75*
G02*
X4147000Y-355000I-15000J0D01*
G01*
X4147000Y-355000D02*
G75*
G02*
X4177000Y-355000I15000J0D01*
G01*
X4187000Y-1690000D02*
G75*
G02*
X4157000Y-1690000I-15000J0D01*
G01*
X4157000Y-1690000D02*
G75*
G02*
X4187000Y-1690000I15000J0D01*
G01*
X4189300Y-760380D02*
G75*
G02*
X4159300Y-760380I-15000J0D01*
G01*
X4159300Y-760380D02*
G75*
G02*
X4189300Y-760380I15000J0D01*
G01*
X4190170Y-1294760D02*
G75*
G02*
X4160170Y-1294760I-15000J0D01*
G01*
X4160170Y-1294760D02*
G75*
G02*
X4190170Y-1294760I15000J0D01*
G01*
X4226120Y-1933320D02*
G75*
G02*
X4196120Y-1933320I-15000J0D01*
G01*
X4196120Y-1933320D02*
G75*
G02*
X4226120Y-1933320I15000J0D01*
G01*
X4260140Y-1083180D02*
G75*
G02*
X4230140Y-1083180I-15000J0D01*
G01*
X4230140Y-1083180D02*
G75*
G02*
X4260140Y-1083180I15000J0D01*
G01*
X4283100Y-1510320D02*
G75*
G02*
X4253100Y-1510320I-15000J0D01*
G01*
X4253100Y-1510320D02*
G75*
G02*
X4283100Y-1510320I15000J0D01*
G01*
X4340580Y-1579740D02*
G75*
G02*
X4310580Y-1579740I-15000J0D01*
G01*
X4310580Y-1579740D02*
G75*
G02*
X4340580Y-1579740I15000J0D01*
G01*
X4407290Y-938280D02*
G75*
G02*
X4377290Y-938280I-15000J0D01*
G01*
X4377290Y-938280D02*
G75*
G02*
X4407290Y-938280I15000J0D01*
G01*
X4550000Y-1044000D02*
G75*
G02*
X4520000Y-1044000I-15000J0D01*
G01*
X4520000Y-1044000D02*
G75*
G02*
X4550000Y-1044000I15000J0D01*
G01*
X4901630Y-902640D02*
G75*
G02*
X4871630Y-902640I-15000J0D01*
G01*
X4871630Y-902640D02*
G75*
G02*
X4901630Y-902640I15000J0D01*
G01*
X4905000Y-310000D02*
G75*
G02*
X4875000Y-310000I-15000J0D01*
G01*
X4875000Y-310000D02*
G75*
G02*
X4905000Y-310000I15000J0D01*
G01*
X4949690Y-647570D02*
G75*
G02*
X4919690Y-647570I-15000J0D01*
G01*
X4919690Y-647570D02*
G75*
G02*
X4949690Y-647570I15000J0D01*
G01*
X4966360Y-1374370D02*
G75*
G02*
X4936360Y-1374370I-15000J0D01*
G01*
X4936360Y-1374370D02*
G75*
G02*
X4966360Y-1374370I15000J0D01*
G01*
X5115000Y-1050000D02*
G75*
G02*
X5085000Y-1050000I-15000J0D01*
G01*
X5085000Y-1050000D02*
G75*
G02*
X5115000Y-1050000I15000J0D01*
G01*
X5365000Y-1350000D02*
G75*
G02*
X5335000Y-1350000I-15000J0D01*
G01*
X5335000Y-1350000D02*
G75*
G02*
X5365000Y-1350000I15000J0D01*
G01*
X2890000Y-1414500D02*
X2890000Y-1459500D01*
X2867500Y-1437000D02*
X2912500Y-1437000D01*
X3190000Y-366500D02*
X3190000Y-411500D01*
X3167500Y-389000D02*
X3212500Y-389000D01*
X356213Y-605213D02*
X356213Y-562787D01*
X313787Y-562787D01*
X313787Y-605213D01*
X356213Y-605213D01*
X365000Y-554000D02*
X305000Y-554000D01*
X305000Y-614000D02*
G75*
G02*
X305000Y-554000I0J30000D01*
G01*
X305000Y-614000D02*
X365000Y-614000D01*
X365000Y-614000D02*
G75*
G03*
X365000Y-554000I0J30000D01*
G01*
X356213Y-1469213D02*
X356213Y-1426787D01*
X313787Y-1426787D01*
X313787Y-1469213D01*
X356213Y-1469213D01*
X365000Y-1418000D02*
X305000Y-1418000D01*
X305000Y-1478000D02*
G75*
G02*
X305000Y-1418000I0J30000D01*
G01*
X305000Y-1478000D02*
X365000Y-1478000D01*
X365000Y-1478000D02*
G75*
G03*
X365000Y-1418000I0J30000D01*
G01*
X774213Y-605213D02*
X774213Y-562787D01*
X731787Y-562787D01*
X731787Y-605213D01*
X774213Y-605213D01*
X808000Y-554000D02*
X698000Y-554000D01*
X698000Y-614000D02*
G75*
G02*
X698000Y-554000I0J30000D01*
G01*
X698000Y-614000D02*
X808000Y-614000D01*
X808000Y-614000D02*
G75*
G03*
X808000Y-554000I0J30000D01*
G01*
X774213Y-1469213D02*
X774213Y-1426787D01*
X731787Y-1426787D01*
X731787Y-1469213D01*
X774213Y-1469213D01*
X808000Y-1418000D02*
X698000Y-1418000D01*
X698000Y-1478000D02*
G75*
G02*
X698000Y-1418000I0J30000D01*
G01*
X698000Y-1478000D02*
X808000Y-1478000D01*
X808000Y-1478000D02*
G75*
G03*
X808000Y-1418000I0J30000D01*
G01*
X5330000Y-857500D02*
X5367500Y-820000D01*
X5330000Y-782500D01*
X5292500Y-820000D01*
X5330000Y-857500D01*
X5330000Y-1057500D02*
X5367500Y-1020000D01*
X5330000Y-982500D01*
X5292500Y-1020000D01*
X5330000Y-1057500D01*
X1250000Y-130000D02*
X1350000Y-230000D01*
X1350000Y-130000D02*
X1250000Y-230000D01*
X1350000Y-180000D02*
G75*
G02*
X1250000Y-180000I-50000J0D01*
G01*
X1250000Y-180000D02*
G75*
G02*
X1350000Y-180000I50000J0D01*
G01*
X1504000Y-130000D02*
X1604000Y-230000D01*
X1604000Y-130000D02*
X1504000Y-230000D01*
X1604000Y-180000D02*
G75*
G02*
X1504000Y-180000I-50000J0D01*
G01*
X1504000Y-180000D02*
G75*
G02*
X1604000Y-180000I50000J0D01*
G01*
X1550000Y-1790000D02*
X1650000Y-1890000D01*
X1650000Y-1790000D02*
X1550000Y-1890000D01*
X1650000Y-1840000D02*
G75*
G02*
X1550000Y-1840000I-50000J0D01*
G01*
X1550000Y-1840000D02*
G75*
G02*
X1650000Y-1840000I50000J0D01*
G01*
X1804000Y-1790000D02*
X1904000Y-1890000D01*
X1904000Y-1790000D02*
X1804000Y-1890000D01*
X1904000Y-1840000D02*
G75*
G02*
X1804000Y-1840000I-50000J0D01*
G01*
X1804000Y-1840000D02*
G75*
G02*
X1904000Y-1840000I50000J0D01*
G01*
X2058000Y-1790000D02*
X2158000Y-1890000D01*
X2158000Y-1790000D02*
X2058000Y-1890000D01*
X2158000Y-1840000D02*
G75*
G02*
X2058000Y-1840000I-50000J0D01*
G01*
X2058000Y-1840000D02*
G75*
G02*
X2158000Y-1840000I50000J0D01*
G01*
X2312000Y-1790000D02*
X2412000Y-1890000D01*
X2412000Y-1790000D02*
X2312000Y-1890000D01*
X2412000Y-1840000D02*
G75*
G02*
X2312000Y-1840000I-50000J0D01*
G01*
X2312000Y-1840000D02*
G75*
G02*
X2412000Y-1840000I50000J0D01*
G01*
X2566000Y-1790000D02*
X2666000Y-1890000D01*
X2666000Y-1790000D02*
X2566000Y-1890000D01*
X2666000Y-1840000D02*
G75*
G02*
X2566000Y-1840000I-50000J0D01*
G01*
X2566000Y-1840000D02*
G75*
G02*
X2666000Y-1840000I50000J0D01*
G01*
X2820000Y-1790000D02*
X2920000Y-1890000D01*
X2920000Y-1790000D02*
X2820000Y-1890000D01*
X2920000Y-1840000D02*
G75*
G02*
X2820000Y-1840000I-50000J0D01*
G01*
X2820000Y-1840000D02*
G75*
G02*
X2920000Y-1840000I50000J0D01*
G01*
X3074000Y-1790000D02*
X3174000Y-1890000D01*
X3174000Y-1790000D02*
X3074000Y-1890000D01*
X3174000Y-1840000D02*
G75*
G02*
X3074000Y-1840000I-50000J0D01*
G01*
X3074000Y-1840000D02*
G75*
G02*
X3174000Y-1840000I50000J0D01*
G01*
X3328000Y-1790000D02*
X3428000Y-1890000D01*
X3428000Y-1790000D02*
X3328000Y-1890000D01*
X3428000Y-1840000D02*
G75*
G02*
X3328000Y-1840000I-50000J0D01*
G01*
X3328000Y-1840000D02*
G75*
G02*
X3428000Y-1840000I50000J0D01*
G01*
X3582000Y-1790000D02*
X3682000Y-1890000D01*
X3682000Y-1790000D02*
X3582000Y-1890000D01*
X3682000Y-1840000D02*
G75*
G02*
X3582000Y-1840000I-50000J0D01*
G01*
X3582000Y-1840000D02*
G75*
G02*
X3682000Y-1840000I50000J0D01*
G01*
X3836000Y-1790000D02*
X3936000Y-1890000D01*
X3936000Y-1790000D02*
X3836000Y-1890000D01*
X3936000Y-1840000D02*
G75*
G02*
X3836000Y-1840000I-50000J0D01*
G01*
X3836000Y-1840000D02*
G75*
G02*
X3936000Y-1840000I50000J0D01*
G01*
X4450000Y-140000D02*
X4550000Y-240000D01*
X4550000Y-140000D02*
X4450000Y-240000D01*
X4550000Y-190000D02*
G75*
G02*
X4450000Y-190000I-50000J0D01*
G01*
X4450000Y-190000D02*
G75*
G02*
X4550000Y-190000I50000J0D01*
G01*
X4704000Y-140000D02*
X4804000Y-240000D01*
X4804000Y-140000D02*
X4704000Y-240000D01*
X4804000Y-190000D02*
G75*
G02*
X4704000Y-190000I-50000J0D01*
G01*
X4704000Y-190000D02*
G75*
G02*
X4804000Y-190000I50000J0D01*
G01*
X4958000Y-140000D02*
X5058000Y-240000D01*
X5058000Y-140000D02*
X4958000Y-240000D01*
X5058000Y-190000D02*
G75*
G02*
X4958000Y-190000I-50000J0D01*
G01*
X4958000Y-190000D02*
G75*
G02*
X5058000Y-190000I50000J0D01*
G01*
X5212000Y-140000D02*
X5312000Y-240000D01*
X5312000Y-140000D02*
X5212000Y-240000D01*
X5312000Y-190000D02*
G75*
G02*
X5212000Y-190000I-50000J0D01*
G01*
X5212000Y-190000D02*
G75*
G02*
X5312000Y-190000I50000J0D01*
G01*
D11*
X255777Y-2348484D02*
X255777Y-2148484D01*
X255777Y-2148484D02*
X303396Y-2148484D01*
X303396Y-2148484D02*
X331967Y-2158008D01*
X331967Y-2158008D02*
X351015Y-2177055D01*
X351015Y-2177055D02*
X360539Y-2196103D01*
X360539Y-2196103D02*
X370062Y-2234198D01*
X370062Y-2234198D02*
X370062Y-2262770D01*
X370062Y-2262770D02*
X360539Y-2300865D01*
X360539Y-2300865D02*
X351015Y-2319912D01*
X351015Y-2319912D02*
X331967Y-2338960D01*
X331967Y-2338960D02*
X303396Y-2348484D01*
X303396Y-2348484D02*
X255777Y-2348484D01*
X455777Y-2348484D02*
X455777Y-2215150D01*
X455777Y-2253246D02*
X465301Y-2234198D01*
X465301Y-2234198D02*
X474824Y-2224674D01*
X474824Y-2224674D02*
X493872Y-2215150D01*
X493872Y-2215150D02*
X512920Y-2215150D01*
X579586Y-2348484D02*
X579586Y-2215150D01*
X579586Y-2148484D02*
X570063Y-2158008D01*
X570063Y-2158008D02*
X579586Y-2167531D01*
X579586Y-2167531D02*
X589110Y-2158008D01*
X589110Y-2158008D02*
X579586Y-2148484D01*
X579586Y-2148484D02*
X579586Y-2167531D01*
X703396Y-2348484D02*
X684348Y-2338960D01*
X684348Y-2338960D02*
X674824Y-2319912D01*
X674824Y-2319912D02*
X674824Y-2148484D01*
X808158Y-2348484D02*
X789110Y-2338960D01*
X789110Y-2338960D02*
X779586Y-2319912D01*
X779586Y-2319912D02*
X779586Y-2148484D01*
X1036729Y-2348484D02*
X1036729Y-2148484D01*
X1036729Y-2148484D02*
X1103396Y-2291341D01*
X1103396Y-2291341D02*
X1170063Y-2148484D01*
X1170063Y-2148484D02*
X1170063Y-2348484D01*
X1351015Y-2348484D02*
X1351015Y-2243722D01*
X1351015Y-2243722D02*
X1341491Y-2224674D01*
X1341491Y-2224674D02*
X1322444Y-2215150D01*
X1322444Y-2215150D02*
X1284348Y-2215150D01*
X1284348Y-2215150D02*
X1265301Y-2224674D01*
X1351015Y-2338960D02*
X1331967Y-2348484D01*
X1331967Y-2348484D02*
X1284348Y-2348484D01*
X1284348Y-2348484D02*
X1265301Y-2338960D01*
X1265301Y-2338960D02*
X1255777Y-2319912D01*
X1255777Y-2319912D02*
X1255777Y-2300865D01*
X1255777Y-2300865D02*
X1265301Y-2281817D01*
X1265301Y-2281817D02*
X1284348Y-2272293D01*
X1284348Y-2272293D02*
X1331967Y-2272293D01*
X1331967Y-2272293D02*
X1351015Y-2262770D01*
X1446253Y-2215150D02*
X1446253Y-2415150D01*
X1446253Y-2224674D02*
X1465301Y-2215150D01*
X1465301Y-2215150D02*
X1503396Y-2215150D01*
X1503396Y-2215150D02*
X1522443Y-2224674D01*
X1522443Y-2224674D02*
X1531967Y-2234198D01*
X1531967Y-2234198D02*
X1541491Y-2253246D01*
X1541491Y-2253246D02*
X1541491Y-2310389D01*
X1541491Y-2310389D02*
X1531967Y-2329436D01*
X1531967Y-2329436D02*
X1522443Y-2338960D01*
X1522443Y-2338960D02*
X1503396Y-2348484D01*
X1503396Y-2348484D02*
X1465301Y-2348484D01*
X1465301Y-2348484D02*
X1446253Y-2338960D01*
X1627205Y-2329436D02*
X1636729Y-2338960D01*
X1636729Y-2338960D02*
X1627205Y-2348484D01*
X1627205Y-2348484D02*
X1617682Y-2338960D01*
X1617682Y-2338960D02*
X1627205Y-2329436D01*
X1627205Y-2329436D02*
X1627205Y-2348484D01*
X1627205Y-2224674D02*
X1636729Y-2234198D01*
X1636729Y-2234198D02*
X1627205Y-2243722D01*
X1627205Y-2243722D02*
X1617682Y-2234198D01*
X1617682Y-2234198D02*
X1627205Y-2224674D01*
X1627205Y-2224674D02*
X1627205Y-2243722D01*
D10*
X-25000Y-2667000D02*
X-5000Y-2687000D01*
X-5000Y-2667000D02*
X-25000Y-2687000D01*
D11*
X293872Y-2568484D02*
X312920Y-2568484D01*
X312920Y-2568484D02*
X331967Y-2578008D01*
X331967Y-2578008D02*
X341491Y-2587531D01*
X341491Y-2587531D02*
X351015Y-2606579D01*
X351015Y-2606579D02*
X360539Y-2644674D01*
X360539Y-2644674D02*
X360539Y-2692293D01*
X360539Y-2692293D02*
X351015Y-2730389D01*
X351015Y-2730389D02*
X341491Y-2749436D01*
X341491Y-2749436D02*
X331967Y-2758960D01*
X331967Y-2758960D02*
X312920Y-2768484D01*
X312920Y-2768484D02*
X293872Y-2768484D01*
X293872Y-2768484D02*
X274824Y-2758960D01*
X274824Y-2758960D02*
X265301Y-2749436D01*
X265301Y-2749436D02*
X255777Y-2730389D01*
X255777Y-2730389D02*
X246253Y-2692293D01*
X246253Y-2692293D02*
X246253Y-2644674D01*
X246253Y-2644674D02*
X255777Y-2606579D01*
X255777Y-2606579D02*
X265301Y-2587531D01*
X265301Y-2587531D02*
X274824Y-2578008D01*
X274824Y-2578008D02*
X293872Y-2568484D01*
X446253Y-2749436D02*
X455777Y-2758960D01*
X455777Y-2758960D02*
X446253Y-2768484D01*
X446253Y-2768484D02*
X436729Y-2758960D01*
X436729Y-2758960D02*
X446253Y-2749436D01*
X446253Y-2749436D02*
X446253Y-2768484D01*
X531967Y-2587531D02*
X541491Y-2578008D01*
X541491Y-2578008D02*
X560539Y-2568484D01*
X560539Y-2568484D02*
X608158Y-2568484D01*
X608158Y-2568484D02*
X627205Y-2578008D01*
X627205Y-2578008D02*
X636729Y-2587531D01*
X636729Y-2587531D02*
X646253Y-2606579D01*
X646253Y-2606579D02*
X646253Y-2625627D01*
X646253Y-2625627D02*
X636729Y-2654198D01*
X636729Y-2654198D02*
X522443Y-2768484D01*
X522443Y-2768484D02*
X646253Y-2768484D01*
X770062Y-2568484D02*
X789110Y-2568484D01*
X789110Y-2568484D02*
X808158Y-2578008D01*
X808158Y-2578008D02*
X817682Y-2587531D01*
X817682Y-2587531D02*
X827205Y-2606579D01*
X827205Y-2606579D02*
X836729Y-2644674D01*
X836729Y-2644674D02*
X836729Y-2692293D01*
X836729Y-2692293D02*
X827205Y-2730389D01*
X827205Y-2730389D02*
X817682Y-2749436D01*
X817682Y-2749436D02*
X808158Y-2758960D01*
X808158Y-2758960D02*
X789110Y-2768484D01*
X789110Y-2768484D02*
X770062Y-2768484D01*
X770062Y-2768484D02*
X751015Y-2758960D01*
X751015Y-2758960D02*
X741491Y-2749436D01*
X741491Y-2749436D02*
X731967Y-2730389D01*
X731967Y-2730389D02*
X722443Y-2692293D01*
X722443Y-2692293D02*
X722443Y-2644674D01*
X722443Y-2644674D02*
X731967Y-2606579D01*
X731967Y-2606579D02*
X741491Y-2587531D01*
X741491Y-2587531D02*
X751015Y-2578008D01*
X751015Y-2578008D02*
X770062Y-2568484D01*
X960539Y-2568484D02*
X979586Y-2568484D01*
X979586Y-2568484D02*
X998634Y-2578008D01*
X998634Y-2578008D02*
X1008158Y-2587531D01*
X1008158Y-2587531D02*
X1017682Y-2606579D01*
X1017682Y-2606579D02*
X1027205Y-2644674D01*
X1027205Y-2644674D02*
X1027205Y-2692293D01*
X1027205Y-2692293D02*
X1017682Y-2730389D01*
X1017682Y-2730389D02*
X1008158Y-2749436D01*
X1008158Y-2749436D02*
X998634Y-2758960D01*
X998634Y-2758960D02*
X979586Y-2768484D01*
X979586Y-2768484D02*
X960539Y-2768484D01*
X960539Y-2768484D02*
X941491Y-2758960D01*
X941491Y-2758960D02*
X931967Y-2749436D01*
X931967Y-2749436D02*
X922443Y-2730389D01*
X922443Y-2730389D02*
X912920Y-2692293D01*
X912920Y-2692293D02*
X912920Y-2644674D01*
X912920Y-2644674D02*
X922443Y-2606579D01*
X922443Y-2606579D02*
X931967Y-2587531D01*
X931967Y-2587531D02*
X941491Y-2578008D01*
X941491Y-2578008D02*
X960539Y-2568484D01*
X1112920Y-2768484D02*
X1112920Y-2635150D01*
X1112920Y-2654198D02*
X1122444Y-2644674D01*
X1122444Y-2644674D02*
X1141491Y-2635150D01*
X1141491Y-2635150D02*
X1170063Y-2635150D01*
X1170063Y-2635150D02*
X1189110Y-2644674D01*
X1189110Y-2644674D02*
X1198634Y-2663722D01*
X1198634Y-2663722D02*
X1198634Y-2768484D01*
X1198634Y-2663722D02*
X1208158Y-2644674D01*
X1208158Y-2644674D02*
X1227205Y-2635150D01*
X1227205Y-2635150D02*
X1255777Y-2635150D01*
X1255777Y-2635150D02*
X1274825Y-2644674D01*
X1274825Y-2644674D02*
X1284348Y-2663722D01*
X1284348Y-2663722D02*
X1284348Y-2768484D01*
X1379586Y-2768484D02*
X1379586Y-2635150D01*
X1379586Y-2654198D02*
X1389110Y-2644674D01*
X1389110Y-2644674D02*
X1408158Y-2635150D01*
X1408158Y-2635150D02*
X1436729Y-2635150D01*
X1436729Y-2635150D02*
X1455777Y-2644674D01*
X1455777Y-2644674D02*
X1465301Y-2663722D01*
X1465301Y-2663722D02*
X1465301Y-2768484D01*
X1465301Y-2663722D02*
X1474824Y-2644674D01*
X1474824Y-2644674D02*
X1493872Y-2635150D01*
X1493872Y-2635150D02*
X1522443Y-2635150D01*
X1522443Y-2635150D02*
X1541491Y-2644674D01*
X1541491Y-2644674D02*
X1551015Y-2663722D01*
X1551015Y-2663722D02*
X1551015Y-2768484D01*
X1941491Y-2558960D02*
X1770063Y-2816103D01*
X2198634Y-2568484D02*
X2217682Y-2568484D01*
X2217682Y-2568484D02*
X2236729Y-2578008D01*
X2236729Y-2578008D02*
X2246253Y-2587531D01*
X2246253Y-2587531D02*
X2255777Y-2606579D01*
X2255777Y-2606579D02*
X2265301Y-2644674D01*
X2265301Y-2644674D02*
X2265301Y-2692293D01*
X2265301Y-2692293D02*
X2255777Y-2730389D01*
X2255777Y-2730389D02*
X2246253Y-2749436D01*
X2246253Y-2749436D02*
X2236729Y-2758960D01*
X2236729Y-2758960D02*
X2217682Y-2768484D01*
X2217682Y-2768484D02*
X2198634Y-2768484D01*
X2198634Y-2768484D02*
X2179587Y-2758960D01*
X2179587Y-2758960D02*
X2170063Y-2749436D01*
X2170063Y-2749436D02*
X2160539Y-2730389D01*
X2160539Y-2730389D02*
X2151015Y-2692293D01*
X2151015Y-2692293D02*
X2151015Y-2644674D01*
X2151015Y-2644674D02*
X2160539Y-2606579D01*
X2160539Y-2606579D02*
X2170063Y-2587531D01*
X2170063Y-2587531D02*
X2179587Y-2578008D01*
X2179587Y-2578008D02*
X2198634Y-2568484D01*
X2351015Y-2749436D02*
X2360539Y-2758960D01*
X2360539Y-2758960D02*
X2351015Y-2768484D01*
X2351015Y-2768484D02*
X2341491Y-2758960D01*
X2341491Y-2758960D02*
X2351015Y-2749436D01*
X2351015Y-2749436D02*
X2351015Y-2768484D01*
X2484348Y-2568484D02*
X2503396Y-2568484D01*
X2503396Y-2568484D02*
X2522444Y-2578008D01*
X2522444Y-2578008D02*
X2531968Y-2587531D01*
X2531968Y-2587531D02*
X2541491Y-2606579D01*
X2541491Y-2606579D02*
X2551015Y-2644674D01*
X2551015Y-2644674D02*
X2551015Y-2692293D01*
X2551015Y-2692293D02*
X2541491Y-2730389D01*
X2541491Y-2730389D02*
X2531968Y-2749436D01*
X2531968Y-2749436D02*
X2522444Y-2758960D01*
X2522444Y-2758960D02*
X2503396Y-2768484D01*
X2503396Y-2768484D02*
X2484348Y-2768484D01*
X2484348Y-2768484D02*
X2465301Y-2758960D01*
X2465301Y-2758960D02*
X2455777Y-2749436D01*
X2455777Y-2749436D02*
X2446253Y-2730389D01*
X2446253Y-2730389D02*
X2436729Y-2692293D01*
X2436729Y-2692293D02*
X2436729Y-2644674D01*
X2436729Y-2644674D02*
X2446253Y-2606579D01*
X2446253Y-2606579D02*
X2455777Y-2587531D01*
X2455777Y-2587531D02*
X2465301Y-2578008D01*
X2465301Y-2578008D02*
X2484348Y-2568484D01*
X2674825Y-2568484D02*
X2693872Y-2568484D01*
X2693872Y-2568484D02*
X2712920Y-2578008D01*
X2712920Y-2578008D02*
X2722444Y-2587531D01*
X2722444Y-2587531D02*
X2731968Y-2606579D01*
X2731968Y-2606579D02*
X2741491Y-2644674D01*
X2741491Y-2644674D02*
X2741491Y-2692293D01*
X2741491Y-2692293D02*
X2731968Y-2730389D01*
X2731968Y-2730389D02*
X2722444Y-2749436D01*
X2722444Y-2749436D02*
X2712920Y-2758960D01*
X2712920Y-2758960D02*
X2693872Y-2768484D01*
X2693872Y-2768484D02*
X2674825Y-2768484D01*
X2674825Y-2768484D02*
X2655777Y-2758960D01*
X2655777Y-2758960D02*
X2646253Y-2749436D01*
X2646253Y-2749436D02*
X2636729Y-2730389D01*
X2636729Y-2730389D02*
X2627206Y-2692293D01*
X2627206Y-2692293D02*
X2627206Y-2644674D01*
X2627206Y-2644674D02*
X2636729Y-2606579D01*
X2636729Y-2606579D02*
X2646253Y-2587531D01*
X2646253Y-2587531D02*
X2655777Y-2578008D01*
X2655777Y-2578008D02*
X2674825Y-2568484D01*
X2808158Y-2568484D02*
X2941491Y-2568484D01*
X2941491Y-2568484D02*
X2855777Y-2768484D01*
X3027206Y-2768484D02*
X3065301Y-2768484D01*
X3065301Y-2768484D02*
X3084348Y-2758960D01*
X3084348Y-2758960D02*
X3093872Y-2749436D01*
X3093872Y-2749436D02*
X3112920Y-2720865D01*
X3112920Y-2720865D02*
X3122444Y-2682770D01*
X3122444Y-2682770D02*
X3122444Y-2606579D01*
X3122444Y-2606579D02*
X3112920Y-2587531D01*
X3112920Y-2587531D02*
X3103396Y-2578008D01*
X3103396Y-2578008D02*
X3084348Y-2568484D01*
X3084348Y-2568484D02*
X3046253Y-2568484D01*
X3046253Y-2568484D02*
X3027206Y-2578008D01*
X3027206Y-2578008D02*
X3017682Y-2587531D01*
X3017682Y-2587531D02*
X3008158Y-2606579D01*
X3008158Y-2606579D02*
X3008158Y-2654198D01*
X3008158Y-2654198D02*
X3017682Y-2673246D01*
X3017682Y-2673246D02*
X3027206Y-2682770D01*
X3027206Y-2682770D02*
X3046253Y-2692293D01*
X3046253Y-2692293D02*
X3084348Y-2692293D01*
X3084348Y-2692293D02*
X3103396Y-2682770D01*
X3103396Y-2682770D02*
X3112920Y-2673246D01*
X3112920Y-2673246D02*
X3122444Y-2654198D01*
X3198634Y-2568484D02*
X3198634Y-2606579D01*
X3274825Y-2568484D02*
X3274825Y-2606579D01*
X3570063Y-2844674D02*
X3560539Y-2835150D01*
X3560539Y-2835150D02*
X3541491Y-2806579D01*
X3541491Y-2806579D02*
X3531968Y-2787531D01*
X3531968Y-2787531D02*
X3522444Y-2758960D01*
X3522444Y-2758960D02*
X3512920Y-2711341D01*
X3512920Y-2711341D02*
X3512920Y-2673246D01*
X3512920Y-2673246D02*
X3522444Y-2625627D01*
X3522444Y-2625627D02*
X3531968Y-2597055D01*
X3531968Y-2597055D02*
X3541491Y-2578008D01*
X3541491Y-2578008D02*
X3560539Y-2549436D01*
X3560539Y-2549436D02*
X3570063Y-2539912D01*
X3751015Y-2768484D02*
X3636729Y-2768484D01*
X3693872Y-2768484D02*
X3693872Y-2568484D01*
X3693872Y-2568484D02*
X3674825Y-2597055D01*
X3674825Y-2597055D02*
X3655777Y-2616103D01*
X3655777Y-2616103D02*
X3636729Y-2625627D01*
X3827206Y-2587531D02*
X3836729Y-2578008D01*
X3836729Y-2578008D02*
X3855777Y-2568484D01*
X3855777Y-2568484D02*
X3903396Y-2568484D01*
X3903396Y-2568484D02*
X3922444Y-2578008D01*
X3922444Y-2578008D02*
X3931968Y-2587531D01*
X3931968Y-2587531D02*
X3941491Y-2606579D01*
X3941491Y-2606579D02*
X3941491Y-2625627D01*
X3941491Y-2625627D02*
X3931968Y-2654198D01*
X3931968Y-2654198D02*
X3817682Y-2768484D01*
X3817682Y-2768484D02*
X3941491Y-2768484D01*
X4179587Y-2768484D02*
X4179587Y-2568484D01*
X4265301Y-2768484D02*
X4265301Y-2663722D01*
X4265301Y-2663722D02*
X4255777Y-2644674D01*
X4255777Y-2644674D02*
X4236730Y-2635150D01*
X4236730Y-2635150D02*
X4208158Y-2635150D01*
X4208158Y-2635150D02*
X4189110Y-2644674D01*
X4189110Y-2644674D02*
X4179587Y-2654198D01*
X4389111Y-2768484D02*
X4370063Y-2758960D01*
X4370063Y-2758960D02*
X4360539Y-2749436D01*
X4360539Y-2749436D02*
X4351015Y-2730389D01*
X4351015Y-2730389D02*
X4351015Y-2673246D01*
X4351015Y-2673246D02*
X4360539Y-2654198D01*
X4360539Y-2654198D02*
X4370063Y-2644674D01*
X4370063Y-2644674D02*
X4389111Y-2635150D01*
X4389111Y-2635150D02*
X4417682Y-2635150D01*
X4417682Y-2635150D02*
X4436730Y-2644674D01*
X4436730Y-2644674D02*
X4446253Y-2654198D01*
X4446253Y-2654198D02*
X4455777Y-2673246D01*
X4455777Y-2673246D02*
X4455777Y-2730389D01*
X4455777Y-2730389D02*
X4446253Y-2749436D01*
X4446253Y-2749436D02*
X4436730Y-2758960D01*
X4436730Y-2758960D02*
X4417682Y-2768484D01*
X4417682Y-2768484D02*
X4389111Y-2768484D01*
X4570063Y-2768484D02*
X4551015Y-2758960D01*
X4551015Y-2758960D02*
X4541492Y-2739912D01*
X4541492Y-2739912D02*
X4541492Y-2568484D01*
X4722444Y-2758960D02*
X4703396Y-2768484D01*
X4703396Y-2768484D02*
X4665301Y-2768484D01*
X4665301Y-2768484D02*
X4646253Y-2758960D01*
X4646253Y-2758960D02*
X4636730Y-2739912D01*
X4636730Y-2739912D02*
X4636730Y-2663722D01*
X4636730Y-2663722D02*
X4646253Y-2644674D01*
X4646253Y-2644674D02*
X4665301Y-2635150D01*
X4665301Y-2635150D02*
X4703396Y-2635150D01*
X4703396Y-2635150D02*
X4722444Y-2644674D01*
X4722444Y-2644674D02*
X4731968Y-2663722D01*
X4731968Y-2663722D02*
X4731968Y-2682770D01*
X4731968Y-2682770D02*
X4636730Y-2701817D01*
X4808158Y-2758960D02*
X4827206Y-2768484D01*
X4827206Y-2768484D02*
X4865301Y-2768484D01*
X4865301Y-2768484D02*
X4884349Y-2758960D01*
X4884349Y-2758960D02*
X4893873Y-2739912D01*
X4893873Y-2739912D02*
X4893873Y-2730389D01*
X4893873Y-2730389D02*
X4884349Y-2711341D01*
X4884349Y-2711341D02*
X4865301Y-2701817D01*
X4865301Y-2701817D02*
X4836730Y-2701817D01*
X4836730Y-2701817D02*
X4817682Y-2692293D01*
X4817682Y-2692293D02*
X4808158Y-2673246D01*
X4808158Y-2673246D02*
X4808158Y-2663722D01*
X4808158Y-2663722D02*
X4817682Y-2644674D01*
X4817682Y-2644674D02*
X4836730Y-2635150D01*
X4836730Y-2635150D02*
X4865301Y-2635150D01*
X4865301Y-2635150D02*
X4884349Y-2644674D01*
X4960539Y-2844674D02*
X4970063Y-2835150D01*
X4970063Y-2835150D02*
X4989111Y-2806579D01*
X4989111Y-2806579D02*
X4998634Y-2787531D01*
X4998634Y-2787531D02*
X5008158Y-2758960D01*
X5008158Y-2758960D02*
X5017682Y-2711341D01*
X5017682Y-2711341D02*
X5017682Y-2673246D01*
X5017682Y-2673246D02*
X5008158Y-2625627D01*
X5008158Y-2625627D02*
X4998634Y-2597055D01*
X4998634Y-2597055D02*
X4989111Y-2578008D01*
X4989111Y-2578008D02*
X4970063Y-2549436D01*
X4970063Y-2549436D02*
X4960539Y-2539912D01*
D10*
X-5000Y-2941000D02*
G75*
G02*
X-35000Y-2941000I-15000J0D01*
G01*
X-35000Y-2941000D02*
G75*
G02*
X-5000Y-2941000I15000J0D01*
G01*
D11*
X293872Y-2832484D02*
X312920Y-2832484D01*
X312920Y-2832484D02*
X331967Y-2842008D01*
X331967Y-2842008D02*
X341491Y-2851531D01*
X341491Y-2851531D02*
X351015Y-2870579D01*
X351015Y-2870579D02*
X360539Y-2908674D01*
X360539Y-2908674D02*
X360539Y-2956293D01*
X360539Y-2956293D02*
X351015Y-2994388D01*
X351015Y-2994388D02*
X341491Y-3013436D01*
X341491Y-3013436D02*
X331967Y-3022960D01*
X331967Y-3022960D02*
X312920Y-3032484D01*
X312920Y-3032484D02*
X293872Y-3032484D01*
X293872Y-3032484D02*
X274824Y-3022960D01*
X274824Y-3022960D02*
X265301Y-3013436D01*
X265301Y-3013436D02*
X255777Y-2994388D01*
X255777Y-2994388D02*
X246253Y-2956293D01*
X246253Y-2956293D02*
X246253Y-2908674D01*
X246253Y-2908674D02*
X255777Y-2870579D01*
X255777Y-2870579D02*
X265301Y-2851531D01*
X265301Y-2851531D02*
X274824Y-2842008D01*
X274824Y-2842008D02*
X293872Y-2832484D01*
X446253Y-3013436D02*
X455777Y-3022960D01*
X455777Y-3022960D02*
X446253Y-3032484D01*
X446253Y-3032484D02*
X436729Y-3022960D01*
X436729Y-3022960D02*
X446253Y-3013436D01*
X446253Y-3013436D02*
X446253Y-3032484D01*
X522443Y-2832484D02*
X646253Y-2832484D01*
X646253Y-2832484D02*
X579586Y-2908674D01*
X579586Y-2908674D02*
X608158Y-2908674D01*
X608158Y-2908674D02*
X627205Y-2918198D01*
X627205Y-2918198D02*
X636729Y-2927722D01*
X636729Y-2927722D02*
X646253Y-2946769D01*
X646253Y-2946769D02*
X646253Y-2994388D01*
X646253Y-2994388D02*
X636729Y-3013436D01*
X636729Y-3013436D02*
X627205Y-3022960D01*
X627205Y-3022960D02*
X608158Y-3032484D01*
X608158Y-3032484D02*
X551015Y-3032484D01*
X551015Y-3032484D02*
X531967Y-3022960D01*
X531967Y-3022960D02*
X522443Y-3013436D01*
X770062Y-2832484D02*
X789110Y-2832484D01*
X789110Y-2832484D02*
X808158Y-2842008D01*
X808158Y-2842008D02*
X817682Y-2851531D01*
X817682Y-2851531D02*
X827205Y-2870579D01*
X827205Y-2870579D02*
X836729Y-2908674D01*
X836729Y-2908674D02*
X836729Y-2956293D01*
X836729Y-2956293D02*
X827205Y-2994388D01*
X827205Y-2994388D02*
X817682Y-3013436D01*
X817682Y-3013436D02*
X808158Y-3022960D01*
X808158Y-3022960D02*
X789110Y-3032484D01*
X789110Y-3032484D02*
X770062Y-3032484D01*
X770062Y-3032484D02*
X751015Y-3022960D01*
X751015Y-3022960D02*
X741491Y-3013436D01*
X741491Y-3013436D02*
X731967Y-2994388D01*
X731967Y-2994388D02*
X722443Y-2956293D01*
X722443Y-2956293D02*
X722443Y-2908674D01*
X722443Y-2908674D02*
X731967Y-2870579D01*
X731967Y-2870579D02*
X741491Y-2851531D01*
X741491Y-2851531D02*
X751015Y-2842008D01*
X751015Y-2842008D02*
X770062Y-2832484D01*
X960539Y-2832484D02*
X979586Y-2832484D01*
X979586Y-2832484D02*
X998634Y-2842008D01*
X998634Y-2842008D02*
X1008158Y-2851531D01*
X1008158Y-2851531D02*
X1017682Y-2870579D01*
X1017682Y-2870579D02*
X1027205Y-2908674D01*
X1027205Y-2908674D02*
X1027205Y-2956293D01*
X1027205Y-2956293D02*
X1017682Y-2994388D01*
X1017682Y-2994388D02*
X1008158Y-3013436D01*
X1008158Y-3013436D02*
X998634Y-3022960D01*
X998634Y-3022960D02*
X979586Y-3032484D01*
X979586Y-3032484D02*
X960539Y-3032484D01*
X960539Y-3032484D02*
X941491Y-3022960D01*
X941491Y-3022960D02*
X931967Y-3013436D01*
X931967Y-3013436D02*
X922443Y-2994388D01*
X922443Y-2994388D02*
X912920Y-2956293D01*
X912920Y-2956293D02*
X912920Y-2908674D01*
X912920Y-2908674D02*
X922443Y-2870579D01*
X922443Y-2870579D02*
X931967Y-2851531D01*
X931967Y-2851531D02*
X941491Y-2842008D01*
X941491Y-2842008D02*
X960539Y-2832484D01*
X1112920Y-3032484D02*
X1112920Y-2899150D01*
X1112920Y-2918198D02*
X1122444Y-2908674D01*
X1122444Y-2908674D02*
X1141491Y-2899150D01*
X1141491Y-2899150D02*
X1170063Y-2899150D01*
X1170063Y-2899150D02*
X1189110Y-2908674D01*
X1189110Y-2908674D02*
X1198634Y-2927722D01*
X1198634Y-2927722D02*
X1198634Y-3032484D01*
X1198634Y-2927722D02*
X1208158Y-2908674D01*
X1208158Y-2908674D02*
X1227205Y-2899150D01*
X1227205Y-2899150D02*
X1255777Y-2899150D01*
X1255777Y-2899150D02*
X1274825Y-2908674D01*
X1274825Y-2908674D02*
X1284348Y-2927722D01*
X1284348Y-2927722D02*
X1284348Y-3032484D01*
X1379586Y-3032484D02*
X1379586Y-2899150D01*
X1379586Y-2918198D02*
X1389110Y-2908674D01*
X1389110Y-2908674D02*
X1408158Y-2899150D01*
X1408158Y-2899150D02*
X1436729Y-2899150D01*
X1436729Y-2899150D02*
X1455777Y-2908674D01*
X1455777Y-2908674D02*
X1465301Y-2927722D01*
X1465301Y-2927722D02*
X1465301Y-3032484D01*
X1465301Y-2927722D02*
X1474824Y-2908674D01*
X1474824Y-2908674D02*
X1493872Y-2899150D01*
X1493872Y-2899150D02*
X1522443Y-2899150D01*
X1522443Y-2899150D02*
X1541491Y-2908674D01*
X1541491Y-2908674D02*
X1551015Y-2927722D01*
X1551015Y-2927722D02*
X1551015Y-3032484D01*
X1941491Y-2822960D02*
X1770063Y-3080103D01*
X2198634Y-2832484D02*
X2217682Y-2832484D01*
X2217682Y-2832484D02*
X2236729Y-2842008D01*
X2236729Y-2842008D02*
X2246253Y-2851531D01*
X2246253Y-2851531D02*
X2255777Y-2870579D01*
X2255777Y-2870579D02*
X2265301Y-2908674D01*
X2265301Y-2908674D02*
X2265301Y-2956293D01*
X2265301Y-2956293D02*
X2255777Y-2994388D01*
X2255777Y-2994388D02*
X2246253Y-3013436D01*
X2246253Y-3013436D02*
X2236729Y-3022960D01*
X2236729Y-3022960D02*
X2217682Y-3032484D01*
X2217682Y-3032484D02*
X2198634Y-3032484D01*
X2198634Y-3032484D02*
X2179587Y-3022960D01*
X2179587Y-3022960D02*
X2170063Y-3013436D01*
X2170063Y-3013436D02*
X2160539Y-2994388D01*
X2160539Y-2994388D02*
X2151015Y-2956293D01*
X2151015Y-2956293D02*
X2151015Y-2908674D01*
X2151015Y-2908674D02*
X2160539Y-2870579D01*
X2160539Y-2870579D02*
X2170063Y-2851531D01*
X2170063Y-2851531D02*
X2179587Y-2842008D01*
X2179587Y-2842008D02*
X2198634Y-2832484D01*
X2351015Y-3013436D02*
X2360539Y-3022960D01*
X2360539Y-3022960D02*
X2351015Y-3032484D01*
X2351015Y-3032484D02*
X2341491Y-3022960D01*
X2341491Y-3022960D02*
X2351015Y-3013436D01*
X2351015Y-3013436D02*
X2351015Y-3032484D01*
X2484348Y-2832484D02*
X2503396Y-2832484D01*
X2503396Y-2832484D02*
X2522444Y-2842008D01*
X2522444Y-2842008D02*
X2531968Y-2851531D01*
X2531968Y-2851531D02*
X2541491Y-2870579D01*
X2541491Y-2870579D02*
X2551015Y-2908674D01*
X2551015Y-2908674D02*
X2551015Y-2956293D01*
X2551015Y-2956293D02*
X2541491Y-2994388D01*
X2541491Y-2994388D02*
X2531968Y-3013436D01*
X2531968Y-3013436D02*
X2522444Y-3022960D01*
X2522444Y-3022960D02*
X2503396Y-3032484D01*
X2503396Y-3032484D02*
X2484348Y-3032484D01*
X2484348Y-3032484D02*
X2465301Y-3022960D01*
X2465301Y-3022960D02*
X2455777Y-3013436D01*
X2455777Y-3013436D02*
X2446253Y-2994388D01*
X2446253Y-2994388D02*
X2436729Y-2956293D01*
X2436729Y-2956293D02*
X2436729Y-2908674D01*
X2436729Y-2908674D02*
X2446253Y-2870579D01*
X2446253Y-2870579D02*
X2455777Y-2851531D01*
X2455777Y-2851531D02*
X2465301Y-2842008D01*
X2465301Y-2842008D02*
X2484348Y-2832484D01*
X2741491Y-3032484D02*
X2627206Y-3032484D01*
X2684348Y-3032484D02*
X2684348Y-2832484D01*
X2684348Y-2832484D02*
X2665301Y-2861055D01*
X2665301Y-2861055D02*
X2646253Y-2880103D01*
X2646253Y-2880103D02*
X2627206Y-2889627D01*
X2931967Y-3032484D02*
X2817682Y-3032484D01*
X2874825Y-3032484D02*
X2874825Y-2832484D01*
X2874825Y-2832484D02*
X2855777Y-2861055D01*
X2855777Y-2861055D02*
X2836729Y-2880103D01*
X2836729Y-2880103D02*
X2817682Y-2889627D01*
X3046253Y-2918198D02*
X3027206Y-2908674D01*
X3027206Y-2908674D02*
X3017682Y-2899150D01*
X3017682Y-2899150D02*
X3008158Y-2880103D01*
X3008158Y-2880103D02*
X3008158Y-2870579D01*
X3008158Y-2870579D02*
X3017682Y-2851531D01*
X3017682Y-2851531D02*
X3027206Y-2842008D01*
X3027206Y-2842008D02*
X3046253Y-2832484D01*
X3046253Y-2832484D02*
X3084348Y-2832484D01*
X3084348Y-2832484D02*
X3103396Y-2842008D01*
X3103396Y-2842008D02*
X3112920Y-2851531D01*
X3112920Y-2851531D02*
X3122444Y-2870579D01*
X3122444Y-2870579D02*
X3122444Y-2880103D01*
X3122444Y-2880103D02*
X3112920Y-2899150D01*
X3112920Y-2899150D02*
X3103396Y-2908674D01*
X3103396Y-2908674D02*
X3084348Y-2918198D01*
X3084348Y-2918198D02*
X3046253Y-2918198D01*
X3046253Y-2918198D02*
X3027206Y-2927722D01*
X3027206Y-2927722D02*
X3017682Y-2937246D01*
X3017682Y-2937246D02*
X3008158Y-2956293D01*
X3008158Y-2956293D02*
X3008158Y-2994388D01*
X3008158Y-2994388D02*
X3017682Y-3013436D01*
X3017682Y-3013436D02*
X3027206Y-3022960D01*
X3027206Y-3022960D02*
X3046253Y-3032484D01*
X3046253Y-3032484D02*
X3084348Y-3032484D01*
X3084348Y-3032484D02*
X3103396Y-3022960D01*
X3103396Y-3022960D02*
X3112920Y-3013436D01*
X3112920Y-3013436D02*
X3122444Y-2994388D01*
X3122444Y-2994388D02*
X3122444Y-2956293D01*
X3122444Y-2956293D02*
X3112920Y-2937246D01*
X3112920Y-2937246D02*
X3103396Y-2927722D01*
X3103396Y-2927722D02*
X3084348Y-2918198D01*
X3198634Y-2832484D02*
X3198634Y-2870579D01*
X3274825Y-2832484D02*
X3274825Y-2870579D01*
X3570063Y-3108674D02*
X3560539Y-3099150D01*
X3560539Y-3099150D02*
X3541491Y-3070579D01*
X3541491Y-3070579D02*
X3531968Y-3051531D01*
X3531968Y-3051531D02*
X3522444Y-3022960D01*
X3522444Y-3022960D02*
X3512920Y-2975341D01*
X3512920Y-2975341D02*
X3512920Y-2937246D01*
X3512920Y-2937246D02*
X3522444Y-2889627D01*
X3522444Y-2889627D02*
X3531968Y-2861055D01*
X3531968Y-2861055D02*
X3541491Y-2842008D01*
X3541491Y-2842008D02*
X3560539Y-2813436D01*
X3560539Y-2813436D02*
X3570063Y-2803912D01*
X3655777Y-3032484D02*
X3693872Y-3032484D01*
X3693872Y-3032484D02*
X3712920Y-3022960D01*
X3712920Y-3022960D02*
X3722444Y-3013436D01*
X3722444Y-3013436D02*
X3741491Y-2984865D01*
X3741491Y-2984865D02*
X3751015Y-2946769D01*
X3751015Y-2946769D02*
X3751015Y-2870579D01*
X3751015Y-2870579D02*
X3741491Y-2851531D01*
X3741491Y-2851531D02*
X3731968Y-2842008D01*
X3731968Y-2842008D02*
X3712920Y-2832484D01*
X3712920Y-2832484D02*
X3674825Y-2832484D01*
X3674825Y-2832484D02*
X3655777Y-2842008D01*
X3655777Y-2842008D02*
X3646253Y-2851531D01*
X3646253Y-2851531D02*
X3636729Y-2870579D01*
X3636729Y-2870579D02*
X3636729Y-2918198D01*
X3636729Y-2918198D02*
X3646253Y-2937246D01*
X3646253Y-2937246D02*
X3655777Y-2946769D01*
X3655777Y-2946769D02*
X3674825Y-2956293D01*
X3674825Y-2956293D02*
X3712920Y-2956293D01*
X3712920Y-2956293D02*
X3731968Y-2946769D01*
X3731968Y-2946769D02*
X3741491Y-2937246D01*
X3741491Y-2937246D02*
X3751015Y-2918198D01*
X3846253Y-3032484D02*
X3884348Y-3032484D01*
X3884348Y-3032484D02*
X3903396Y-3022960D01*
X3903396Y-3022960D02*
X3912920Y-3013436D01*
X3912920Y-3013436D02*
X3931968Y-2984865D01*
X3931968Y-2984865D02*
X3941491Y-2946769D01*
X3941491Y-2946769D02*
X3941491Y-2870579D01*
X3941491Y-2870579D02*
X3931968Y-2851531D01*
X3931968Y-2851531D02*
X3922444Y-2842008D01*
X3922444Y-2842008D02*
X3903396Y-2832484D01*
X3903396Y-2832484D02*
X3865301Y-2832484D01*
X3865301Y-2832484D02*
X3846253Y-2842008D01*
X3846253Y-2842008D02*
X3836729Y-2851531D01*
X3836729Y-2851531D02*
X3827206Y-2870579D01*
X3827206Y-2870579D02*
X3827206Y-2918198D01*
X3827206Y-2918198D02*
X3836729Y-2937246D01*
X3836729Y-2937246D02*
X3846253Y-2946769D01*
X3846253Y-2946769D02*
X3865301Y-2956293D01*
X3865301Y-2956293D02*
X3903396Y-2956293D01*
X3903396Y-2956293D02*
X3922444Y-2946769D01*
X3922444Y-2946769D02*
X3931968Y-2937246D01*
X3931968Y-2937246D02*
X3941491Y-2918198D01*
X4179587Y-3032484D02*
X4179587Y-2832484D01*
X4265301Y-3032484D02*
X4265301Y-2927722D01*
X4265301Y-2927722D02*
X4255777Y-2908674D01*
X4255777Y-2908674D02*
X4236730Y-2899150D01*
X4236730Y-2899150D02*
X4208158Y-2899150D01*
X4208158Y-2899150D02*
X4189110Y-2908674D01*
X4189110Y-2908674D02*
X4179587Y-2918198D01*
X4389111Y-3032484D02*
X4370063Y-3022960D01*
X4370063Y-3022960D02*
X4360539Y-3013436D01*
X4360539Y-3013436D02*
X4351015Y-2994388D01*
X4351015Y-2994388D02*
X4351015Y-2937246D01*
X4351015Y-2937246D02*
X4360539Y-2918198D01*
X4360539Y-2918198D02*
X4370063Y-2908674D01*
X4370063Y-2908674D02*
X4389111Y-2899150D01*
X4389111Y-2899150D02*
X4417682Y-2899150D01*
X4417682Y-2899150D02*
X4436730Y-2908674D01*
X4436730Y-2908674D02*
X4446253Y-2918198D01*
X4446253Y-2918198D02*
X4455777Y-2937246D01*
X4455777Y-2937246D02*
X4455777Y-2994388D01*
X4455777Y-2994388D02*
X4446253Y-3013436D01*
X4446253Y-3013436D02*
X4436730Y-3022960D01*
X4436730Y-3022960D02*
X4417682Y-3032484D01*
X4417682Y-3032484D02*
X4389111Y-3032484D01*
X4570063Y-3032484D02*
X4551015Y-3022960D01*
X4551015Y-3022960D02*
X4541492Y-3003912D01*
X4541492Y-3003912D02*
X4541492Y-2832484D01*
X4722444Y-3022960D02*
X4703396Y-3032484D01*
X4703396Y-3032484D02*
X4665301Y-3032484D01*
X4665301Y-3032484D02*
X4646253Y-3022960D01*
X4646253Y-3022960D02*
X4636730Y-3003912D01*
X4636730Y-3003912D02*
X4636730Y-2927722D01*
X4636730Y-2927722D02*
X4646253Y-2908674D01*
X4646253Y-2908674D02*
X4665301Y-2899150D01*
X4665301Y-2899150D02*
X4703396Y-2899150D01*
X4703396Y-2899150D02*
X4722444Y-2908674D01*
X4722444Y-2908674D02*
X4731968Y-2927722D01*
X4731968Y-2927722D02*
X4731968Y-2946769D01*
X4731968Y-2946769D02*
X4636730Y-2965817D01*
X4808158Y-3022960D02*
X4827206Y-3032484D01*
X4827206Y-3032484D02*
X4865301Y-3032484D01*
X4865301Y-3032484D02*
X4884349Y-3022960D01*
X4884349Y-3022960D02*
X4893873Y-3003912D01*
X4893873Y-3003912D02*
X4893873Y-2994388D01*
X4893873Y-2994388D02*
X4884349Y-2975341D01*
X4884349Y-2975341D02*
X4865301Y-2965817D01*
X4865301Y-2965817D02*
X4836730Y-2965817D01*
X4836730Y-2965817D02*
X4817682Y-2956293D01*
X4817682Y-2956293D02*
X4808158Y-2937246D01*
X4808158Y-2937246D02*
X4808158Y-2927722D01*
X4808158Y-2927722D02*
X4817682Y-2908674D01*
X4817682Y-2908674D02*
X4836730Y-2899150D01*
X4836730Y-2899150D02*
X4865301Y-2899150D01*
X4865301Y-2899150D02*
X4884349Y-2908674D01*
X4960539Y-3108674D02*
X4970063Y-3099150D01*
X4970063Y-3099150D02*
X4989111Y-3070579D01*
X4989111Y-3070579D02*
X4998634Y-3051531D01*
X4998634Y-3051531D02*
X5008158Y-3022960D01*
X5008158Y-3022960D02*
X5017682Y-2975341D01*
X5017682Y-2975341D02*
X5017682Y-2937246D01*
X5017682Y-2937246D02*
X5008158Y-2889627D01*
X5008158Y-2889627D02*
X4998634Y-2861055D01*
X4998634Y-2861055D02*
X4989111Y-2842008D01*
X4989111Y-2842008D02*
X4970063Y-2813436D01*
X4970063Y-2813436D02*
X4960539Y-2803912D01*
D10*
X-27500Y-3182500D02*
X-27500Y-3227500D01*
X-50000Y-3205000D02*
X-5000Y-3205000D01*
D11*
X293872Y-3096484D02*
X312920Y-3096484D01*
X312920Y-3096484D02*
X331967Y-3106008D01*
X331967Y-3106008D02*
X341491Y-3115531D01*
X341491Y-3115531D02*
X351015Y-3134579D01*
X351015Y-3134579D02*
X360539Y-3172674D01*
X360539Y-3172674D02*
X360539Y-3220293D01*
X360539Y-3220293D02*
X351015Y-3258388D01*
X351015Y-3258388D02*
X341491Y-3277436D01*
X341491Y-3277436D02*
X331967Y-3286960D01*
X331967Y-3286960D02*
X312920Y-3296484D01*
X312920Y-3296484D02*
X293872Y-3296484D01*
X293872Y-3296484D02*
X274824Y-3286960D01*
X274824Y-3286960D02*
X265301Y-3277436D01*
X265301Y-3277436D02*
X255777Y-3258388D01*
X255777Y-3258388D02*
X246253Y-3220293D01*
X246253Y-3220293D02*
X246253Y-3172674D01*
X246253Y-3172674D02*
X255777Y-3134579D01*
X255777Y-3134579D02*
X265301Y-3115531D01*
X265301Y-3115531D02*
X274824Y-3106008D01*
X274824Y-3106008D02*
X293872Y-3096484D01*
X446253Y-3277436D02*
X455777Y-3286960D01*
X455777Y-3286960D02*
X446253Y-3296484D01*
X446253Y-3296484D02*
X436729Y-3286960D01*
X436729Y-3286960D02*
X446253Y-3277436D01*
X446253Y-3277436D02*
X446253Y-3296484D01*
X627205Y-3163150D02*
X627205Y-3296484D01*
X579586Y-3086960D02*
X531967Y-3229817D01*
X531967Y-3229817D02*
X655777Y-3229817D01*
X827205Y-3096484D02*
X731967Y-3096484D01*
X731967Y-3096484D02*
X722443Y-3191722D01*
X722443Y-3191722D02*
X731967Y-3182198D01*
X731967Y-3182198D02*
X751015Y-3172674D01*
X751015Y-3172674D02*
X798634Y-3172674D01*
X798634Y-3172674D02*
X817682Y-3182198D01*
X817682Y-3182198D02*
X827205Y-3191722D01*
X827205Y-3191722D02*
X836729Y-3210769D01*
X836729Y-3210769D02*
X836729Y-3258388D01*
X836729Y-3258388D02*
X827205Y-3277436D01*
X827205Y-3277436D02*
X817682Y-3286960D01*
X817682Y-3286960D02*
X798634Y-3296484D01*
X798634Y-3296484D02*
X751015Y-3296484D01*
X751015Y-3296484D02*
X731967Y-3286960D01*
X731967Y-3286960D02*
X722443Y-3277436D01*
X960539Y-3096484D02*
X979586Y-3096484D01*
X979586Y-3096484D02*
X998634Y-3106008D01*
X998634Y-3106008D02*
X1008158Y-3115531D01*
X1008158Y-3115531D02*
X1017682Y-3134579D01*
X1017682Y-3134579D02*
X1027205Y-3172674D01*
X1027205Y-3172674D02*
X1027205Y-3220293D01*
X1027205Y-3220293D02*
X1017682Y-3258388D01*
X1017682Y-3258388D02*
X1008158Y-3277436D01*
X1008158Y-3277436D02*
X998634Y-3286960D01*
X998634Y-3286960D02*
X979586Y-3296484D01*
X979586Y-3296484D02*
X960539Y-3296484D01*
X960539Y-3296484D02*
X941491Y-3286960D01*
X941491Y-3286960D02*
X931967Y-3277436D01*
X931967Y-3277436D02*
X922443Y-3258388D01*
X922443Y-3258388D02*
X912920Y-3220293D01*
X912920Y-3220293D02*
X912920Y-3172674D01*
X912920Y-3172674D02*
X922443Y-3134579D01*
X922443Y-3134579D02*
X931967Y-3115531D01*
X931967Y-3115531D02*
X941491Y-3106008D01*
X941491Y-3106008D02*
X960539Y-3096484D01*
X1112920Y-3296484D02*
X1112920Y-3163150D01*
X1112920Y-3182198D02*
X1122444Y-3172674D01*
X1122444Y-3172674D02*
X1141491Y-3163150D01*
X1141491Y-3163150D02*
X1170063Y-3163150D01*
X1170063Y-3163150D02*
X1189110Y-3172674D01*
X1189110Y-3172674D02*
X1198634Y-3191722D01*
X1198634Y-3191722D02*
X1198634Y-3296484D01*
X1198634Y-3191722D02*
X1208158Y-3172674D01*
X1208158Y-3172674D02*
X1227205Y-3163150D01*
X1227205Y-3163150D02*
X1255777Y-3163150D01*
X1255777Y-3163150D02*
X1274825Y-3172674D01*
X1274825Y-3172674D02*
X1284348Y-3191722D01*
X1284348Y-3191722D02*
X1284348Y-3296484D01*
X1379586Y-3296484D02*
X1379586Y-3163150D01*
X1379586Y-3182198D02*
X1389110Y-3172674D01*
X1389110Y-3172674D02*
X1408158Y-3163150D01*
X1408158Y-3163150D02*
X1436729Y-3163150D01*
X1436729Y-3163150D02*
X1455777Y-3172674D01*
X1455777Y-3172674D02*
X1465301Y-3191722D01*
X1465301Y-3191722D02*
X1465301Y-3296484D01*
X1465301Y-3191722D02*
X1474824Y-3172674D01*
X1474824Y-3172674D02*
X1493872Y-3163150D01*
X1493872Y-3163150D02*
X1522443Y-3163150D01*
X1522443Y-3163150D02*
X1541491Y-3172674D01*
X1541491Y-3172674D02*
X1551015Y-3191722D01*
X1551015Y-3191722D02*
X1551015Y-3296484D01*
X1941491Y-3086960D02*
X1770063Y-3344103D01*
X2198634Y-3096484D02*
X2217682Y-3096484D01*
X2217682Y-3096484D02*
X2236729Y-3106008D01*
X2236729Y-3106008D02*
X2246253Y-3115531D01*
X2246253Y-3115531D02*
X2255777Y-3134579D01*
X2255777Y-3134579D02*
X2265301Y-3172674D01*
X2265301Y-3172674D02*
X2265301Y-3220293D01*
X2265301Y-3220293D02*
X2255777Y-3258388D01*
X2255777Y-3258388D02*
X2246253Y-3277436D01*
X2246253Y-3277436D02*
X2236729Y-3286960D01*
X2236729Y-3286960D02*
X2217682Y-3296484D01*
X2217682Y-3296484D02*
X2198634Y-3296484D01*
X2198634Y-3296484D02*
X2179587Y-3286960D01*
X2179587Y-3286960D02*
X2170063Y-3277436D01*
X2170063Y-3277436D02*
X2160539Y-3258388D01*
X2160539Y-3258388D02*
X2151015Y-3220293D01*
X2151015Y-3220293D02*
X2151015Y-3172674D01*
X2151015Y-3172674D02*
X2160539Y-3134579D01*
X2160539Y-3134579D02*
X2170063Y-3115531D01*
X2170063Y-3115531D02*
X2179587Y-3106008D01*
X2179587Y-3106008D02*
X2198634Y-3096484D01*
X2351015Y-3277436D02*
X2360539Y-3286960D01*
X2360539Y-3286960D02*
X2351015Y-3296484D01*
X2351015Y-3296484D02*
X2341491Y-3286960D01*
X2341491Y-3286960D02*
X2351015Y-3277436D01*
X2351015Y-3277436D02*
X2351015Y-3296484D01*
X2484348Y-3096484D02*
X2503396Y-3096484D01*
X2503396Y-3096484D02*
X2522444Y-3106008D01*
X2522444Y-3106008D02*
X2531968Y-3115531D01*
X2531968Y-3115531D02*
X2541491Y-3134579D01*
X2541491Y-3134579D02*
X2551015Y-3172674D01*
X2551015Y-3172674D02*
X2551015Y-3220293D01*
X2551015Y-3220293D02*
X2541491Y-3258388D01*
X2541491Y-3258388D02*
X2531968Y-3277436D01*
X2531968Y-3277436D02*
X2522444Y-3286960D01*
X2522444Y-3286960D02*
X2503396Y-3296484D01*
X2503396Y-3296484D02*
X2484348Y-3296484D01*
X2484348Y-3296484D02*
X2465301Y-3286960D01*
X2465301Y-3286960D02*
X2455777Y-3277436D01*
X2455777Y-3277436D02*
X2446253Y-3258388D01*
X2446253Y-3258388D02*
X2436729Y-3220293D01*
X2436729Y-3220293D02*
X2436729Y-3172674D01*
X2436729Y-3172674D02*
X2446253Y-3134579D01*
X2446253Y-3134579D02*
X2455777Y-3115531D01*
X2455777Y-3115531D02*
X2465301Y-3106008D01*
X2465301Y-3106008D02*
X2484348Y-3096484D01*
X2741491Y-3296484D02*
X2627206Y-3296484D01*
X2684348Y-3296484D02*
X2684348Y-3096484D01*
X2684348Y-3096484D02*
X2665301Y-3125055D01*
X2665301Y-3125055D02*
X2646253Y-3144103D01*
X2646253Y-3144103D02*
X2627206Y-3153627D01*
X2808158Y-3096484D02*
X2941491Y-3096484D01*
X2941491Y-3096484D02*
X2855777Y-3296484D01*
X2998634Y-3096484D02*
X3131967Y-3096484D01*
X3131967Y-3096484D02*
X3046253Y-3296484D01*
X3198634Y-3096484D02*
X3198634Y-3134579D01*
X3274825Y-3096484D02*
X3274825Y-3134579D01*
X3570063Y-3372674D02*
X3560539Y-3363150D01*
X3560539Y-3363150D02*
X3541491Y-3334579D01*
X3541491Y-3334579D02*
X3531968Y-3315531D01*
X3531968Y-3315531D02*
X3522444Y-3286960D01*
X3522444Y-3286960D02*
X3512920Y-3239341D01*
X3512920Y-3239341D02*
X3512920Y-3201246D01*
X3512920Y-3201246D02*
X3522444Y-3153627D01*
X3522444Y-3153627D02*
X3531968Y-3125055D01*
X3531968Y-3125055D02*
X3541491Y-3106008D01*
X3541491Y-3106008D02*
X3560539Y-3077436D01*
X3560539Y-3077436D02*
X3570063Y-3067912D01*
X3636729Y-3115531D02*
X3646253Y-3106008D01*
X3646253Y-3106008D02*
X3665301Y-3096484D01*
X3665301Y-3096484D02*
X3712920Y-3096484D01*
X3712920Y-3096484D02*
X3731968Y-3106008D01*
X3731968Y-3106008D02*
X3741491Y-3115531D01*
X3741491Y-3115531D02*
X3751015Y-3134579D01*
X3751015Y-3134579D02*
X3751015Y-3153627D01*
X3751015Y-3153627D02*
X3741491Y-3182198D01*
X3741491Y-3182198D02*
X3627206Y-3296484D01*
X3627206Y-3296484D02*
X3751015Y-3296484D01*
X3989110Y-3296484D02*
X3989110Y-3096484D01*
X4074825Y-3296484D02*
X4074825Y-3191722D01*
X4074825Y-3191722D02*
X4065301Y-3172674D01*
X4065301Y-3172674D02*
X4046253Y-3163150D01*
X4046253Y-3163150D02*
X4017682Y-3163150D01*
X4017682Y-3163150D02*
X3998634Y-3172674D01*
X3998634Y-3172674D02*
X3989110Y-3182198D01*
X4198634Y-3296484D02*
X4179587Y-3286960D01*
X4179587Y-3286960D02*
X4170063Y-3277436D01*
X4170063Y-3277436D02*
X4160539Y-3258388D01*
X4160539Y-3258388D02*
X4160539Y-3201246D01*
X4160539Y-3201246D02*
X4170063Y-3182198D01*
X4170063Y-3182198D02*
X4179587Y-3172674D01*
X4179587Y-3172674D02*
X4198634Y-3163150D01*
X4198634Y-3163150D02*
X4227206Y-3163150D01*
X4227206Y-3163150D02*
X4246253Y-3172674D01*
X4246253Y-3172674D02*
X4255777Y-3182198D01*
X4255777Y-3182198D02*
X4265301Y-3201246D01*
X4265301Y-3201246D02*
X4265301Y-3258388D01*
X4265301Y-3258388D02*
X4255777Y-3277436D01*
X4255777Y-3277436D02*
X4246253Y-3286960D01*
X4246253Y-3286960D02*
X4227206Y-3296484D01*
X4227206Y-3296484D02*
X4198634Y-3296484D01*
X4379587Y-3296484D02*
X4360539Y-3286960D01*
X4360539Y-3286960D02*
X4351015Y-3267912D01*
X4351015Y-3267912D02*
X4351015Y-3096484D01*
X4531968Y-3286960D02*
X4512920Y-3296484D01*
X4512920Y-3296484D02*
X4474825Y-3296484D01*
X4474825Y-3296484D02*
X4455777Y-3286960D01*
X4455777Y-3286960D02*
X4446253Y-3267912D01*
X4446253Y-3267912D02*
X4446253Y-3191722D01*
X4446253Y-3191722D02*
X4455777Y-3172674D01*
X4455777Y-3172674D02*
X4474825Y-3163150D01*
X4474825Y-3163150D02*
X4512920Y-3163150D01*
X4512920Y-3163150D02*
X4531968Y-3172674D01*
X4531968Y-3172674D02*
X4541492Y-3191722D01*
X4541492Y-3191722D02*
X4541492Y-3210769D01*
X4541492Y-3210769D02*
X4446253Y-3229817D01*
X4617682Y-3286960D02*
X4636730Y-3296484D01*
X4636730Y-3296484D02*
X4674825Y-3296484D01*
X4674825Y-3296484D02*
X4693873Y-3286960D01*
X4693873Y-3286960D02*
X4703396Y-3267912D01*
X4703396Y-3267912D02*
X4703396Y-3258388D01*
X4703396Y-3258388D02*
X4693873Y-3239341D01*
X4693873Y-3239341D02*
X4674825Y-3229817D01*
X4674825Y-3229817D02*
X4646253Y-3229817D01*
X4646253Y-3229817D02*
X4627206Y-3220293D01*
X4627206Y-3220293D02*
X4617682Y-3201246D01*
X4617682Y-3201246D02*
X4617682Y-3191722D01*
X4617682Y-3191722D02*
X4627206Y-3172674D01*
X4627206Y-3172674D02*
X4646253Y-3163150D01*
X4646253Y-3163150D02*
X4674825Y-3163150D01*
X4674825Y-3163150D02*
X4693873Y-3172674D01*
X4770063Y-3372674D02*
X4779587Y-3363150D01*
X4779587Y-3363150D02*
X4798634Y-3334579D01*
X4798634Y-3334579D02*
X4808158Y-3315531D01*
X4808158Y-3315531D02*
X4817682Y-3286960D01*
X4817682Y-3286960D02*
X4827206Y-3239341D01*
X4827206Y-3239341D02*
X4827206Y-3201246D01*
X4827206Y-3201246D02*
X4817682Y-3153627D01*
X4817682Y-3153627D02*
X4808158Y-3125055D01*
X4808158Y-3125055D02*
X4798634Y-3106008D01*
X4798634Y-3106008D02*
X4779587Y-3077436D01*
X4779587Y-3077436D02*
X4770063Y-3067912D01*
D10*
X-13787Y-3490213D02*
X-13787Y-3447787D01*
X-56213Y-3447787D01*
X-56213Y-3490213D01*
X-13787Y-3490213D01*
D11*
X293872Y-3360484D02*
X312920Y-3360484D01*
X312920Y-3360484D02*
X331967Y-3370008D01*
X331967Y-3370008D02*
X341491Y-3379531D01*
X341491Y-3379531D02*
X351015Y-3398579D01*
X351015Y-3398579D02*
X360539Y-3436674D01*
X360539Y-3436674D02*
X360539Y-3484293D01*
X360539Y-3484293D02*
X351015Y-3522388D01*
X351015Y-3522388D02*
X341491Y-3541436D01*
X341491Y-3541436D02*
X331967Y-3550960D01*
X331967Y-3550960D02*
X312920Y-3560484D01*
X312920Y-3560484D02*
X293872Y-3560484D01*
X293872Y-3560484D02*
X274824Y-3550960D01*
X274824Y-3550960D02*
X265301Y-3541436D01*
X265301Y-3541436D02*
X255777Y-3522388D01*
X255777Y-3522388D02*
X246253Y-3484293D01*
X246253Y-3484293D02*
X246253Y-3436674D01*
X246253Y-3436674D02*
X255777Y-3398579D01*
X255777Y-3398579D02*
X265301Y-3379531D01*
X265301Y-3379531D02*
X274824Y-3370008D01*
X274824Y-3370008D02*
X293872Y-3360484D01*
X446253Y-3541436D02*
X455777Y-3550960D01*
X455777Y-3550960D02*
X446253Y-3560484D01*
X446253Y-3560484D02*
X436729Y-3550960D01*
X436729Y-3550960D02*
X446253Y-3541436D01*
X446253Y-3541436D02*
X446253Y-3560484D01*
X627205Y-3360484D02*
X589110Y-3360484D01*
X589110Y-3360484D02*
X570063Y-3370008D01*
X570063Y-3370008D02*
X560539Y-3379531D01*
X560539Y-3379531D02*
X541491Y-3408103D01*
X541491Y-3408103D02*
X531967Y-3446198D01*
X531967Y-3446198D02*
X531967Y-3522388D01*
X531967Y-3522388D02*
X541491Y-3541436D01*
X541491Y-3541436D02*
X551015Y-3550960D01*
X551015Y-3550960D02*
X570063Y-3560484D01*
X570063Y-3560484D02*
X608158Y-3560484D01*
X608158Y-3560484D02*
X627205Y-3550960D01*
X627205Y-3550960D02*
X636729Y-3541436D01*
X636729Y-3541436D02*
X646253Y-3522388D01*
X646253Y-3522388D02*
X646253Y-3474769D01*
X646253Y-3474769D02*
X636729Y-3455722D01*
X636729Y-3455722D02*
X627205Y-3446198D01*
X627205Y-3446198D02*
X608158Y-3436674D01*
X608158Y-3436674D02*
X570063Y-3436674D01*
X570063Y-3436674D02*
X551015Y-3446198D01*
X551015Y-3446198D02*
X541491Y-3455722D01*
X541491Y-3455722D02*
X531967Y-3474769D01*
X770062Y-3360484D02*
X789110Y-3360484D01*
X789110Y-3360484D02*
X808158Y-3370008D01*
X808158Y-3370008D02*
X817682Y-3379531D01*
X817682Y-3379531D02*
X827205Y-3398579D01*
X827205Y-3398579D02*
X836729Y-3436674D01*
X836729Y-3436674D02*
X836729Y-3484293D01*
X836729Y-3484293D02*
X827205Y-3522388D01*
X827205Y-3522388D02*
X817682Y-3541436D01*
X817682Y-3541436D02*
X808158Y-3550960D01*
X808158Y-3550960D02*
X789110Y-3560484D01*
X789110Y-3560484D02*
X770062Y-3560484D01*
X770062Y-3560484D02*
X751015Y-3550960D01*
X751015Y-3550960D02*
X741491Y-3541436D01*
X741491Y-3541436D02*
X731967Y-3522388D01*
X731967Y-3522388D02*
X722443Y-3484293D01*
X722443Y-3484293D02*
X722443Y-3436674D01*
X722443Y-3436674D02*
X731967Y-3398579D01*
X731967Y-3398579D02*
X741491Y-3379531D01*
X741491Y-3379531D02*
X751015Y-3370008D01*
X751015Y-3370008D02*
X770062Y-3360484D01*
X960539Y-3360484D02*
X979586Y-3360484D01*
X979586Y-3360484D02*
X998634Y-3370008D01*
X998634Y-3370008D02*
X1008158Y-3379531D01*
X1008158Y-3379531D02*
X1017682Y-3398579D01*
X1017682Y-3398579D02*
X1027205Y-3436674D01*
X1027205Y-3436674D02*
X1027205Y-3484293D01*
X1027205Y-3484293D02*
X1017682Y-3522388D01*
X1017682Y-3522388D02*
X1008158Y-3541436D01*
X1008158Y-3541436D02*
X998634Y-3550960D01*
X998634Y-3550960D02*
X979586Y-3560484D01*
X979586Y-3560484D02*
X960539Y-3560484D01*
X960539Y-3560484D02*
X941491Y-3550960D01*
X941491Y-3550960D02*
X931967Y-3541436D01*
X931967Y-3541436D02*
X922443Y-3522388D01*
X922443Y-3522388D02*
X912920Y-3484293D01*
X912920Y-3484293D02*
X912920Y-3436674D01*
X912920Y-3436674D02*
X922443Y-3398579D01*
X922443Y-3398579D02*
X931967Y-3379531D01*
X931967Y-3379531D02*
X941491Y-3370008D01*
X941491Y-3370008D02*
X960539Y-3360484D01*
X1112920Y-3560484D02*
X1112920Y-3427150D01*
X1112920Y-3446198D02*
X1122444Y-3436674D01*
X1122444Y-3436674D02*
X1141491Y-3427150D01*
X1141491Y-3427150D02*
X1170063Y-3427150D01*
X1170063Y-3427150D02*
X1189110Y-3436674D01*
X1189110Y-3436674D02*
X1198634Y-3455722D01*
X1198634Y-3455722D02*
X1198634Y-3560484D01*
X1198634Y-3455722D02*
X1208158Y-3436674D01*
X1208158Y-3436674D02*
X1227205Y-3427150D01*
X1227205Y-3427150D02*
X1255777Y-3427150D01*
X1255777Y-3427150D02*
X1274825Y-3436674D01*
X1274825Y-3436674D02*
X1284348Y-3455722D01*
X1284348Y-3455722D02*
X1284348Y-3560484D01*
X1379586Y-3560484D02*
X1379586Y-3427150D01*
X1379586Y-3446198D02*
X1389110Y-3436674D01*
X1389110Y-3436674D02*
X1408158Y-3427150D01*
X1408158Y-3427150D02*
X1436729Y-3427150D01*
X1436729Y-3427150D02*
X1455777Y-3436674D01*
X1455777Y-3436674D02*
X1465301Y-3455722D01*
X1465301Y-3455722D02*
X1465301Y-3560484D01*
X1465301Y-3455722D02*
X1474824Y-3436674D01*
X1474824Y-3436674D02*
X1493872Y-3427150D01*
X1493872Y-3427150D02*
X1522443Y-3427150D01*
X1522443Y-3427150D02*
X1541491Y-3436674D01*
X1541491Y-3436674D02*
X1551015Y-3455722D01*
X1551015Y-3455722D02*
X1551015Y-3560484D01*
X1941491Y-3350960D02*
X1770063Y-3608103D01*
X2198634Y-3360484D02*
X2217682Y-3360484D01*
X2217682Y-3360484D02*
X2236729Y-3370008D01*
X2236729Y-3370008D02*
X2246253Y-3379531D01*
X2246253Y-3379531D02*
X2255777Y-3398579D01*
X2255777Y-3398579D02*
X2265301Y-3436674D01*
X2265301Y-3436674D02*
X2265301Y-3484293D01*
X2265301Y-3484293D02*
X2255777Y-3522388D01*
X2255777Y-3522388D02*
X2246253Y-3541436D01*
X2246253Y-3541436D02*
X2236729Y-3550960D01*
X2236729Y-3550960D02*
X2217682Y-3560484D01*
X2217682Y-3560484D02*
X2198634Y-3560484D01*
X2198634Y-3560484D02*
X2179587Y-3550960D01*
X2179587Y-3550960D02*
X2170063Y-3541436D01*
X2170063Y-3541436D02*
X2160539Y-3522388D01*
X2160539Y-3522388D02*
X2151015Y-3484293D01*
X2151015Y-3484293D02*
X2151015Y-3436674D01*
X2151015Y-3436674D02*
X2160539Y-3398579D01*
X2160539Y-3398579D02*
X2170063Y-3379531D01*
X2170063Y-3379531D02*
X2179587Y-3370008D01*
X2179587Y-3370008D02*
X2198634Y-3360484D01*
X2351015Y-3541436D02*
X2360539Y-3550960D01*
X2360539Y-3550960D02*
X2351015Y-3560484D01*
X2351015Y-3560484D02*
X2341491Y-3550960D01*
X2341491Y-3550960D02*
X2351015Y-3541436D01*
X2351015Y-3541436D02*
X2351015Y-3560484D01*
X2484348Y-3360484D02*
X2503396Y-3360484D01*
X2503396Y-3360484D02*
X2522444Y-3370008D01*
X2522444Y-3370008D02*
X2531968Y-3379531D01*
X2531968Y-3379531D02*
X2541491Y-3398579D01*
X2541491Y-3398579D02*
X2551015Y-3436674D01*
X2551015Y-3436674D02*
X2551015Y-3484293D01*
X2551015Y-3484293D02*
X2541491Y-3522388D01*
X2541491Y-3522388D02*
X2531968Y-3541436D01*
X2531968Y-3541436D02*
X2522444Y-3550960D01*
X2522444Y-3550960D02*
X2503396Y-3560484D01*
X2503396Y-3560484D02*
X2484348Y-3560484D01*
X2484348Y-3560484D02*
X2465301Y-3550960D01*
X2465301Y-3550960D02*
X2455777Y-3541436D01*
X2455777Y-3541436D02*
X2446253Y-3522388D01*
X2446253Y-3522388D02*
X2436729Y-3484293D01*
X2436729Y-3484293D02*
X2436729Y-3436674D01*
X2436729Y-3436674D02*
X2446253Y-3398579D01*
X2446253Y-3398579D02*
X2455777Y-3379531D01*
X2455777Y-3379531D02*
X2465301Y-3370008D01*
X2465301Y-3370008D02*
X2484348Y-3360484D01*
X2627206Y-3379531D02*
X2636729Y-3370008D01*
X2636729Y-3370008D02*
X2655777Y-3360484D01*
X2655777Y-3360484D02*
X2703396Y-3360484D01*
X2703396Y-3360484D02*
X2722444Y-3370008D01*
X2722444Y-3370008D02*
X2731968Y-3379531D01*
X2731968Y-3379531D02*
X2741491Y-3398579D01*
X2741491Y-3398579D02*
X2741491Y-3417627D01*
X2741491Y-3417627D02*
X2731968Y-3446198D01*
X2731968Y-3446198D02*
X2617682Y-3560484D01*
X2617682Y-3560484D02*
X2741491Y-3560484D01*
X2808158Y-3360484D02*
X2931967Y-3360484D01*
X2931967Y-3360484D02*
X2865301Y-3436674D01*
X2865301Y-3436674D02*
X2893872Y-3436674D01*
X2893872Y-3436674D02*
X2912920Y-3446198D01*
X2912920Y-3446198D02*
X2922444Y-3455722D01*
X2922444Y-3455722D02*
X2931967Y-3474769D01*
X2931967Y-3474769D02*
X2931967Y-3522388D01*
X2931967Y-3522388D02*
X2922444Y-3541436D01*
X2922444Y-3541436D02*
X2912920Y-3550960D01*
X2912920Y-3550960D02*
X2893872Y-3560484D01*
X2893872Y-3560484D02*
X2836729Y-3560484D01*
X2836729Y-3560484D02*
X2817682Y-3550960D01*
X2817682Y-3550960D02*
X2808158Y-3541436D01*
X3103396Y-3360484D02*
X3065301Y-3360484D01*
X3065301Y-3360484D02*
X3046253Y-3370008D01*
X3046253Y-3370008D02*
X3036729Y-3379531D01*
X3036729Y-3379531D02*
X3017682Y-3408103D01*
X3017682Y-3408103D02*
X3008158Y-3446198D01*
X3008158Y-3446198D02*
X3008158Y-3522388D01*
X3008158Y-3522388D02*
X3017682Y-3541436D01*
X3017682Y-3541436D02*
X3027206Y-3550960D01*
X3027206Y-3550960D02*
X3046253Y-3560484D01*
X3046253Y-3560484D02*
X3084348Y-3560484D01*
X3084348Y-3560484D02*
X3103396Y-3550960D01*
X3103396Y-3550960D02*
X3112920Y-3541436D01*
X3112920Y-3541436D02*
X3122444Y-3522388D01*
X3122444Y-3522388D02*
X3122444Y-3474769D01*
X3122444Y-3474769D02*
X3112920Y-3455722D01*
X3112920Y-3455722D02*
X3103396Y-3446198D01*
X3103396Y-3446198D02*
X3084348Y-3436674D01*
X3084348Y-3436674D02*
X3046253Y-3436674D01*
X3046253Y-3436674D02*
X3027206Y-3446198D01*
X3027206Y-3446198D02*
X3017682Y-3455722D01*
X3017682Y-3455722D02*
X3008158Y-3474769D01*
X3198634Y-3360484D02*
X3198634Y-3398579D01*
X3274825Y-3360484D02*
X3274825Y-3398579D01*
X3570063Y-3636674D02*
X3560539Y-3627150D01*
X3560539Y-3627150D02*
X3541491Y-3598579D01*
X3541491Y-3598579D02*
X3531968Y-3579531D01*
X3531968Y-3579531D02*
X3522444Y-3550960D01*
X3522444Y-3550960D02*
X3512920Y-3503341D01*
X3512920Y-3503341D02*
X3512920Y-3465246D01*
X3512920Y-3465246D02*
X3522444Y-3417627D01*
X3522444Y-3417627D02*
X3531968Y-3389055D01*
X3531968Y-3389055D02*
X3541491Y-3370008D01*
X3541491Y-3370008D02*
X3560539Y-3341436D01*
X3560539Y-3341436D02*
X3570063Y-3331912D01*
X3684348Y-3360484D02*
X3703396Y-3360484D01*
X3703396Y-3360484D02*
X3722444Y-3370008D01*
X3722444Y-3370008D02*
X3731968Y-3379531D01*
X3731968Y-3379531D02*
X3741491Y-3398579D01*
X3741491Y-3398579D02*
X3751015Y-3436674D01*
X3751015Y-3436674D02*
X3751015Y-3484293D01*
X3751015Y-3484293D02*
X3741491Y-3522388D01*
X3741491Y-3522388D02*
X3731968Y-3541436D01*
X3731968Y-3541436D02*
X3722444Y-3550960D01*
X3722444Y-3550960D02*
X3703396Y-3560484D01*
X3703396Y-3560484D02*
X3684348Y-3560484D01*
X3684348Y-3560484D02*
X3665301Y-3550960D01*
X3665301Y-3550960D02*
X3655777Y-3541436D01*
X3655777Y-3541436D02*
X3646253Y-3522388D01*
X3646253Y-3522388D02*
X3636729Y-3484293D01*
X3636729Y-3484293D02*
X3636729Y-3436674D01*
X3636729Y-3436674D02*
X3646253Y-3398579D01*
X3646253Y-3398579D02*
X3655777Y-3379531D01*
X3655777Y-3379531D02*
X3665301Y-3370008D01*
X3665301Y-3370008D02*
X3684348Y-3360484D01*
X3989110Y-3560484D02*
X3989110Y-3360484D01*
X4074825Y-3560484D02*
X4074825Y-3455722D01*
X4074825Y-3455722D02*
X4065301Y-3436674D01*
X4065301Y-3436674D02*
X4046253Y-3427150D01*
X4046253Y-3427150D02*
X4017682Y-3427150D01*
X4017682Y-3427150D02*
X3998634Y-3436674D01*
X3998634Y-3436674D02*
X3989110Y-3446198D01*
X4198634Y-3560484D02*
X4179587Y-3550960D01*
X4179587Y-3550960D02*
X4170063Y-3541436D01*
X4170063Y-3541436D02*
X4160539Y-3522388D01*
X4160539Y-3522388D02*
X4160539Y-3465246D01*
X4160539Y-3465246D02*
X4170063Y-3446198D01*
X4170063Y-3446198D02*
X4179587Y-3436674D01*
X4179587Y-3436674D02*
X4198634Y-3427150D01*
X4198634Y-3427150D02*
X4227206Y-3427150D01*
X4227206Y-3427150D02*
X4246253Y-3436674D01*
X4246253Y-3436674D02*
X4255777Y-3446198D01*
X4255777Y-3446198D02*
X4265301Y-3465246D01*
X4265301Y-3465246D02*
X4265301Y-3522388D01*
X4265301Y-3522388D02*
X4255777Y-3541436D01*
X4255777Y-3541436D02*
X4246253Y-3550960D01*
X4246253Y-3550960D02*
X4227206Y-3560484D01*
X4227206Y-3560484D02*
X4198634Y-3560484D01*
X4379587Y-3560484D02*
X4360539Y-3550960D01*
X4360539Y-3550960D02*
X4351015Y-3531912D01*
X4351015Y-3531912D02*
X4351015Y-3360484D01*
X4531968Y-3550960D02*
X4512920Y-3560484D01*
X4512920Y-3560484D02*
X4474825Y-3560484D01*
X4474825Y-3560484D02*
X4455777Y-3550960D01*
X4455777Y-3550960D02*
X4446253Y-3531912D01*
X4446253Y-3531912D02*
X4446253Y-3455722D01*
X4446253Y-3455722D02*
X4455777Y-3436674D01*
X4455777Y-3436674D02*
X4474825Y-3427150D01*
X4474825Y-3427150D02*
X4512920Y-3427150D01*
X4512920Y-3427150D02*
X4531968Y-3436674D01*
X4531968Y-3436674D02*
X4541492Y-3455722D01*
X4541492Y-3455722D02*
X4541492Y-3474769D01*
X4541492Y-3474769D02*
X4446253Y-3493817D01*
X4617682Y-3550960D02*
X4636730Y-3560484D01*
X4636730Y-3560484D02*
X4674825Y-3560484D01*
X4674825Y-3560484D02*
X4693873Y-3550960D01*
X4693873Y-3550960D02*
X4703396Y-3531912D01*
X4703396Y-3531912D02*
X4703396Y-3522388D01*
X4703396Y-3522388D02*
X4693873Y-3503341D01*
X4693873Y-3503341D02*
X4674825Y-3493817D01*
X4674825Y-3493817D02*
X4646253Y-3493817D01*
X4646253Y-3493817D02*
X4627206Y-3484293D01*
X4627206Y-3484293D02*
X4617682Y-3465246D01*
X4617682Y-3465246D02*
X4617682Y-3455722D01*
X4617682Y-3455722D02*
X4627206Y-3436674D01*
X4627206Y-3436674D02*
X4646253Y-3427150D01*
X4646253Y-3427150D02*
X4674825Y-3427150D01*
X4674825Y-3427150D02*
X4693873Y-3436674D01*
X4941492Y-3484293D02*
X5093873Y-3484293D01*
X5017682Y-3560484D02*
X5017682Y-3408103D01*
X5427206Y-3427150D02*
X5427206Y-3560484D01*
X5379587Y-3350960D02*
X5331968Y-3493817D01*
X5331968Y-3493817D02*
X5455777Y-3493817D01*
X5674825Y-3550960D02*
X5693873Y-3560484D01*
X5693873Y-3560484D02*
X5731968Y-3560484D01*
X5731968Y-3560484D02*
X5751015Y-3550960D01*
X5751015Y-3550960D02*
X5760539Y-3531912D01*
X5760539Y-3531912D02*
X5760539Y-3522388D01*
X5760539Y-3522388D02*
X5751015Y-3503341D01*
X5751015Y-3503341D02*
X5731968Y-3493817D01*
X5731968Y-3493817D02*
X5703396Y-3493817D01*
X5703396Y-3493817D02*
X5684349Y-3484293D01*
X5684349Y-3484293D02*
X5674825Y-3465246D01*
X5674825Y-3465246D02*
X5674825Y-3455722D01*
X5674825Y-3455722D02*
X5684349Y-3436674D01*
X5684349Y-3436674D02*
X5703396Y-3427150D01*
X5703396Y-3427150D02*
X5731968Y-3427150D01*
X5731968Y-3427150D02*
X5751015Y-3436674D01*
X5874825Y-3560484D02*
X5855777Y-3550960D01*
X5855777Y-3550960D02*
X5846254Y-3531912D01*
X5846254Y-3531912D02*
X5846254Y-3360484D01*
X5979587Y-3560484D02*
X5960539Y-3550960D01*
X5960539Y-3550960D02*
X5951015Y-3541436D01*
X5951015Y-3541436D02*
X5941492Y-3522388D01*
X5941492Y-3522388D02*
X5941492Y-3465246D01*
X5941492Y-3465246D02*
X5951015Y-3446198D01*
X5951015Y-3446198D02*
X5960539Y-3436674D01*
X5960539Y-3436674D02*
X5979587Y-3427150D01*
X5979587Y-3427150D02*
X6008158Y-3427150D01*
X6008158Y-3427150D02*
X6027206Y-3436674D01*
X6027206Y-3436674D02*
X6036730Y-3446198D01*
X6036730Y-3446198D02*
X6046254Y-3465246D01*
X6046254Y-3465246D02*
X6046254Y-3522388D01*
X6046254Y-3522388D02*
X6036730Y-3541436D01*
X6036730Y-3541436D02*
X6027206Y-3550960D01*
X6027206Y-3550960D02*
X6008158Y-3560484D01*
X6008158Y-3560484D02*
X5979587Y-3560484D01*
X6103396Y-3427150D02*
X6179587Y-3427150D01*
X6131968Y-3360484D02*
X6131968Y-3531912D01*
X6131968Y-3531912D02*
X6141492Y-3550960D01*
X6141492Y-3550960D02*
X6160539Y-3560484D01*
X6160539Y-3560484D02*
X6179587Y-3560484D01*
X6236730Y-3550960D02*
X6255777Y-3560484D01*
X6255777Y-3560484D02*
X6293873Y-3560484D01*
X6293873Y-3560484D02*
X6312920Y-3550960D01*
X6312920Y-3550960D02*
X6322444Y-3531912D01*
X6322444Y-3531912D02*
X6322444Y-3522388D01*
X6322444Y-3522388D02*
X6312920Y-3503341D01*
X6312920Y-3503341D02*
X6293873Y-3493817D01*
X6293873Y-3493817D02*
X6265301Y-3493817D01*
X6265301Y-3493817D02*
X6246254Y-3484293D01*
X6246254Y-3484293D02*
X6236730Y-3465246D01*
X6236730Y-3465246D02*
X6236730Y-3455722D01*
X6236730Y-3455722D02*
X6246254Y-3436674D01*
X6246254Y-3436674D02*
X6265301Y-3427150D01*
X6265301Y-3427150D02*
X6293873Y-3427150D01*
X6293873Y-3427150D02*
X6312920Y-3436674D01*
X6389111Y-3636674D02*
X6398635Y-3627150D01*
X6398635Y-3627150D02*
X6417682Y-3598579D01*
X6417682Y-3598579D02*
X6427206Y-3579531D01*
X6427206Y-3579531D02*
X6436730Y-3550960D01*
X6436730Y-3550960D02*
X6446254Y-3503341D01*
X6446254Y-3503341D02*
X6446254Y-3465246D01*
X6446254Y-3465246D02*
X6436730Y-3417627D01*
X6436730Y-3417627D02*
X6427206Y-3389055D01*
X6427206Y-3389055D02*
X6417682Y-3370008D01*
X6417682Y-3370008D02*
X6398635Y-3341436D01*
X6398635Y-3341436D02*
X6389111Y-3331912D01*
D10*
X-42500Y-3770500D02*
X-5000Y-3733000D01*
X-42500Y-3695500D01*
X-80000Y-3733000D01*
X-42500Y-3770500D01*
D11*
X293872Y-3624484D02*
X312920Y-3624484D01*
X312920Y-3624484D02*
X331967Y-3634008D01*
X331967Y-3634008D02*
X341491Y-3643531D01*
X341491Y-3643531D02*
X351015Y-3662579D01*
X351015Y-3662579D02*
X360539Y-3700674D01*
X360539Y-3700674D02*
X360539Y-3748293D01*
X360539Y-3748293D02*
X351015Y-3786388D01*
X351015Y-3786388D02*
X341491Y-3805436D01*
X341491Y-3805436D02*
X331967Y-3814960D01*
X331967Y-3814960D02*
X312920Y-3824484D01*
X312920Y-3824484D02*
X293872Y-3824484D01*
X293872Y-3824484D02*
X274824Y-3814960D01*
X274824Y-3814960D02*
X265301Y-3805436D01*
X265301Y-3805436D02*
X255777Y-3786388D01*
X255777Y-3786388D02*
X246253Y-3748293D01*
X246253Y-3748293D02*
X246253Y-3700674D01*
X246253Y-3700674D02*
X255777Y-3662579D01*
X255777Y-3662579D02*
X265301Y-3643531D01*
X265301Y-3643531D02*
X274824Y-3634008D01*
X274824Y-3634008D02*
X293872Y-3624484D01*
X446253Y-3805436D02*
X455777Y-3814960D01*
X455777Y-3814960D02*
X446253Y-3824484D01*
X446253Y-3824484D02*
X436729Y-3814960D01*
X436729Y-3814960D02*
X446253Y-3805436D01*
X446253Y-3805436D02*
X446253Y-3824484D01*
X522443Y-3624484D02*
X655777Y-3624484D01*
X655777Y-3624484D02*
X570063Y-3824484D01*
X827205Y-3624484D02*
X731967Y-3624484D01*
X731967Y-3624484D02*
X722443Y-3719722D01*
X722443Y-3719722D02*
X731967Y-3710198D01*
X731967Y-3710198D02*
X751015Y-3700674D01*
X751015Y-3700674D02*
X798634Y-3700674D01*
X798634Y-3700674D02*
X817682Y-3710198D01*
X817682Y-3710198D02*
X827205Y-3719722D01*
X827205Y-3719722D02*
X836729Y-3738769D01*
X836729Y-3738769D02*
X836729Y-3786388D01*
X836729Y-3786388D02*
X827205Y-3805436D01*
X827205Y-3805436D02*
X817682Y-3814960D01*
X817682Y-3814960D02*
X798634Y-3824484D01*
X798634Y-3824484D02*
X751015Y-3824484D01*
X751015Y-3824484D02*
X731967Y-3814960D01*
X731967Y-3814960D02*
X722443Y-3805436D01*
X960539Y-3624484D02*
X979586Y-3624484D01*
X979586Y-3624484D02*
X998634Y-3634008D01*
X998634Y-3634008D02*
X1008158Y-3643531D01*
X1008158Y-3643531D02*
X1017682Y-3662579D01*
X1017682Y-3662579D02*
X1027205Y-3700674D01*
X1027205Y-3700674D02*
X1027205Y-3748293D01*
X1027205Y-3748293D02*
X1017682Y-3786388D01*
X1017682Y-3786388D02*
X1008158Y-3805436D01*
X1008158Y-3805436D02*
X998634Y-3814960D01*
X998634Y-3814960D02*
X979586Y-3824484D01*
X979586Y-3824484D02*
X960539Y-3824484D01*
X960539Y-3824484D02*
X941491Y-3814960D01*
X941491Y-3814960D02*
X931967Y-3805436D01*
X931967Y-3805436D02*
X922443Y-3786388D01*
X922443Y-3786388D02*
X912920Y-3748293D01*
X912920Y-3748293D02*
X912920Y-3700674D01*
X912920Y-3700674D02*
X922443Y-3662579D01*
X922443Y-3662579D02*
X931967Y-3643531D01*
X931967Y-3643531D02*
X941491Y-3634008D01*
X941491Y-3634008D02*
X960539Y-3624484D01*
X1112920Y-3824484D02*
X1112920Y-3691150D01*
X1112920Y-3710198D02*
X1122444Y-3700674D01*
X1122444Y-3700674D02*
X1141491Y-3691150D01*
X1141491Y-3691150D02*
X1170063Y-3691150D01*
X1170063Y-3691150D02*
X1189110Y-3700674D01*
X1189110Y-3700674D02*
X1198634Y-3719722D01*
X1198634Y-3719722D02*
X1198634Y-3824484D01*
X1198634Y-3719722D02*
X1208158Y-3700674D01*
X1208158Y-3700674D02*
X1227205Y-3691150D01*
X1227205Y-3691150D02*
X1255777Y-3691150D01*
X1255777Y-3691150D02*
X1274825Y-3700674D01*
X1274825Y-3700674D02*
X1284348Y-3719722D01*
X1284348Y-3719722D02*
X1284348Y-3824484D01*
X1379586Y-3824484D02*
X1379586Y-3691150D01*
X1379586Y-3710198D02*
X1389110Y-3700674D01*
X1389110Y-3700674D02*
X1408158Y-3691150D01*
X1408158Y-3691150D02*
X1436729Y-3691150D01*
X1436729Y-3691150D02*
X1455777Y-3700674D01*
X1455777Y-3700674D02*
X1465301Y-3719722D01*
X1465301Y-3719722D02*
X1465301Y-3824484D01*
X1465301Y-3719722D02*
X1474824Y-3700674D01*
X1474824Y-3700674D02*
X1493872Y-3691150D01*
X1493872Y-3691150D02*
X1522443Y-3691150D01*
X1522443Y-3691150D02*
X1541491Y-3700674D01*
X1541491Y-3700674D02*
X1551015Y-3719722D01*
X1551015Y-3719722D02*
X1551015Y-3824484D01*
X1941491Y-3614960D02*
X1770063Y-3872103D01*
X2198634Y-3624484D02*
X2217682Y-3624484D01*
X2217682Y-3624484D02*
X2236729Y-3634008D01*
X2236729Y-3634008D02*
X2246253Y-3643531D01*
X2246253Y-3643531D02*
X2255777Y-3662579D01*
X2255777Y-3662579D02*
X2265301Y-3700674D01*
X2265301Y-3700674D02*
X2265301Y-3748293D01*
X2265301Y-3748293D02*
X2255777Y-3786388D01*
X2255777Y-3786388D02*
X2246253Y-3805436D01*
X2246253Y-3805436D02*
X2236729Y-3814960D01*
X2236729Y-3814960D02*
X2217682Y-3824484D01*
X2217682Y-3824484D02*
X2198634Y-3824484D01*
X2198634Y-3824484D02*
X2179587Y-3814960D01*
X2179587Y-3814960D02*
X2170063Y-3805436D01*
X2170063Y-3805436D02*
X2160539Y-3786388D01*
X2160539Y-3786388D02*
X2151015Y-3748293D01*
X2151015Y-3748293D02*
X2151015Y-3700674D01*
X2151015Y-3700674D02*
X2160539Y-3662579D01*
X2160539Y-3662579D02*
X2170063Y-3643531D01*
X2170063Y-3643531D02*
X2179587Y-3634008D01*
X2179587Y-3634008D02*
X2198634Y-3624484D01*
X2351015Y-3805436D02*
X2360539Y-3814960D01*
X2360539Y-3814960D02*
X2351015Y-3824484D01*
X2351015Y-3824484D02*
X2341491Y-3814960D01*
X2341491Y-3814960D02*
X2351015Y-3805436D01*
X2351015Y-3805436D02*
X2351015Y-3824484D01*
X2484348Y-3624484D02*
X2503396Y-3624484D01*
X2503396Y-3624484D02*
X2522444Y-3634008D01*
X2522444Y-3634008D02*
X2531968Y-3643531D01*
X2531968Y-3643531D02*
X2541491Y-3662579D01*
X2541491Y-3662579D02*
X2551015Y-3700674D01*
X2551015Y-3700674D02*
X2551015Y-3748293D01*
X2551015Y-3748293D02*
X2541491Y-3786388D01*
X2541491Y-3786388D02*
X2531968Y-3805436D01*
X2531968Y-3805436D02*
X2522444Y-3814960D01*
X2522444Y-3814960D02*
X2503396Y-3824484D01*
X2503396Y-3824484D02*
X2484348Y-3824484D01*
X2484348Y-3824484D02*
X2465301Y-3814960D01*
X2465301Y-3814960D02*
X2455777Y-3805436D01*
X2455777Y-3805436D02*
X2446253Y-3786388D01*
X2446253Y-3786388D02*
X2436729Y-3748293D01*
X2436729Y-3748293D02*
X2436729Y-3700674D01*
X2436729Y-3700674D02*
X2446253Y-3662579D01*
X2446253Y-3662579D02*
X2455777Y-3643531D01*
X2455777Y-3643531D02*
X2465301Y-3634008D01*
X2465301Y-3634008D02*
X2484348Y-3624484D01*
X2627206Y-3643531D02*
X2636729Y-3634008D01*
X2636729Y-3634008D02*
X2655777Y-3624484D01*
X2655777Y-3624484D02*
X2703396Y-3624484D01*
X2703396Y-3624484D02*
X2722444Y-3634008D01*
X2722444Y-3634008D02*
X2731968Y-3643531D01*
X2731968Y-3643531D02*
X2741491Y-3662579D01*
X2741491Y-3662579D02*
X2741491Y-3681627D01*
X2741491Y-3681627D02*
X2731968Y-3710198D01*
X2731968Y-3710198D02*
X2617682Y-3824484D01*
X2617682Y-3824484D02*
X2741491Y-3824484D01*
X2836729Y-3824484D02*
X2874825Y-3824484D01*
X2874825Y-3824484D02*
X2893872Y-3814960D01*
X2893872Y-3814960D02*
X2903396Y-3805436D01*
X2903396Y-3805436D02*
X2922444Y-3776865D01*
X2922444Y-3776865D02*
X2931967Y-3738769D01*
X2931967Y-3738769D02*
X2931967Y-3662579D01*
X2931967Y-3662579D02*
X2922444Y-3643531D01*
X2922444Y-3643531D02*
X2912920Y-3634008D01*
X2912920Y-3634008D02*
X2893872Y-3624484D01*
X2893872Y-3624484D02*
X2855777Y-3624484D01*
X2855777Y-3624484D02*
X2836729Y-3634008D01*
X2836729Y-3634008D02*
X2827206Y-3643531D01*
X2827206Y-3643531D02*
X2817682Y-3662579D01*
X2817682Y-3662579D02*
X2817682Y-3710198D01*
X2817682Y-3710198D02*
X2827206Y-3729246D01*
X2827206Y-3729246D02*
X2836729Y-3738769D01*
X2836729Y-3738769D02*
X2855777Y-3748293D01*
X2855777Y-3748293D02*
X2893872Y-3748293D01*
X2893872Y-3748293D02*
X2912920Y-3738769D01*
X2912920Y-3738769D02*
X2922444Y-3729246D01*
X2922444Y-3729246D02*
X2931967Y-3710198D01*
X3112920Y-3624484D02*
X3017682Y-3624484D01*
X3017682Y-3624484D02*
X3008158Y-3719722D01*
X3008158Y-3719722D02*
X3017682Y-3710198D01*
X3017682Y-3710198D02*
X3036729Y-3700674D01*
X3036729Y-3700674D02*
X3084348Y-3700674D01*
X3084348Y-3700674D02*
X3103396Y-3710198D01*
X3103396Y-3710198D02*
X3112920Y-3719722D01*
X3112920Y-3719722D02*
X3122444Y-3738769D01*
X3122444Y-3738769D02*
X3122444Y-3786388D01*
X3122444Y-3786388D02*
X3112920Y-3805436D01*
X3112920Y-3805436D02*
X3103396Y-3814960D01*
X3103396Y-3814960D02*
X3084348Y-3824484D01*
X3084348Y-3824484D02*
X3036729Y-3824484D01*
X3036729Y-3824484D02*
X3017682Y-3814960D01*
X3017682Y-3814960D02*
X3008158Y-3805436D01*
X3198634Y-3624484D02*
X3198634Y-3662579D01*
X3274825Y-3624484D02*
X3274825Y-3662579D01*
X3570063Y-3900674D02*
X3560539Y-3891150D01*
X3560539Y-3891150D02*
X3541491Y-3862579D01*
X3541491Y-3862579D02*
X3531968Y-3843531D01*
X3531968Y-3843531D02*
X3522444Y-3814960D01*
X3522444Y-3814960D02*
X3512920Y-3767341D01*
X3512920Y-3767341D02*
X3512920Y-3729246D01*
X3512920Y-3729246D02*
X3522444Y-3681627D01*
X3522444Y-3681627D02*
X3531968Y-3653055D01*
X3531968Y-3653055D02*
X3541491Y-3634008D01*
X3541491Y-3634008D02*
X3560539Y-3605436D01*
X3560539Y-3605436D02*
X3570063Y-3595912D01*
X3636729Y-3643531D02*
X3646253Y-3634008D01*
X3646253Y-3634008D02*
X3665301Y-3624484D01*
X3665301Y-3624484D02*
X3712920Y-3624484D01*
X3712920Y-3624484D02*
X3731968Y-3634008D01*
X3731968Y-3634008D02*
X3741491Y-3643531D01*
X3741491Y-3643531D02*
X3751015Y-3662579D01*
X3751015Y-3662579D02*
X3751015Y-3681627D01*
X3751015Y-3681627D02*
X3741491Y-3710198D01*
X3741491Y-3710198D02*
X3627206Y-3824484D01*
X3627206Y-3824484D02*
X3751015Y-3824484D01*
X3989110Y-3824484D02*
X3989110Y-3624484D01*
X4074825Y-3824484D02*
X4074825Y-3719722D01*
X4074825Y-3719722D02*
X4065301Y-3700674D01*
X4065301Y-3700674D02*
X4046253Y-3691150D01*
X4046253Y-3691150D02*
X4017682Y-3691150D01*
X4017682Y-3691150D02*
X3998634Y-3700674D01*
X3998634Y-3700674D02*
X3989110Y-3710198D01*
X4198634Y-3824484D02*
X4179587Y-3814960D01*
X4179587Y-3814960D02*
X4170063Y-3805436D01*
X4170063Y-3805436D02*
X4160539Y-3786388D01*
X4160539Y-3786388D02*
X4160539Y-3729246D01*
X4160539Y-3729246D02*
X4170063Y-3710198D01*
X4170063Y-3710198D02*
X4179587Y-3700674D01*
X4179587Y-3700674D02*
X4198634Y-3691150D01*
X4198634Y-3691150D02*
X4227206Y-3691150D01*
X4227206Y-3691150D02*
X4246253Y-3700674D01*
X4246253Y-3700674D02*
X4255777Y-3710198D01*
X4255777Y-3710198D02*
X4265301Y-3729246D01*
X4265301Y-3729246D02*
X4265301Y-3786388D01*
X4265301Y-3786388D02*
X4255777Y-3805436D01*
X4255777Y-3805436D02*
X4246253Y-3814960D01*
X4246253Y-3814960D02*
X4227206Y-3824484D01*
X4227206Y-3824484D02*
X4198634Y-3824484D01*
X4379587Y-3824484D02*
X4360539Y-3814960D01*
X4360539Y-3814960D02*
X4351015Y-3795912D01*
X4351015Y-3795912D02*
X4351015Y-3624484D01*
X4531968Y-3814960D02*
X4512920Y-3824484D01*
X4512920Y-3824484D02*
X4474825Y-3824484D01*
X4474825Y-3824484D02*
X4455777Y-3814960D01*
X4455777Y-3814960D02*
X4446253Y-3795912D01*
X4446253Y-3795912D02*
X4446253Y-3719722D01*
X4446253Y-3719722D02*
X4455777Y-3700674D01*
X4455777Y-3700674D02*
X4474825Y-3691150D01*
X4474825Y-3691150D02*
X4512920Y-3691150D01*
X4512920Y-3691150D02*
X4531968Y-3700674D01*
X4531968Y-3700674D02*
X4541492Y-3719722D01*
X4541492Y-3719722D02*
X4541492Y-3738769D01*
X4541492Y-3738769D02*
X4446253Y-3757817D01*
X4617682Y-3814960D02*
X4636730Y-3824484D01*
X4636730Y-3824484D02*
X4674825Y-3824484D01*
X4674825Y-3824484D02*
X4693873Y-3814960D01*
X4693873Y-3814960D02*
X4703396Y-3795912D01*
X4703396Y-3795912D02*
X4703396Y-3786388D01*
X4703396Y-3786388D02*
X4693873Y-3767341D01*
X4693873Y-3767341D02*
X4674825Y-3757817D01*
X4674825Y-3757817D02*
X4646253Y-3757817D01*
X4646253Y-3757817D02*
X4627206Y-3748293D01*
X4627206Y-3748293D02*
X4617682Y-3729246D01*
X4617682Y-3729246D02*
X4617682Y-3719722D01*
X4617682Y-3719722D02*
X4627206Y-3700674D01*
X4627206Y-3700674D02*
X4646253Y-3691150D01*
X4646253Y-3691150D02*
X4674825Y-3691150D01*
X4674825Y-3691150D02*
X4693873Y-3700674D01*
X4770063Y-3900674D02*
X4779587Y-3891150D01*
X4779587Y-3891150D02*
X4798634Y-3862579D01*
X4798634Y-3862579D02*
X4808158Y-3843531D01*
X4808158Y-3843531D02*
X4817682Y-3814960D01*
X4817682Y-3814960D02*
X4827206Y-3767341D01*
X4827206Y-3767341D02*
X4827206Y-3729246D01*
X4827206Y-3729246D02*
X4817682Y-3681627D01*
X4817682Y-3681627D02*
X4808158Y-3653055D01*
X4808158Y-3653055D02*
X4798634Y-3634008D01*
X4798634Y-3634008D02*
X4779587Y-3605436D01*
X4779587Y-3605436D02*
X4770063Y-3595912D01*
D10*
X-105000Y-3947000D02*
X-5000Y-4047000D01*
X-5000Y-3947000D02*
X-105000Y-4047000D01*
X-5000Y-3997000D02*
G75*
G02*
X-105000Y-3997000I-50000J0D01*
G01*
X-105000Y-3997000D02*
G75*
G02*
X-5000Y-3997000I50000J0D01*
G01*
D11*
X360539Y-4088484D02*
X246253Y-4088484D01*
X303396Y-4088484D02*
X303396Y-3888484D01*
X303396Y-3888484D02*
X284348Y-3917055D01*
X284348Y-3917055D02*
X265301Y-3936103D01*
X265301Y-3936103D02*
X246253Y-3945627D01*
X446253Y-4069436D02*
X455777Y-4078960D01*
X455777Y-4078960D02*
X446253Y-4088484D01*
X446253Y-4088484D02*
X436729Y-4078960D01*
X436729Y-4078960D02*
X446253Y-4069436D01*
X446253Y-4069436D02*
X446253Y-4088484D01*
X579586Y-3888484D02*
X598634Y-3888484D01*
X598634Y-3888484D02*
X617682Y-3898008D01*
X617682Y-3898008D02*
X627205Y-3907531D01*
X627205Y-3907531D02*
X636729Y-3926579D01*
X636729Y-3926579D02*
X646253Y-3964674D01*
X646253Y-3964674D02*
X646253Y-4012293D01*
X646253Y-4012293D02*
X636729Y-4050388D01*
X636729Y-4050388D02*
X627205Y-4069436D01*
X627205Y-4069436D02*
X617682Y-4078960D01*
X617682Y-4078960D02*
X598634Y-4088484D01*
X598634Y-4088484D02*
X579586Y-4088484D01*
X579586Y-4088484D02*
X560539Y-4078960D01*
X560539Y-4078960D02*
X551015Y-4069436D01*
X551015Y-4069436D02*
X541491Y-4050388D01*
X541491Y-4050388D02*
X531967Y-4012293D01*
X531967Y-4012293D02*
X531967Y-3964674D01*
X531967Y-3964674D02*
X541491Y-3926579D01*
X541491Y-3926579D02*
X551015Y-3907531D01*
X551015Y-3907531D02*
X560539Y-3898008D01*
X560539Y-3898008D02*
X579586Y-3888484D01*
X770062Y-3888484D02*
X789110Y-3888484D01*
X789110Y-3888484D02*
X808158Y-3898008D01*
X808158Y-3898008D02*
X817682Y-3907531D01*
X817682Y-3907531D02*
X827205Y-3926579D01*
X827205Y-3926579D02*
X836729Y-3964674D01*
X836729Y-3964674D02*
X836729Y-4012293D01*
X836729Y-4012293D02*
X827205Y-4050388D01*
X827205Y-4050388D02*
X817682Y-4069436D01*
X817682Y-4069436D02*
X808158Y-4078960D01*
X808158Y-4078960D02*
X789110Y-4088484D01*
X789110Y-4088484D02*
X770062Y-4088484D01*
X770062Y-4088484D02*
X751015Y-4078960D01*
X751015Y-4078960D02*
X741491Y-4069436D01*
X741491Y-4069436D02*
X731967Y-4050388D01*
X731967Y-4050388D02*
X722443Y-4012293D01*
X722443Y-4012293D02*
X722443Y-3964674D01*
X722443Y-3964674D02*
X731967Y-3926579D01*
X731967Y-3926579D02*
X741491Y-3907531D01*
X741491Y-3907531D02*
X751015Y-3898008D01*
X751015Y-3898008D02*
X770062Y-3888484D01*
X960539Y-3888484D02*
X979586Y-3888484D01*
X979586Y-3888484D02*
X998634Y-3898008D01*
X998634Y-3898008D02*
X1008158Y-3907531D01*
X1008158Y-3907531D02*
X1017682Y-3926579D01*
X1017682Y-3926579D02*
X1027205Y-3964674D01*
X1027205Y-3964674D02*
X1027205Y-4012293D01*
X1027205Y-4012293D02*
X1017682Y-4050388D01*
X1017682Y-4050388D02*
X1008158Y-4069436D01*
X1008158Y-4069436D02*
X998634Y-4078960D01*
X998634Y-4078960D02*
X979586Y-4088484D01*
X979586Y-4088484D02*
X960539Y-4088484D01*
X960539Y-4088484D02*
X941491Y-4078960D01*
X941491Y-4078960D02*
X931967Y-4069436D01*
X931967Y-4069436D02*
X922443Y-4050388D01*
X922443Y-4050388D02*
X912920Y-4012293D01*
X912920Y-4012293D02*
X912920Y-3964674D01*
X912920Y-3964674D02*
X922443Y-3926579D01*
X922443Y-3926579D02*
X931967Y-3907531D01*
X931967Y-3907531D02*
X941491Y-3898008D01*
X941491Y-3898008D02*
X960539Y-3888484D01*
X1112920Y-4088484D02*
X1112920Y-3955150D01*
X1112920Y-3974198D02*
X1122444Y-3964674D01*
X1122444Y-3964674D02*
X1141491Y-3955150D01*
X1141491Y-3955150D02*
X1170063Y-3955150D01*
X1170063Y-3955150D02*
X1189110Y-3964674D01*
X1189110Y-3964674D02*
X1198634Y-3983722D01*
X1198634Y-3983722D02*
X1198634Y-4088484D01*
X1198634Y-3983722D02*
X1208158Y-3964674D01*
X1208158Y-3964674D02*
X1227205Y-3955150D01*
X1227205Y-3955150D02*
X1255777Y-3955150D01*
X1255777Y-3955150D02*
X1274825Y-3964674D01*
X1274825Y-3964674D02*
X1284348Y-3983722D01*
X1284348Y-3983722D02*
X1284348Y-4088484D01*
X1379586Y-4088484D02*
X1379586Y-3955150D01*
X1379586Y-3974198D02*
X1389110Y-3964674D01*
X1389110Y-3964674D02*
X1408158Y-3955150D01*
X1408158Y-3955150D02*
X1436729Y-3955150D01*
X1436729Y-3955150D02*
X1455777Y-3964674D01*
X1455777Y-3964674D02*
X1465301Y-3983722D01*
X1465301Y-3983722D02*
X1465301Y-4088484D01*
X1465301Y-3983722D02*
X1474824Y-3964674D01*
X1474824Y-3964674D02*
X1493872Y-3955150D01*
X1493872Y-3955150D02*
X1522443Y-3955150D01*
X1522443Y-3955150D02*
X1541491Y-3964674D01*
X1541491Y-3964674D02*
X1551015Y-3983722D01*
X1551015Y-3983722D02*
X1551015Y-4088484D01*
X1941491Y-3878960D02*
X1770063Y-4136103D01*
X2198634Y-3888484D02*
X2217682Y-3888484D01*
X2217682Y-3888484D02*
X2236729Y-3898008D01*
X2236729Y-3898008D02*
X2246253Y-3907531D01*
X2246253Y-3907531D02*
X2255777Y-3926579D01*
X2255777Y-3926579D02*
X2265301Y-3964674D01*
X2265301Y-3964674D02*
X2265301Y-4012293D01*
X2265301Y-4012293D02*
X2255777Y-4050388D01*
X2255777Y-4050388D02*
X2246253Y-4069436D01*
X2246253Y-4069436D02*
X2236729Y-4078960D01*
X2236729Y-4078960D02*
X2217682Y-4088484D01*
X2217682Y-4088484D02*
X2198634Y-4088484D01*
X2198634Y-4088484D02*
X2179587Y-4078960D01*
X2179587Y-4078960D02*
X2170063Y-4069436D01*
X2170063Y-4069436D02*
X2160539Y-4050388D01*
X2160539Y-4050388D02*
X2151015Y-4012293D01*
X2151015Y-4012293D02*
X2151015Y-3964674D01*
X2151015Y-3964674D02*
X2160539Y-3926579D01*
X2160539Y-3926579D02*
X2170063Y-3907531D01*
X2170063Y-3907531D02*
X2179587Y-3898008D01*
X2179587Y-3898008D02*
X2198634Y-3888484D01*
X2351015Y-4069436D02*
X2360539Y-4078960D01*
X2360539Y-4078960D02*
X2351015Y-4088484D01*
X2351015Y-4088484D02*
X2341491Y-4078960D01*
X2341491Y-4078960D02*
X2351015Y-4069436D01*
X2351015Y-4069436D02*
X2351015Y-4088484D01*
X2484348Y-3888484D02*
X2503396Y-3888484D01*
X2503396Y-3888484D02*
X2522444Y-3898008D01*
X2522444Y-3898008D02*
X2531968Y-3907531D01*
X2531968Y-3907531D02*
X2541491Y-3926579D01*
X2541491Y-3926579D02*
X2551015Y-3964674D01*
X2551015Y-3964674D02*
X2551015Y-4012293D01*
X2551015Y-4012293D02*
X2541491Y-4050388D01*
X2541491Y-4050388D02*
X2531968Y-4069436D01*
X2531968Y-4069436D02*
X2522444Y-4078960D01*
X2522444Y-4078960D02*
X2503396Y-4088484D01*
X2503396Y-4088484D02*
X2484348Y-4088484D01*
X2484348Y-4088484D02*
X2465301Y-4078960D01*
X2465301Y-4078960D02*
X2455777Y-4069436D01*
X2455777Y-4069436D02*
X2446253Y-4050388D01*
X2446253Y-4050388D02*
X2436729Y-4012293D01*
X2436729Y-4012293D02*
X2436729Y-3964674D01*
X2436729Y-3964674D02*
X2446253Y-3926579D01*
X2446253Y-3926579D02*
X2455777Y-3907531D01*
X2455777Y-3907531D02*
X2465301Y-3898008D01*
X2465301Y-3898008D02*
X2484348Y-3888484D01*
X2617682Y-3888484D02*
X2741491Y-3888484D01*
X2741491Y-3888484D02*
X2674825Y-3964674D01*
X2674825Y-3964674D02*
X2703396Y-3964674D01*
X2703396Y-3964674D02*
X2722444Y-3974198D01*
X2722444Y-3974198D02*
X2731968Y-3983722D01*
X2731968Y-3983722D02*
X2741491Y-4002769D01*
X2741491Y-4002769D02*
X2741491Y-4050388D01*
X2741491Y-4050388D02*
X2731968Y-4069436D01*
X2731968Y-4069436D02*
X2722444Y-4078960D01*
X2722444Y-4078960D02*
X2703396Y-4088484D01*
X2703396Y-4088484D02*
X2646253Y-4088484D01*
X2646253Y-4088484D02*
X2627206Y-4078960D01*
X2627206Y-4078960D02*
X2617682Y-4069436D01*
X2836729Y-4088484D02*
X2874825Y-4088484D01*
X2874825Y-4088484D02*
X2893872Y-4078960D01*
X2893872Y-4078960D02*
X2903396Y-4069436D01*
X2903396Y-4069436D02*
X2922444Y-4040865D01*
X2922444Y-4040865D02*
X2931967Y-4002769D01*
X2931967Y-4002769D02*
X2931967Y-3926579D01*
X2931967Y-3926579D02*
X2922444Y-3907531D01*
X2922444Y-3907531D02*
X2912920Y-3898008D01*
X2912920Y-3898008D02*
X2893872Y-3888484D01*
X2893872Y-3888484D02*
X2855777Y-3888484D01*
X2855777Y-3888484D02*
X2836729Y-3898008D01*
X2836729Y-3898008D02*
X2827206Y-3907531D01*
X2827206Y-3907531D02*
X2817682Y-3926579D01*
X2817682Y-3926579D02*
X2817682Y-3974198D01*
X2817682Y-3974198D02*
X2827206Y-3993246D01*
X2827206Y-3993246D02*
X2836729Y-4002769D01*
X2836729Y-4002769D02*
X2855777Y-4012293D01*
X2855777Y-4012293D02*
X2893872Y-4012293D01*
X2893872Y-4012293D02*
X2912920Y-4002769D01*
X2912920Y-4002769D02*
X2922444Y-3993246D01*
X2922444Y-3993246D02*
X2931967Y-3974198D01*
X3103396Y-3955150D02*
X3103396Y-4088484D01*
X3055777Y-3878960D02*
X3008158Y-4021817D01*
X3008158Y-4021817D02*
X3131967Y-4021817D01*
X3198634Y-3888484D02*
X3198634Y-3926579D01*
X3274825Y-3888484D02*
X3274825Y-3926579D01*
X3570063Y-4164674D02*
X3560539Y-4155150D01*
X3560539Y-4155150D02*
X3541491Y-4126579D01*
X3541491Y-4126579D02*
X3531968Y-4107531D01*
X3531968Y-4107531D02*
X3522444Y-4078960D01*
X3522444Y-4078960D02*
X3512920Y-4031341D01*
X3512920Y-4031341D02*
X3512920Y-3993246D01*
X3512920Y-3993246D02*
X3522444Y-3945627D01*
X3522444Y-3945627D02*
X3531968Y-3917055D01*
X3531968Y-3917055D02*
X3541491Y-3898008D01*
X3541491Y-3898008D02*
X3560539Y-3869436D01*
X3560539Y-3869436D02*
X3570063Y-3859912D01*
X3751015Y-4088484D02*
X3636729Y-4088484D01*
X3693872Y-4088484D02*
X3693872Y-3888484D01*
X3693872Y-3888484D02*
X3674825Y-3917055D01*
X3674825Y-3917055D02*
X3655777Y-3936103D01*
X3655777Y-3936103D02*
X3636729Y-3945627D01*
X3922444Y-3888484D02*
X3884348Y-3888484D01*
X3884348Y-3888484D02*
X3865301Y-3898008D01*
X3865301Y-3898008D02*
X3855777Y-3907531D01*
X3855777Y-3907531D02*
X3836729Y-3936103D01*
X3836729Y-3936103D02*
X3827206Y-3974198D01*
X3827206Y-3974198D02*
X3827206Y-4050388D01*
X3827206Y-4050388D02*
X3836729Y-4069436D01*
X3836729Y-4069436D02*
X3846253Y-4078960D01*
X3846253Y-4078960D02*
X3865301Y-4088484D01*
X3865301Y-4088484D02*
X3903396Y-4088484D01*
X3903396Y-4088484D02*
X3922444Y-4078960D01*
X3922444Y-4078960D02*
X3931968Y-4069436D01*
X3931968Y-4069436D02*
X3941491Y-4050388D01*
X3941491Y-4050388D02*
X3941491Y-4002769D01*
X3941491Y-4002769D02*
X3931968Y-3983722D01*
X3931968Y-3983722D02*
X3922444Y-3974198D01*
X3922444Y-3974198D02*
X3903396Y-3964674D01*
X3903396Y-3964674D02*
X3865301Y-3964674D01*
X3865301Y-3964674D02*
X3846253Y-3974198D01*
X3846253Y-3974198D02*
X3836729Y-3983722D01*
X3836729Y-3983722D02*
X3827206Y-4002769D01*
X4179587Y-4088484D02*
X4179587Y-3888484D01*
X4265301Y-4088484D02*
X4265301Y-3983722D01*
X4265301Y-3983722D02*
X4255777Y-3964674D01*
X4255777Y-3964674D02*
X4236730Y-3955150D01*
X4236730Y-3955150D02*
X4208158Y-3955150D01*
X4208158Y-3955150D02*
X4189110Y-3964674D01*
X4189110Y-3964674D02*
X4179587Y-3974198D01*
X4389111Y-4088484D02*
X4370063Y-4078960D01*
X4370063Y-4078960D02*
X4360539Y-4069436D01*
X4360539Y-4069436D02*
X4351015Y-4050388D01*
X4351015Y-4050388D02*
X4351015Y-3993246D01*
X4351015Y-3993246D02*
X4360539Y-3974198D01*
X4360539Y-3974198D02*
X4370063Y-3964674D01*
X4370063Y-3964674D02*
X4389111Y-3955150D01*
X4389111Y-3955150D02*
X4417682Y-3955150D01*
X4417682Y-3955150D02*
X4436730Y-3964674D01*
X4436730Y-3964674D02*
X4446253Y-3974198D01*
X4446253Y-3974198D02*
X4455777Y-3993246D01*
X4455777Y-3993246D02*
X4455777Y-4050388D01*
X4455777Y-4050388D02*
X4446253Y-4069436D01*
X4446253Y-4069436D02*
X4436730Y-4078960D01*
X4436730Y-4078960D02*
X4417682Y-4088484D01*
X4417682Y-4088484D02*
X4389111Y-4088484D01*
X4570063Y-4088484D02*
X4551015Y-4078960D01*
X4551015Y-4078960D02*
X4541492Y-4059912D01*
X4541492Y-4059912D02*
X4541492Y-3888484D01*
X4722444Y-4078960D02*
X4703396Y-4088484D01*
X4703396Y-4088484D02*
X4665301Y-4088484D01*
X4665301Y-4088484D02*
X4646253Y-4078960D01*
X4646253Y-4078960D02*
X4636730Y-4059912D01*
X4636730Y-4059912D02*
X4636730Y-3983722D01*
X4636730Y-3983722D02*
X4646253Y-3964674D01*
X4646253Y-3964674D02*
X4665301Y-3955150D01*
X4665301Y-3955150D02*
X4703396Y-3955150D01*
X4703396Y-3955150D02*
X4722444Y-3964674D01*
X4722444Y-3964674D02*
X4731968Y-3983722D01*
X4731968Y-3983722D02*
X4731968Y-4002769D01*
X4731968Y-4002769D02*
X4636730Y-4021817D01*
X4808158Y-4078960D02*
X4827206Y-4088484D01*
X4827206Y-4088484D02*
X4865301Y-4088484D01*
X4865301Y-4088484D02*
X4884349Y-4078960D01*
X4884349Y-4078960D02*
X4893873Y-4059912D01*
X4893873Y-4059912D02*
X4893873Y-4050388D01*
X4893873Y-4050388D02*
X4884349Y-4031341D01*
X4884349Y-4031341D02*
X4865301Y-4021817D01*
X4865301Y-4021817D02*
X4836730Y-4021817D01*
X4836730Y-4021817D02*
X4817682Y-4012293D01*
X4817682Y-4012293D02*
X4808158Y-3993246D01*
X4808158Y-3993246D02*
X4808158Y-3983722D01*
X4808158Y-3983722D02*
X4817682Y-3964674D01*
X4817682Y-3964674D02*
X4836730Y-3955150D01*
X4836730Y-3955150D02*
X4865301Y-3955150D01*
X4865301Y-3955150D02*
X4884349Y-3964674D01*
X4960539Y-4164674D02*
X4970063Y-4155150D01*
X4970063Y-4155150D02*
X4989111Y-4126579D01*
X4989111Y-4126579D02*
X4998634Y-4107531D01*
X4998634Y-4107531D02*
X5008158Y-4078960D01*
X5008158Y-4078960D02*
X5017682Y-4031341D01*
X5017682Y-4031341D02*
X5017682Y-3993246D01*
X5017682Y-3993246D02*
X5008158Y-3945627D01*
X5008158Y-3945627D02*
X4998634Y-3917055D01*
X4998634Y-3917055D02*
X4989111Y-3898008D01*
X4989111Y-3898008D02*
X4970063Y-3869436D01*
X4970063Y-3869436D02*
X4960539Y-3859912D01*
M02*
