M48
; DRILL file {KiCad 9.0.9-9.0.9~ubuntu24.04.1} date 2026-08-02T14:39:42+0200
; FORMAT={-:-/ absolute / metric / decimal}
; #@! TF.CreationDate,2026-08-02T14:39:42+02:00
; #@! TF.GenerationSoftware,Kicad,Pcbnew,9.0.9-9.0.9~ubuntu24.04.1
; #@! TF.FileFunction,Plated,1,4,PTH
FMAT,2
METRIC
; #@! TA.AperFunction,Plated,PTH,ViaDrill
T1C0.200
; #@! TA.AperFunction,Plated,PTH,ViaDrill
T2C0.300
; #@! TA.AperFunction,Plated,PTH,ViaDrill
T3C0.450
; #@! TA.AperFunction,Plated,PTH,ComponentDrill
T4C0.600
; #@! TA.AperFunction,Plated,PTH,ComponentDrill
T5C0.750
; #@! TA.AperFunction,Plated,PTH,ComponentDrill
T6C1.000
%
G90
G05
T1
X12.9Y-4.435
X18.75Y-11.35
X23.0Y-16.0
X23.8Y-14.4
X25.32Y-2.87
X26.29Y-15.7
X26.71Y-9.65
X26.75Y-8.4
X27.0Y-15.6
X30.42Y-16.35
X40.45Y-14.6
X41.98Y-5.9
T2
X0.753Y-2.352
X7.004Y-15.952
X7.047Y-4.136
X7.754Y-16.498
X9.065Y-5.453
X9.636Y-12.485
X10.337Y-7.175
X11.169Y-4.428
X11.625Y-15.5
X12.306Y-10.488
X12.758Y-8.5
X13.4Y-11.221
X14.053Y-11.648
X14.383Y-12.405
X14.864Y-4.727
X15.167Y-5.477
X15.491Y-14.082
X16.227Y-4.798
X16.598Y-16.732
X16.871Y-1.318
X16.871Y-10.148
X17.3Y-11.3
X17.323Y-19.405
X17.737Y-4.194
X17.969Y-3.432
X18.4Y-9.87
X18.44Y-6.796
X18.789Y-14.799
X19.066Y-7.404
X19.185Y-5.905
X19.403Y-10.407
X19.605Y-1.42
X19.77Y-2.239
X20.308Y-14.079
X21.222Y-9.407
X21.575Y-15.853
X21.721Y-1.271
X22.309Y-9.947
X23.1Y-1.3
X23.15Y-11.04
X23.559Y-9.447
X23.858Y-1.441
X24.142Y-5.332
X24.34Y-6.63
X24.428Y-10.995
X24.617Y-9.645
X24.77Y-3.335
X25.245Y-5.183
X25.587Y-13.885
X25.674Y-9.888
X26.0Y-9.15
X26.385Y-2.331
X26.438Y-10.09
X27.58Y-2.6
X28.356Y-3.376
X28.533Y-11.943
X29.008Y-6.487
X29.043Y-5.393
X29.606Y-10.793
X29.628Y-2.816
X30.46Y-13.35
X30.506Y-3.73
X30.802Y-10.329
X30.86Y-14.4
X31.993Y-15.438
X32.15Y-6.3
X34.2Y-10.35
X34.224Y-1.58
X36.72Y-12.75
X37.355Y-1.064
X37.612Y-2.166
X37.7Y-13.18
X38.177Y-0.751
X38.2Y-14.9
X38.286Y-5.464
X38.3Y-10.45
X38.93Y-2.28
X39.968Y-15.939
X40.2Y-3.278
X40.589Y-11.933
X40.645Y-19.159
X40.93Y-15.89
X41.503Y-6.661
X41.62Y-3.55
X41.72Y-16.9
X41.743Y-7.604
X41.752Y-12.948
X42.111Y-19.333
X42.451Y-10.832
X42.681Y-15.103
X43.256Y-15.797
X43.923Y-9.383
X45.35Y-10.44
X48.866Y-9.026
X48.9Y-3.1
X49.347Y-6.476
X49.514Y-13.744
X51.0Y-10.5
X53.5Y-13.5
T3
X28.9Y-14.37
X31.9Y-3.89
T5
X53.3Y-8.2
X53.3Y-10.2
T6
X13.0Y-1.8
X15.54Y-1.8
X16.0Y-18.4
X18.54Y-18.4
X21.08Y-18.4
X23.62Y-18.4
X26.16Y-18.4
X28.7Y-18.4
X31.24Y-18.4
X33.78Y-18.4
X36.32Y-18.4
X38.86Y-18.4
X45.0Y-1.9
X47.54Y-1.9
X50.08Y-1.9
X52.62Y-1.9
T4
X3.65Y-5.84G85X3.05Y-5.84
G05
X3.65Y-14.48G85X3.05Y-14.48
G05
X8.08Y-5.84G85X6.98Y-5.84
G05
X8.08Y-14.48G85X6.98Y-14.48
G05
M30
